G04 #@! TF.GenerationSoftware,KiCad,Pcbnew,7.0.2*
G04 #@! TF.CreationDate,2023-08-15T06:03:52+05:00*
G04 #@! TF.ProjectId,RGB LEDS Halleffect,52474220-4c45-4445-9320-48616c6c6566,1*
G04 #@! TF.SameCoordinates,Original*
G04 #@! TF.FileFunction,Copper,L1,Top*
G04 #@! TF.FilePolarity,Positive*
%FSLAX46Y46*%
G04 Gerber Fmt 4.6, Leading zero omitted, Abs format (unit mm)*
G04 Created by KiCad (PCBNEW 7.0.2) date 2023-08-15 06:03:52*
%MOMM*%
%LPD*%
G01*
G04 APERTURE LIST*
G04 Aperture macros list*
%AMRoundRect*
0 Rectangle with rounded corners*
0 $1 Rounding radius*
0 $2 $3 $4 $5 $6 $7 $8 $9 X,Y pos of 4 corners*
0 Add a 4 corners polygon primitive as box body*
4,1,4,$2,$3,$4,$5,$6,$7,$8,$9,$2,$3,0*
0 Add four circle primitives for the rounded corners*
1,1,$1+$1,$2,$3*
1,1,$1+$1,$4,$5*
1,1,$1+$1,$6,$7*
1,1,$1+$1,$8,$9*
0 Add four rect primitives between the rounded corners*
20,1,$1+$1,$2,$3,$4,$5,0*
20,1,$1+$1,$4,$5,$6,$7,0*
20,1,$1+$1,$6,$7,$8,$9,0*
20,1,$1+$1,$8,$9,$2,$3,0*%
G04 Aperture macros list end*
G04 #@! TA.AperFunction,ComponentPad*
%ADD10R,1.700000X1.700000*%
G04 #@! TD*
G04 #@! TA.AperFunction,ComponentPad*
%ADD11O,1.700000X1.700000*%
G04 #@! TD*
G04 #@! TA.AperFunction,SMDPad,CuDef*
%ADD12RoundRect,0.250000X-0.475000X0.250000X-0.475000X-0.250000X0.475000X-0.250000X0.475000X0.250000X0*%
G04 #@! TD*
G04 #@! TA.AperFunction,SMDPad,CuDef*
%ADD13RoundRect,0.249999X-0.262501X-0.450001X0.262501X-0.450001X0.262501X0.450001X-0.262501X0.450001X0*%
G04 #@! TD*
G04 #@! TA.AperFunction,SMDPad,CuDef*
%ADD14R,1.500000X0.900000*%
G04 #@! TD*
G04 #@! TA.AperFunction,ComponentPad*
%ADD15R,1.050000X1.300000*%
G04 #@! TD*
G04 #@! TA.AperFunction,ComponentPad*
%ADD16O,1.050000X1.300000*%
G04 #@! TD*
G04 #@! TA.AperFunction,ViaPad*
%ADD17C,0.800000*%
G04 #@! TD*
G04 #@! TA.AperFunction,Conductor*
%ADD18C,0.508000*%
G04 #@! TD*
G04 #@! TA.AperFunction,Conductor*
%ADD19C,0.381000*%
G04 #@! TD*
G04 #@! TA.AperFunction,Conductor*
%ADD20C,1.000000*%
G04 #@! TD*
G04 APERTURE END LIST*
D10*
G04 #@! TO.P,J1,1,Pin_1*
G04 #@! TO.N,+5V*
X158025000Y-80800000D03*
D11*
G04 #@! TO.P,J1,2,Pin_2*
G04 #@! TO.N,GND*
X158025000Y-83340000D03*
G04 #@! TO.P,J1,3,Pin_3*
G04 #@! TO.N,RGB_Din*
X158025000Y-85880000D03*
G04 #@! TO.P,J1,4,Pin_4*
G04 #@! TO.N,Sensor_Out*
X158025000Y-88420000D03*
G04 #@! TO.P,J1,5,Pin_5*
G04 #@! TO.N,RGB_Dout*
X158025000Y-90960000D03*
G04 #@! TD*
D12*
G04 #@! TO.P,C4,1*
G04 #@! TO.N,GND*
X125565000Y-99765000D03*
G04 #@! TO.P,C4,2*
G04 #@! TO.N,+5V*
X125565000Y-101665000D03*
G04 #@! TD*
D13*
G04 #@! TO.P,R1,1*
G04 #@! TO.N,+5V*
X134087500Y-87745000D03*
G04 #@! TO.P,R1,2*
G04 #@! TO.N,Sensor_Out*
X135912500Y-87745000D03*
G04 #@! TD*
D12*
G04 #@! TO.P,C2,1*
G04 #@! TO.N,GND*
X155475000Y-69775000D03*
G04 #@! TO.P,C2,2*
G04 #@! TO.N,+5V*
X155475000Y-71675000D03*
G04 #@! TD*
G04 #@! TO.P,C1,1*
G04 #@! TO.N,GND*
X155565000Y-99755000D03*
G04 #@! TO.P,C1,2*
G04 #@! TO.N,+5V*
X155565000Y-101655000D03*
G04 #@! TD*
D14*
G04 #@! TO.P,D2,1,VDD*
G04 #@! TO.N,+5V*
X122450000Y-71650000D03*
G04 #@! TO.P,D2,2,DOUT*
G04 #@! TO.N,Net-(D2-DOUT)*
X122450000Y-68350000D03*
G04 #@! TO.P,D2,3,VSS*
G04 #@! TO.N,GND*
X117550000Y-68350000D03*
G04 #@! TO.P,D2,4,DIN*
G04 #@! TO.N,Net-(D1-DOUT)*
X117550000Y-71650000D03*
G04 #@! TD*
G04 #@! TO.P,D4,1,VDD*
G04 #@! TO.N,+5V*
X152450000Y-101650000D03*
G04 #@! TO.P,D4,2,DOUT*
G04 #@! TO.N,RGB_Dout*
X152450000Y-98350000D03*
G04 #@! TO.P,D4,3,VSS*
G04 #@! TO.N,GND*
X147550000Y-98350000D03*
G04 #@! TO.P,D4,4,DIN*
G04 #@! TO.N,Net-(D3-DOUT)*
X147550000Y-101650000D03*
G04 #@! TD*
G04 #@! TO.P,D3,1,VDD*
G04 #@! TO.N,+5V*
X122450000Y-101650000D03*
G04 #@! TO.P,D3,2,DOUT*
G04 #@! TO.N,Net-(D3-DOUT)*
X122450000Y-98350000D03*
G04 #@! TO.P,D3,3,VSS*
G04 #@! TO.N,GND*
X117550000Y-98350000D03*
G04 #@! TO.P,D3,4,DIN*
G04 #@! TO.N,Net-(D2-DOUT)*
X117550000Y-101650000D03*
G04 #@! TD*
D15*
G04 #@! TO.P,U1,1,VCC*
G04 #@! TO.N,+5V*
X132425000Y-85000000D03*
D16*
G04 #@! TO.P,U1,2,GND*
G04 #@! TO.N,GND*
X134965000Y-85000000D03*
G04 #@! TO.P,U1,3,VOUT*
G04 #@! TO.N,Sensor_Out*
X137505000Y-85000000D03*
G04 #@! TD*
D14*
G04 #@! TO.P,D1,1,VDD*
G04 #@! TO.N,+5V*
X152450000Y-71650000D03*
G04 #@! TO.P,D1,2,DOUT*
G04 #@! TO.N,Net-(D1-DOUT)*
X152450000Y-68350000D03*
G04 #@! TO.P,D1,3,VSS*
G04 #@! TO.N,GND*
X147550000Y-68350000D03*
G04 #@! TO.P,D1,4,DIN*
G04 #@! TO.N,RGB_Din*
X147550000Y-71650000D03*
G04 #@! TD*
D12*
G04 #@! TO.P,C3,1*
G04 #@! TO.N,GND*
X125565000Y-69735000D03*
G04 #@! TO.P,C3,2*
G04 #@! TO.N,+5V*
X125565000Y-71635000D03*
G04 #@! TD*
D17*
G04 #@! TO.N,GND*
X155485000Y-68745000D03*
X118935000Y-68375000D03*
X147555000Y-97425000D03*
X117515000Y-97345000D03*
X124405000Y-99755000D03*
X155475000Y-98665000D03*
X146215000Y-68345000D03*
X156925000Y-99795000D03*
X146175000Y-98295000D03*
X125545000Y-68565000D03*
X126785000Y-99765000D03*
G04 #@! TD*
D18*
G04 #@! TO.N,RGB_Dout*
X153930000Y-90960000D02*
X158025000Y-90960000D01*
X152450000Y-92440000D02*
X153930000Y-90960000D01*
X152450000Y-98350000D02*
X152450000Y-92440000D01*
D19*
G04 #@! TO.N,GND*
X124415000Y-99765000D02*
X124405000Y-99755000D01*
X125565000Y-68585000D02*
X125545000Y-68565000D01*
X117550000Y-97380000D02*
X117515000Y-97345000D01*
X118910000Y-68350000D02*
X118935000Y-68375000D01*
X125565000Y-99765000D02*
X126785000Y-99765000D01*
X117550000Y-68350000D02*
X118910000Y-68350000D01*
X147550000Y-68350000D02*
X146220000Y-68350000D01*
X156885000Y-99755000D02*
X156925000Y-99795000D01*
X146220000Y-68350000D02*
X146215000Y-68345000D01*
X147550000Y-98350000D02*
X146230000Y-98350000D01*
X117550000Y-98350000D02*
X117550000Y-97380000D01*
X147550000Y-98350000D02*
X147550000Y-97430000D01*
X155565000Y-98755000D02*
X155475000Y-98665000D01*
X155565000Y-99755000D02*
X155565000Y-98755000D01*
X155475000Y-68755000D02*
X155485000Y-68745000D01*
X155475000Y-69775000D02*
X155475000Y-68755000D01*
X125565000Y-69735000D02*
X125565000Y-68585000D01*
X125565000Y-99765000D02*
X124415000Y-99765000D01*
X147550000Y-97430000D02*
X147555000Y-97425000D01*
X146230000Y-98350000D02*
X146175000Y-98295000D01*
X155565000Y-99755000D02*
X156885000Y-99755000D01*
D20*
G04 #@! TO.N,+5V*
X125550000Y-71650000D02*
X125565000Y-71635000D01*
X158025000Y-80800000D02*
X155280000Y-80800000D01*
X150145000Y-95815000D02*
X146605000Y-92275000D01*
X155560000Y-101650000D02*
X155565000Y-101655000D01*
X120425000Y-95795000D02*
X131220000Y-85000000D01*
X150855000Y-70055000D02*
X152450000Y-71650000D01*
X121350000Y-101650000D02*
X120425000Y-100725000D01*
X132425000Y-86082500D02*
X134087500Y-87745000D01*
X155475000Y-71675000D02*
X152675000Y-71675000D01*
X125565000Y-71635000D02*
X127725000Y-71635000D01*
X152675000Y-71675000D02*
X152475000Y-71675000D01*
X132425000Y-76335000D02*
X138815000Y-76335000D01*
X155280000Y-80800000D02*
X152675000Y-78195000D01*
X138815000Y-76335000D02*
X145095000Y-70055000D01*
X152675000Y-78195000D02*
X152675000Y-71675000D01*
X152450000Y-101650000D02*
X155560000Y-101650000D01*
X132425000Y-85000000D02*
X132425000Y-86082500D01*
X136195000Y-92275000D02*
X134087500Y-90167500D01*
X150145000Y-99345000D02*
X150145000Y-95815000D01*
X146605000Y-92275000D02*
X136195000Y-92275000D01*
X122450000Y-101650000D02*
X125550000Y-101650000D01*
X145095000Y-70055000D02*
X150855000Y-70055000D01*
X125550000Y-101650000D02*
X125565000Y-101665000D01*
X152475000Y-71675000D02*
X152450000Y-71650000D01*
X122450000Y-71650000D02*
X125550000Y-71650000D01*
X131220000Y-85000000D02*
X132425000Y-85000000D01*
X127725000Y-71635000D02*
X132425000Y-76335000D01*
X132425000Y-76335000D02*
X132425000Y-85000000D01*
X120425000Y-100725000D02*
X120425000Y-95795000D01*
X134087500Y-90167500D02*
X134087500Y-87745000D01*
X152450000Y-101650000D02*
X150145000Y-99345000D01*
X122450000Y-101650000D02*
X121350000Y-101650000D01*
D18*
G04 #@! TO.N,Net-(D1-DOUT)*
X115485000Y-69585000D02*
X115485000Y-67805000D01*
X115485000Y-67805000D02*
X116825000Y-66465000D01*
X117550000Y-71650000D02*
X115485000Y-69585000D01*
X126075000Y-66465000D02*
X127975000Y-68365000D01*
X142495000Y-68365000D02*
X144435000Y-66425000D01*
X116825000Y-66465000D02*
X126075000Y-66465000D01*
X144435000Y-66425000D02*
X150525000Y-66425000D01*
X150525000Y-66425000D02*
X152450000Y-68350000D01*
X127975000Y-68365000D02*
X142495000Y-68365000D01*
G04 #@! TO.N,Net-(D2-DOUT)*
X122450000Y-68350000D02*
X120065000Y-70735000D01*
X120065000Y-70735000D02*
X120065000Y-90535000D01*
X115675000Y-94925000D02*
X115675000Y-99775000D01*
X120065000Y-90535000D02*
X115675000Y-94925000D01*
X115675000Y-99775000D02*
X117550000Y-101650000D01*
G04 #@! TO.N,Net-(D3-DOUT)*
X122450000Y-98350000D02*
X139750000Y-98350000D01*
X143050000Y-101650000D02*
X147550000Y-101650000D01*
X139750000Y-98350000D02*
X143050000Y-101650000D01*
G04 #@! TO.N,RGB_Din*
X147550000Y-82910000D02*
X147550000Y-71650000D01*
X150520000Y-85880000D02*
X147550000Y-82910000D01*
X158025000Y-85880000D02*
X150520000Y-85880000D01*
G04 #@! TO.N,Sensor_Out*
X137505000Y-85000000D02*
X137505000Y-86152500D01*
X158025000Y-88420000D02*
X143850000Y-88420000D01*
X143850000Y-88420000D02*
X140430000Y-85000000D01*
X137505000Y-86152500D02*
X135912500Y-87745000D01*
X140430000Y-85000000D02*
X137505000Y-85000000D01*
G04 #@! TD*
G04 #@! TA.AperFunction,Conductor*
G04 #@! TO.N,GND*
G36*
X150555258Y-70829462D02*
G01*
X150586117Y-70853141D01*
X151401859Y-71668883D01*
X151440423Y-71735678D01*
X151445500Y-71774242D01*
X151445500Y-72125063D01*
X151460266Y-72199302D01*
X151516514Y-72283482D01*
X151516515Y-72283482D01*
X151516516Y-72283484D01*
X151600699Y-72339734D01*
X151674933Y-72354500D01*
X151771501Y-72354499D01*
X151845999Y-72374461D01*
X151900537Y-72428998D01*
X151920500Y-72503498D01*
X151920500Y-78129178D01*
X151918927Y-78150772D01*
X151915684Y-78172905D01*
X151919933Y-78221460D01*
X151920500Y-78234447D01*
X151920500Y-78238941D01*
X151921002Y-78243242D01*
X151921003Y-78243249D01*
X151924073Y-78269522D01*
X151924513Y-78273826D01*
X151931336Y-78351808D01*
X151934741Y-78367167D01*
X151961506Y-78440704D01*
X151962927Y-78444793D01*
X151987545Y-78519080D01*
X151994405Y-78533249D01*
X152037406Y-78598630D01*
X152039712Y-78602250D01*
X152079130Y-78666154D01*
X152079132Y-78666156D01*
X152080815Y-78668884D01*
X152090755Y-78681087D01*
X152147673Y-78734786D01*
X152150782Y-78737806D01*
X154699948Y-81286972D01*
X154714106Y-81303355D01*
X154727461Y-81321294D01*
X154764794Y-81352620D01*
X154774378Y-81361402D01*
X154777559Y-81364583D01*
X154780955Y-81367268D01*
X154801719Y-81383686D01*
X154805081Y-81386425D01*
X154865032Y-81436731D01*
X154878294Y-81445179D01*
X154881206Y-81446537D01*
X154881209Y-81446539D01*
X154949254Y-81478269D01*
X154953138Y-81480150D01*
X155020189Y-81513824D01*
X155020190Y-81513824D01*
X155023059Y-81515265D01*
X155037920Y-81520430D01*
X155041057Y-81521077D01*
X155041060Y-81521079D01*
X155114596Y-81536262D01*
X155118723Y-81537177D01*
X155191812Y-81554500D01*
X155191814Y-81554500D01*
X155194928Y-81555238D01*
X155210588Y-81556837D01*
X155213787Y-81556743D01*
X155213793Y-81556745D01*
X155288781Y-81554563D01*
X155293115Y-81554500D01*
X156774238Y-81554500D01*
X156848738Y-81574462D01*
X156903276Y-81629000D01*
X156920376Y-81674435D01*
X156920501Y-81675063D01*
X156920501Y-81675066D01*
X156931046Y-81728086D01*
X156935266Y-81749302D01*
X156991514Y-81833482D01*
X156991515Y-81833482D01*
X156991516Y-81833484D01*
X157075699Y-81889734D01*
X157149933Y-81904500D01*
X157248887Y-81904499D01*
X157323384Y-81924461D01*
X157377922Y-81978998D01*
X157397885Y-82053498D01*
X157377923Y-82127998D01*
X157334349Y-82175552D01*
X157153922Y-82301889D01*
X156986890Y-82468921D01*
X156851399Y-82662423D01*
X156751568Y-82876509D01*
X156694363Y-83089999D01*
X156694364Y-83090000D01*
X157591314Y-83090000D01*
X157565507Y-83130156D01*
X157525000Y-83268111D01*
X157525000Y-83411889D01*
X157565507Y-83549844D01*
X157591314Y-83590000D01*
X156694364Y-83590000D01*
X156751568Y-83803491D01*
X156851401Y-84017582D01*
X156986887Y-84211075D01*
X157153924Y-84378112D01*
X157347417Y-84513598D01*
X157551206Y-84608626D01*
X157610289Y-84658203D01*
X157636669Y-84730679D01*
X157623276Y-84806636D01*
X157573699Y-84865719D01*
X157542065Y-84882603D01*
X157530573Y-84887055D01*
X157356538Y-84994813D01*
X157205268Y-85132714D01*
X157073592Y-85307083D01*
X157071087Y-85305191D01*
X157034391Y-85346710D01*
X156961260Y-85371218D01*
X156952093Y-85371500D01*
X150792346Y-85371500D01*
X150717846Y-85351538D01*
X150686987Y-85327859D01*
X148102141Y-82743013D01*
X148063577Y-82676218D01*
X148058500Y-82637654D01*
X148058500Y-72503499D01*
X148078462Y-72428999D01*
X148133000Y-72374461D01*
X148207500Y-72354499D01*
X148325064Y-72354499D01*
X148325066Y-72354499D01*
X148399301Y-72339734D01*
X148483484Y-72283484D01*
X148539734Y-72199301D01*
X148554500Y-72125067D01*
X148554499Y-71174934D01*
X148539734Y-71100699D01*
X148517701Y-71067724D01*
X148500032Y-71041281D01*
X148475239Y-70968246D01*
X148490285Y-70892600D01*
X148541139Y-70834612D01*
X148614174Y-70809819D01*
X148623920Y-70809500D01*
X150480758Y-70809500D01*
X150555258Y-70829462D01*
G37*
G04 #@! TD.AperFunction*
G04 #@! TA.AperFunction,Conductor*
G36*
X159825000Y-60120462D02*
G01*
X159879538Y-60175000D01*
X159899500Y-60249500D01*
X159899500Y-109750500D01*
X159879538Y-109825000D01*
X159825000Y-109879538D01*
X159750500Y-109899500D01*
X110249500Y-109899500D01*
X110175000Y-109879538D01*
X110120462Y-109825000D01*
X110100500Y-109750500D01*
X110100500Y-99738351D01*
X115162579Y-99738351D01*
X115166120Y-99787846D01*
X115166500Y-99798477D01*
X115166500Y-99811371D01*
X115168333Y-99824125D01*
X115169469Y-99834692D01*
X115173010Y-99884199D01*
X115173860Y-99886477D01*
X115181735Y-99917330D01*
X115182080Y-99919732D01*
X115202694Y-99964871D01*
X115206763Y-99974695D01*
X115224109Y-100021201D01*
X115224110Y-100021203D01*
X115224111Y-100021204D01*
X115225561Y-100023142D01*
X115241814Y-100050532D01*
X115242824Y-100052743D01*
X115275329Y-100090256D01*
X115281988Y-100098519D01*
X115289720Y-100108848D01*
X115289721Y-100108849D01*
X115298836Y-100117964D01*
X115306084Y-100125749D01*
X115338579Y-100163250D01*
X115339998Y-100164162D01*
X115340611Y-100164556D01*
X115365418Y-100184546D01*
X116501859Y-101320987D01*
X116540423Y-101387782D01*
X116545500Y-101426346D01*
X116545500Y-102125063D01*
X116560266Y-102199302D01*
X116616514Y-102283482D01*
X116616515Y-102283482D01*
X116616516Y-102283484D01*
X116700699Y-102339734D01*
X116774933Y-102354500D01*
X118325066Y-102354499D01*
X118399301Y-102339734D01*
X118483484Y-102283484D01*
X118539734Y-102199301D01*
X118554500Y-102125067D01*
X118554499Y-101174934D01*
X118539734Y-101100699D01*
X118537836Y-101097859D01*
X118483485Y-101016517D01*
X118483484Y-101016516D01*
X118399301Y-100960266D01*
X118399300Y-100960265D01*
X118399299Y-100960265D01*
X118325067Y-100945500D01*
X117626346Y-100945500D01*
X117551846Y-100925538D01*
X117520987Y-100901859D01*
X117322033Y-100702905D01*
X119665684Y-100702905D01*
X119669933Y-100751460D01*
X119670500Y-100764447D01*
X119670500Y-100768941D01*
X119671002Y-100773242D01*
X119671003Y-100773249D01*
X119674073Y-100799522D01*
X119674513Y-100803826D01*
X119681336Y-100881808D01*
X119684741Y-100897167D01*
X119711506Y-100970704D01*
X119712927Y-100974793D01*
X119737545Y-101049080D01*
X119744405Y-101063249D01*
X119746163Y-101065922D01*
X119746164Y-101065924D01*
X119785765Y-101126135D01*
X119787406Y-101128630D01*
X119789712Y-101132250D01*
X119829130Y-101196154D01*
X119829132Y-101196156D01*
X119830815Y-101198884D01*
X119840755Y-101211087D01*
X119897673Y-101264786D01*
X119900782Y-101267806D01*
X120769948Y-102136972D01*
X120784105Y-102153353D01*
X120797461Y-102171294D01*
X120830838Y-102199301D01*
X120834794Y-102202620D01*
X120844378Y-102211402D01*
X120847559Y-102214583D01*
X120850955Y-102217268D01*
X120871719Y-102233686D01*
X120875081Y-102236425D01*
X120935032Y-102286731D01*
X120948294Y-102295179D01*
X120951206Y-102296537D01*
X120951209Y-102296539D01*
X121019253Y-102328268D01*
X121023137Y-102330149D01*
X121090189Y-102363824D01*
X121090190Y-102363824D01*
X121093063Y-102365267D01*
X121107924Y-102370433D01*
X121155050Y-102380162D01*
X121184612Y-102386266D01*
X121188753Y-102387184D01*
X121261812Y-102404500D01*
X121261814Y-102404500D01*
X121264932Y-102405239D01*
X121280588Y-102406838D01*
X121283788Y-102406744D01*
X121283794Y-102406746D01*
X121358816Y-102404563D01*
X121363150Y-102404500D01*
X122361812Y-102404500D01*
X124931878Y-102404500D01*
X124975612Y-102412390D01*
X124981657Y-102413039D01*
X124981658Y-102413040D01*
X125041745Y-102419500D01*
X125472686Y-102419499D01*
X125495591Y-102421839D01*
X125498792Y-102421745D01*
X125498793Y-102421746D01*
X125573818Y-102419562D01*
X125578155Y-102419499D01*
X126084261Y-102419499D01*
X126088254Y-102419499D01*
X126148342Y-102413040D01*
X126284267Y-102362342D01*
X126400404Y-102275404D01*
X126487342Y-102159267D01*
X126538040Y-102023342D01*
X126544500Y-101963255D01*
X126544499Y-101366746D01*
X126538040Y-101306658D01*
X126487342Y-101170733D01*
X126400404Y-101054596D01*
X126287195Y-100969850D01*
X126239518Y-100909224D01*
X126228542Y-100832881D01*
X126257207Y-100761278D01*
X126317834Y-100713600D01*
X126329623Y-100709132D01*
X126359122Y-100699357D01*
X126508344Y-100607316D01*
X126632316Y-100483344D01*
X126724358Y-100334120D01*
X126779506Y-100167694D01*
X126789613Y-100068765D01*
X126790000Y-100061178D01*
X126790000Y-100015000D01*
X124340001Y-100015000D01*
X124340001Y-100061191D01*
X124340385Y-100068738D01*
X124350494Y-100167699D01*
X124405641Y-100334120D01*
X124497683Y-100483344D01*
X124621655Y-100607316D01*
X124641705Y-100619683D01*
X124694633Y-100675784D01*
X124712421Y-100750832D01*
X124690301Y-100824721D01*
X124634200Y-100877649D01*
X124563484Y-100895500D01*
X121724242Y-100895500D01*
X121649742Y-100875538D01*
X121618883Y-100851859D01*
X121223141Y-100456117D01*
X121184577Y-100389322D01*
X121179500Y-100350758D01*
X121179500Y-98970292D01*
X121199462Y-98895792D01*
X121254000Y-98841254D01*
X121328500Y-98821292D01*
X121403000Y-98841254D01*
X121452389Y-98887512D01*
X121460265Y-98899300D01*
X121460266Y-98899301D01*
X121516516Y-98983484D01*
X121600699Y-99039734D01*
X121674933Y-99054500D01*
X123225066Y-99054499D01*
X123299301Y-99039734D01*
X123383484Y-98983484D01*
X123383485Y-98983482D01*
X123422751Y-98924719D01*
X123480739Y-98873865D01*
X123546639Y-98858500D01*
X124346771Y-98858500D01*
X124421271Y-98878462D01*
X124475809Y-98933000D01*
X124495771Y-99007500D01*
X124475809Y-99082000D01*
X124473587Y-99085721D01*
X124405642Y-99195876D01*
X124350493Y-99362305D01*
X124340386Y-99461234D01*
X124340000Y-99468821D01*
X124340000Y-99515000D01*
X126789998Y-99515000D01*
X126789999Y-99468808D01*
X126789614Y-99461261D01*
X126779505Y-99362300D01*
X126724357Y-99195876D01*
X126656413Y-99085721D01*
X126634292Y-99011833D01*
X126652079Y-98936784D01*
X126705008Y-98880684D01*
X126778896Y-98858563D01*
X126783229Y-98858500D01*
X139477654Y-98858500D01*
X139552154Y-98878462D01*
X139583013Y-98902141D01*
X142640452Y-101959580D01*
X142660439Y-101984383D01*
X142661747Y-101986418D01*
X142661749Y-101986420D01*
X142661750Y-101986421D01*
X142699264Y-102018927D01*
X142707021Y-102026149D01*
X142716152Y-102035280D01*
X142726480Y-102043011D01*
X142734752Y-102049677D01*
X142772255Y-102082175D01*
X142772256Y-102082175D01*
X142772257Y-102082176D01*
X142774456Y-102083180D01*
X142801857Y-102099438D01*
X142803794Y-102100888D01*
X142803795Y-102100888D01*
X142803796Y-102100889D01*
X142850303Y-102118235D01*
X142860127Y-102122305D01*
X142905266Y-102142919D01*
X142907663Y-102143263D01*
X142938522Y-102151139D01*
X142940800Y-102151989D01*
X142990299Y-102155529D01*
X143000873Y-102156665D01*
X143013632Y-102158500D01*
X143026522Y-102158500D01*
X143037151Y-102158879D01*
X143051112Y-102159878D01*
X143086647Y-102162420D01*
X143086647Y-102162419D01*
X143086649Y-102162420D01*
X143089016Y-102161904D01*
X143120689Y-102158500D01*
X146453361Y-102158500D01*
X146527861Y-102178462D01*
X146577249Y-102224719D01*
X146616514Y-102283482D01*
X146616515Y-102283482D01*
X146616516Y-102283484D01*
X146700699Y-102339734D01*
X146774933Y-102354500D01*
X148325066Y-102354499D01*
X148399301Y-102339734D01*
X148483484Y-102283484D01*
X148539734Y-102199301D01*
X148554500Y-102125067D01*
X148554499Y-101174934D01*
X148539734Y-101100699D01*
X148537836Y-101097859D01*
X148483485Y-101016517D01*
X148483484Y-101016516D01*
X148399301Y-100960266D01*
X148399300Y-100960265D01*
X148399299Y-100960265D01*
X148325067Y-100945500D01*
X146774936Y-100945500D01*
X146700697Y-100960266D01*
X146616515Y-101016515D01*
X146577249Y-101075281D01*
X146519261Y-101126135D01*
X146453361Y-101141500D01*
X143322346Y-101141500D01*
X143247846Y-101121538D01*
X143216987Y-101097859D01*
X140719128Y-98600000D01*
X146300000Y-98600000D01*
X146300000Y-98843841D01*
X146300426Y-98851797D01*
X146306401Y-98907373D01*
X146356647Y-99042088D01*
X146442811Y-99157188D01*
X146557911Y-99243352D01*
X146692626Y-99293598D01*
X146748202Y-99299573D01*
X146756159Y-99300000D01*
X147300000Y-99300000D01*
X147300000Y-98600000D01*
X147800000Y-98600000D01*
X147800000Y-99300000D01*
X148343841Y-99300000D01*
X148351797Y-99299573D01*
X148407373Y-99293598D01*
X148542088Y-99243352D01*
X148657188Y-99157188D01*
X148743352Y-99042088D01*
X148793598Y-98907373D01*
X148799573Y-98851797D01*
X148800000Y-98843841D01*
X148800000Y-98600000D01*
X147800000Y-98600000D01*
X147300000Y-98600000D01*
X146300000Y-98600000D01*
X140719128Y-98600000D01*
X140219128Y-98100000D01*
X146300000Y-98100000D01*
X147300000Y-98100000D01*
X147300000Y-97400000D01*
X147800000Y-97400000D01*
X147800000Y-98100000D01*
X148800000Y-98100000D01*
X148800000Y-97856158D01*
X148799573Y-97848202D01*
X148793598Y-97792626D01*
X148743352Y-97657911D01*
X148657188Y-97542811D01*
X148542088Y-97456647D01*
X148407373Y-97406401D01*
X148351797Y-97400426D01*
X148343841Y-97400000D01*
X147800000Y-97400000D01*
X147300000Y-97400000D01*
X146756159Y-97400000D01*
X146748202Y-97400426D01*
X146692626Y-97406401D01*
X146557911Y-97456647D01*
X146442811Y-97542811D01*
X146356647Y-97657911D01*
X146306401Y-97792626D01*
X146300426Y-97848202D01*
X146300000Y-97856158D01*
X146300000Y-98100000D01*
X140219128Y-98100000D01*
X140159546Y-98040418D01*
X140139556Y-98015611D01*
X140138249Y-98013578D01*
X140100749Y-97981084D01*
X140092964Y-97973836D01*
X140083849Y-97964721D01*
X140083848Y-97964720D01*
X140073519Y-97956988D01*
X140065256Y-97950329D01*
X140027743Y-97917824D01*
X140025532Y-97916814D01*
X139998142Y-97900561D01*
X139996204Y-97899111D01*
X139996203Y-97899110D01*
X139996201Y-97899109D01*
X139949695Y-97881763D01*
X139939871Y-97877694D01*
X139933827Y-97874934D01*
X139894734Y-97857081D01*
X139894732Y-97857080D01*
X139892330Y-97856735D01*
X139861477Y-97848860D01*
X139859199Y-97848010D01*
X139809692Y-97844469D01*
X139799125Y-97843333D01*
X139786372Y-97841500D01*
X139786368Y-97841500D01*
X139773478Y-97841500D01*
X139762850Y-97841120D01*
X139757833Y-97840761D01*
X139713352Y-97837579D01*
X139710984Y-97838095D01*
X139679311Y-97841500D01*
X123546639Y-97841500D01*
X123472139Y-97821538D01*
X123422751Y-97775281D01*
X123383485Y-97716517D01*
X123383484Y-97716516D01*
X123299301Y-97660266D01*
X123299300Y-97660265D01*
X123299299Y-97660265D01*
X123225067Y-97645500D01*
X121674936Y-97645500D01*
X121600697Y-97660266D01*
X121516515Y-97716515D01*
X121452388Y-97812488D01*
X121394400Y-97863342D01*
X121318754Y-97878388D01*
X121245719Y-97853595D01*
X121194865Y-97795607D01*
X121179500Y-97729707D01*
X121179500Y-96169241D01*
X121199462Y-96094741D01*
X121223141Y-96063882D01*
X126353803Y-90933220D01*
X131416143Y-85870880D01*
X131482936Y-85832318D01*
X131560064Y-85832318D01*
X131626859Y-85870882D01*
X131665423Y-85937677D01*
X131670500Y-85976241D01*
X131670500Y-86016678D01*
X131668927Y-86038272D01*
X131665684Y-86060405D01*
X131669933Y-86108960D01*
X131670500Y-86121947D01*
X131670500Y-86126441D01*
X131671002Y-86130742D01*
X131671003Y-86130749D01*
X131674073Y-86157022D01*
X131674513Y-86161326D01*
X131681336Y-86239308D01*
X131684741Y-86254667D01*
X131711506Y-86328204D01*
X131712927Y-86332293D01*
X131719525Y-86352202D01*
X131735576Y-86400640D01*
X131737545Y-86406580D01*
X131744405Y-86420749D01*
X131746163Y-86423422D01*
X131746164Y-86423424D01*
X131777959Y-86471767D01*
X131787406Y-86486130D01*
X131789712Y-86489750D01*
X131829130Y-86553654D01*
X131829132Y-86553656D01*
X131830815Y-86556384D01*
X131840755Y-86568587D01*
X131897673Y-86622286D01*
X131900782Y-86625306D01*
X132602014Y-87326538D01*
X133276859Y-88001382D01*
X133315423Y-88068177D01*
X133320500Y-88106741D01*
X133320500Y-88243256D01*
X133320925Y-88247211D01*
X133320926Y-88247225D01*
X133328960Y-88321953D01*
X133328592Y-88321992D01*
X133333000Y-88346420D01*
X133333000Y-90101677D01*
X133331427Y-90123271D01*
X133328184Y-90145407D01*
X133332432Y-90193966D01*
X133332999Y-90206917D01*
X133332999Y-90207094D01*
X133332999Y-90207104D01*
X133333000Y-90211441D01*
X133333502Y-90215739D01*
X133333503Y-90215752D01*
X133336573Y-90242022D01*
X133337013Y-90246326D01*
X133343836Y-90324308D01*
X133347241Y-90339667D01*
X133374006Y-90413204D01*
X133375427Y-90417293D01*
X133400045Y-90491580D01*
X133406905Y-90505749D01*
X133408663Y-90508422D01*
X133408664Y-90508424D01*
X133445088Y-90563805D01*
X133449906Y-90571130D01*
X133452194Y-90574720D01*
X133491630Y-90638654D01*
X133491632Y-90638656D01*
X133493315Y-90641384D01*
X133503255Y-90653587D01*
X133560173Y-90707286D01*
X133563282Y-90710306D01*
X135614948Y-92761972D01*
X135629106Y-92778355D01*
X135642461Y-92796294D01*
X135679794Y-92827620D01*
X135689378Y-92836402D01*
X135692559Y-92839583D01*
X135695955Y-92842268D01*
X135716719Y-92858686D01*
X135720081Y-92861425D01*
X135780032Y-92911731D01*
X135793294Y-92920179D01*
X135796206Y-92921537D01*
X135796209Y-92921539D01*
X135864254Y-92953269D01*
X135868138Y-92955150D01*
X135935189Y-92988824D01*
X135935190Y-92988824D01*
X135938059Y-92990265D01*
X135952918Y-92995430D01*
X135956059Y-92996078D01*
X135956060Y-92996079D01*
X136029592Y-93011262D01*
X136033807Y-93012197D01*
X136106812Y-93029500D01*
X136106814Y-93029500D01*
X136109932Y-93030239D01*
X136125588Y-93031839D01*
X136128792Y-93031745D01*
X136128794Y-93031746D01*
X136203816Y-93029563D01*
X136208151Y-93029500D01*
X146230758Y-93029500D01*
X146305258Y-93049462D01*
X146336117Y-93073141D01*
X149346859Y-96083883D01*
X149385423Y-96150678D01*
X149390500Y-96189242D01*
X149390500Y-99279178D01*
X149388927Y-99300772D01*
X149385684Y-99322905D01*
X149389933Y-99371460D01*
X149390500Y-99384447D01*
X149390500Y-99388941D01*
X149391002Y-99393242D01*
X149391003Y-99393249D01*
X149394073Y-99419522D01*
X149394513Y-99423826D01*
X149401336Y-99501808D01*
X149404741Y-99517167D01*
X149431506Y-99590704D01*
X149432927Y-99594793D01*
X149457545Y-99669080D01*
X149464405Y-99683249D01*
X149466163Y-99685922D01*
X149466164Y-99685924D01*
X149507406Y-99748630D01*
X149509712Y-99752250D01*
X149549130Y-99816154D01*
X149549132Y-99816156D01*
X149550815Y-99818884D01*
X149560755Y-99831087D01*
X149617673Y-99884786D01*
X149620782Y-99887806D01*
X151401859Y-101668883D01*
X151440423Y-101735678D01*
X151445500Y-101774242D01*
X151445500Y-102125063D01*
X151460266Y-102199302D01*
X151516514Y-102283482D01*
X151516515Y-102283482D01*
X151516516Y-102283484D01*
X151600699Y-102339734D01*
X151674933Y-102354500D01*
X152136307Y-102354499D01*
X152172461Y-102363066D01*
X152173234Y-102359806D01*
X152186170Y-102362871D01*
X152207920Y-102370430D01*
X152211057Y-102371077D01*
X152211060Y-102371079D01*
X152284596Y-102386262D01*
X152288723Y-102387177D01*
X152361812Y-102404500D01*
X152361814Y-102404500D01*
X152364928Y-102405238D01*
X152380588Y-102406837D01*
X152383787Y-102406743D01*
X152383793Y-102406745D01*
X152458781Y-102404563D01*
X152463115Y-102404500D01*
X154987254Y-102404500D01*
X155003181Y-102405354D01*
X155041745Y-102409500D01*
X155472687Y-102409499D01*
X155495593Y-102411839D01*
X155498793Y-102411745D01*
X155498794Y-102411746D01*
X155565965Y-102409791D01*
X155573835Y-102409562D01*
X155578170Y-102409499D01*
X156084261Y-102409499D01*
X156088254Y-102409499D01*
X156148342Y-102403040D01*
X156284267Y-102352342D01*
X156400404Y-102265404D01*
X156487342Y-102149267D01*
X156538040Y-102013342D01*
X156544500Y-101953255D01*
X156544499Y-101356746D01*
X156538040Y-101296658D01*
X156487342Y-101160733D01*
X156400404Y-101044596D01*
X156287195Y-100959850D01*
X156239518Y-100899224D01*
X156228542Y-100822881D01*
X156257207Y-100751278D01*
X156317834Y-100703600D01*
X156329623Y-100699132D01*
X156359122Y-100689357D01*
X156508344Y-100597316D01*
X156632316Y-100473344D01*
X156724358Y-100324120D01*
X156779506Y-100157694D01*
X156789613Y-100058765D01*
X156790000Y-100051178D01*
X156790000Y-100005000D01*
X154340001Y-100005000D01*
X154340001Y-100051191D01*
X154340385Y-100058738D01*
X154350494Y-100157699D01*
X154405641Y-100324120D01*
X154497683Y-100473344D01*
X154621658Y-100597319D01*
X154657917Y-100619684D01*
X154710846Y-100675784D01*
X154728633Y-100750833D01*
X154706512Y-100824721D01*
X154650412Y-100877650D01*
X154579696Y-100895500D01*
X152824242Y-100895500D01*
X152749742Y-100875538D01*
X152718883Y-100851859D01*
X151372024Y-99505000D01*
X154340000Y-99505000D01*
X155315000Y-99505000D01*
X155315000Y-98755000D01*
X155815000Y-98755000D01*
X155815000Y-99505000D01*
X156789999Y-99505000D01*
X156789999Y-99458808D01*
X156789614Y-99451261D01*
X156779505Y-99352300D01*
X156724358Y-99185879D01*
X156632316Y-99036655D01*
X156508344Y-98912683D01*
X156359120Y-98820641D01*
X156192694Y-98765493D01*
X156093765Y-98755386D01*
X156086179Y-98755000D01*
X155815000Y-98755000D01*
X155315000Y-98755000D01*
X155043808Y-98755000D01*
X155036261Y-98755385D01*
X154937300Y-98765494D01*
X154770879Y-98820641D01*
X154621655Y-98912683D01*
X154497683Y-99036655D01*
X154405641Y-99185879D01*
X154350493Y-99352305D01*
X154340386Y-99451234D01*
X154340000Y-99458821D01*
X154340000Y-99505000D01*
X151372024Y-99505000D01*
X150943141Y-99076117D01*
X150904577Y-99009322D01*
X150899500Y-98970758D01*
X150899500Y-98825063D01*
X151445500Y-98825063D01*
X151460266Y-98899302D01*
X151516514Y-98983482D01*
X151516515Y-98983482D01*
X151516516Y-98983484D01*
X151600699Y-99039734D01*
X151674933Y-99054500D01*
X153225066Y-99054499D01*
X153299301Y-99039734D01*
X153383484Y-98983484D01*
X153439734Y-98899301D01*
X153454500Y-98825067D01*
X153454499Y-97874934D01*
X153439734Y-97800699D01*
X153383484Y-97716516D01*
X153299301Y-97660266D01*
X153299300Y-97660265D01*
X153299299Y-97660265D01*
X153225067Y-97645500D01*
X153107500Y-97645500D01*
X153033000Y-97625538D01*
X152978462Y-97571000D01*
X152958500Y-97496500D01*
X152958500Y-92712346D01*
X152978462Y-92637846D01*
X153002141Y-92606987D01*
X154096987Y-91512141D01*
X154163782Y-91473577D01*
X154202346Y-91468500D01*
X156952093Y-91468500D01*
X157026593Y-91488462D01*
X157072142Y-91534011D01*
X157073592Y-91532917D01*
X157081911Y-91543933D01*
X157081912Y-91543935D01*
X157094932Y-91561176D01*
X157205268Y-91707285D01*
X157356538Y-91845186D01*
X157530574Y-91952945D01*
X157626008Y-91989915D01*
X157721444Y-92026888D01*
X157854446Y-92051750D01*
X157922652Y-92064500D01*
X157922653Y-92064500D01*
X158127348Y-92064500D01*
X158159036Y-92058576D01*
X158328556Y-92026888D01*
X158484342Y-91966535D01*
X158519425Y-91952945D01*
X158519427Y-91952944D01*
X158693462Y-91845186D01*
X158844732Y-91707285D01*
X158968088Y-91543935D01*
X159059328Y-91360701D01*
X159115345Y-91163821D01*
X159134232Y-90960000D01*
X159131750Y-90933220D01*
X159115345Y-90756179D01*
X159059329Y-90559300D01*
X159006940Y-90454091D01*
X158968088Y-90376065D01*
X158844732Y-90212715D01*
X158843335Y-90211441D01*
X158693461Y-90074813D01*
X158519425Y-89967054D01*
X158328556Y-89893112D01*
X158127348Y-89855500D01*
X158127347Y-89855500D01*
X157922653Y-89855500D01*
X157922652Y-89855500D01*
X157721443Y-89893112D01*
X157530574Y-89967054D01*
X157356538Y-90074813D01*
X157205268Y-90212714D01*
X157120997Y-90324308D01*
X157087994Y-90368012D01*
X157073592Y-90387083D01*
X157071087Y-90385191D01*
X157034391Y-90426710D01*
X156961260Y-90451218D01*
X156952093Y-90451500D01*
X154000689Y-90451500D01*
X153969016Y-90448095D01*
X153966647Y-90447579D01*
X153917156Y-90451120D01*
X153906525Y-90451500D01*
X153893631Y-90451500D01*
X153880851Y-90453336D01*
X153870296Y-90454470D01*
X153820798Y-90458011D01*
X153818526Y-90458859D01*
X153787672Y-90466734D01*
X153785267Y-90467079D01*
X153740106Y-90487703D01*
X153730284Y-90491771D01*
X153683794Y-90509111D01*
X153681848Y-90510568D01*
X153654465Y-90526815D01*
X153652257Y-90527823D01*
X153614744Y-90560328D01*
X153606467Y-90566998D01*
X153596151Y-90574720D01*
X153587028Y-90583843D01*
X153579260Y-90591074D01*
X153575073Y-90594704D01*
X153541748Y-90623581D01*
X153540440Y-90625617D01*
X153520457Y-90650413D01*
X152140413Y-92030457D01*
X152115617Y-92050440D01*
X152113581Y-92051748D01*
X152113579Y-92051749D01*
X152113579Y-92051750D01*
X152081074Y-92089260D01*
X152073843Y-92097028D01*
X152064720Y-92106151D01*
X152056998Y-92116467D01*
X152050328Y-92124744D01*
X152017823Y-92162257D01*
X152016815Y-92164465D01*
X152000569Y-92191847D01*
X151999111Y-92193794D01*
X151981763Y-92240303D01*
X151977696Y-92250122D01*
X151957080Y-92295266D01*
X151956735Y-92297670D01*
X151948863Y-92328513D01*
X151948010Y-92330798D01*
X151944469Y-92380308D01*
X151943334Y-92390873D01*
X151941500Y-92403633D01*
X151941500Y-92416521D01*
X151941120Y-92427151D01*
X151937579Y-92476647D01*
X151938095Y-92479017D01*
X151941500Y-92510690D01*
X151941500Y-97496500D01*
X151921538Y-97571000D01*
X151867000Y-97625538D01*
X151792501Y-97645500D01*
X151674936Y-97645500D01*
X151600697Y-97660266D01*
X151516517Y-97716514D01*
X151460265Y-97800700D01*
X151445500Y-97874932D01*
X151445500Y-98825063D01*
X150899500Y-98825063D01*
X150899500Y-95880821D01*
X150901073Y-95859226D01*
X150904315Y-95837093D01*
X150900067Y-95788537D01*
X150899500Y-95775551D01*
X150899500Y-95775389D01*
X150899500Y-95771059D01*
X150898997Y-95766760D01*
X150898997Y-95766750D01*
X150895924Y-95740462D01*
X150895483Y-95736147D01*
X150893189Y-95709928D01*
X150888943Y-95661388D01*
X150888663Y-95658186D01*
X150885261Y-95642843D01*
X150884160Y-95639818D01*
X150884160Y-95639816D01*
X150858481Y-95569264D01*
X150857073Y-95565211D01*
X150832453Y-95490914D01*
X150825600Y-95476759D01*
X150823836Y-95474077D01*
X150823836Y-95474076D01*
X150782583Y-95411353D01*
X150780272Y-95407726D01*
X150740870Y-95343846D01*
X150740868Y-95343844D01*
X150739185Y-95341115D01*
X150729247Y-95328914D01*
X150672326Y-95275212D01*
X150669217Y-95272193D01*
X147185051Y-91788027D01*
X147170893Y-91771643D01*
X147157540Y-91753707D01*
X147120204Y-91722378D01*
X147110620Y-91713596D01*
X147110512Y-91713488D01*
X147107441Y-91710417D01*
X147083257Y-91691295D01*
X147079938Y-91688591D01*
X147022427Y-91640333D01*
X147022424Y-91640331D01*
X147019971Y-91638273D01*
X147006699Y-91629817D01*
X146935760Y-91596737D01*
X146931878Y-91594858D01*
X146864811Y-91561176D01*
X146861944Y-91559736D01*
X146847070Y-91554567D01*
X146770416Y-91538738D01*
X146766188Y-91537801D01*
X146690063Y-91519759D01*
X146674411Y-91518160D01*
X146596183Y-91520437D01*
X146591849Y-91520500D01*
X136569242Y-91520500D01*
X136494742Y-91500538D01*
X136463883Y-91476859D01*
X134885641Y-89898616D01*
X134847077Y-89831821D01*
X134842000Y-89793257D01*
X134842000Y-88346420D01*
X134846407Y-88321992D01*
X134846040Y-88321953D01*
X134851854Y-88267870D01*
X134879664Y-88195931D01*
X134939719Y-88147534D01*
X135015926Y-88135650D01*
X135087865Y-88163460D01*
X135136262Y-88223515D01*
X135148146Y-88267870D01*
X135151959Y-88303340D01*
X135202657Y-88439269D01*
X135246126Y-88497335D01*
X135289596Y-88555404D01*
X135367163Y-88613470D01*
X135405730Y-88642342D01*
X135405731Y-88642342D01*
X135405732Y-88642343D01*
X135541657Y-88693040D01*
X135601744Y-88699500D01*
X135605731Y-88699500D01*
X136219269Y-88699500D01*
X136223256Y-88699500D01*
X136283343Y-88693040D01*
X136419268Y-88642343D01*
X136535404Y-88555404D01*
X136622343Y-88439268D01*
X136673040Y-88303343D01*
X136679500Y-88243256D01*
X136679500Y-87758845D01*
X136699462Y-87684345D01*
X136723137Y-87653490D01*
X137814585Y-86562041D01*
X137839389Y-86542055D01*
X137841421Y-86540750D01*
X137873930Y-86503231D01*
X137881150Y-86495476D01*
X137890280Y-86486348D01*
X137898019Y-86476007D01*
X137904658Y-86467768D01*
X137937176Y-86430243D01*
X137938180Y-86428042D01*
X137954440Y-86400640D01*
X137954836Y-86400109D01*
X137955889Y-86398704D01*
X137973233Y-86352197D01*
X137977306Y-86342367D01*
X137982549Y-86330889D01*
X137997919Y-86297234D01*
X137998262Y-86294844D01*
X138006142Y-86263966D01*
X138006988Y-86261701D01*
X138010528Y-86212202D01*
X138011662Y-86201645D01*
X138013500Y-86188868D01*
X138013500Y-86175973D01*
X138013880Y-86165341D01*
X138017420Y-86115851D01*
X138016905Y-86113483D01*
X138013500Y-86081811D01*
X138013500Y-85780596D01*
X138033462Y-85706096D01*
X138057138Y-85675240D01*
X138118294Y-85614085D01*
X138140824Y-85578227D01*
X138197364Y-85525767D01*
X138266987Y-85508500D01*
X140157654Y-85508500D01*
X140232154Y-85528462D01*
X140263013Y-85552141D01*
X143440452Y-88729580D01*
X143460439Y-88754383D01*
X143461749Y-88756421D01*
X143499248Y-88788914D01*
X143507034Y-88796162D01*
X143516152Y-88805280D01*
X143526479Y-88813011D01*
X143534749Y-88819676D01*
X143560006Y-88841560D01*
X143572257Y-88852176D01*
X143574469Y-88853186D01*
X143601857Y-88869436D01*
X143603796Y-88870888D01*
X143650282Y-88888226D01*
X143660110Y-88892296D01*
X143705266Y-88912919D01*
X143707660Y-88913263D01*
X143738535Y-88921144D01*
X143740798Y-88921988D01*
X143767895Y-88923926D01*
X143790294Y-88925528D01*
X143800860Y-88926663D01*
X143813632Y-88928500D01*
X143826525Y-88928500D01*
X143837156Y-88928880D01*
X143886647Y-88932420D01*
X143886647Y-88932419D01*
X143886648Y-88932420D01*
X143888149Y-88932093D01*
X143889016Y-88931905D01*
X143920688Y-88928500D01*
X156952093Y-88928500D01*
X157026593Y-88948462D01*
X157072142Y-88994011D01*
X157073592Y-88992917D01*
X157205268Y-89167285D01*
X157356538Y-89305186D01*
X157530574Y-89412945D01*
X157626008Y-89449915D01*
X157721444Y-89486888D01*
X157885039Y-89517469D01*
X157922652Y-89524500D01*
X157922653Y-89524500D01*
X158127348Y-89524500D01*
X158159036Y-89518576D01*
X158328556Y-89486888D01*
X158484342Y-89426535D01*
X158519425Y-89412945D01*
X158519427Y-89412944D01*
X158693462Y-89305186D01*
X158844732Y-89167285D01*
X158968088Y-89003935D01*
X159059328Y-88820701D01*
X159063717Y-88805278D01*
X159115345Y-88623820D01*
X159134232Y-88420000D01*
X159115345Y-88216179D01*
X159059329Y-88019300D01*
X158993306Y-87886710D01*
X158968088Y-87836065D01*
X158844732Y-87672715D01*
X158693462Y-87534814D01*
X158693461Y-87534813D01*
X158519425Y-87427054D01*
X158328556Y-87353112D01*
X158127348Y-87315500D01*
X158127347Y-87315500D01*
X157922653Y-87315500D01*
X157922652Y-87315500D01*
X157721443Y-87353112D01*
X157530574Y-87427054D01*
X157356538Y-87534813D01*
X157205268Y-87672714D01*
X157073592Y-87847083D01*
X157071087Y-87845191D01*
X157034391Y-87886710D01*
X156961260Y-87911218D01*
X156952093Y-87911500D01*
X144122346Y-87911500D01*
X144047846Y-87891538D01*
X144016987Y-87867859D01*
X140839546Y-84690418D01*
X140819556Y-84665611D01*
X140818249Y-84663578D01*
X140780749Y-84631084D01*
X140772964Y-84623836D01*
X140763849Y-84614721D01*
X140763848Y-84614720D01*
X140753519Y-84606988D01*
X140745256Y-84600329D01*
X140707743Y-84567824D01*
X140705532Y-84566814D01*
X140678142Y-84550561D01*
X140676204Y-84549111D01*
X140676203Y-84549110D01*
X140676201Y-84549109D01*
X140629695Y-84531763D01*
X140619871Y-84527694D01*
X140574732Y-84507080D01*
X140572330Y-84506735D01*
X140541477Y-84498860D01*
X140539199Y-84498010D01*
X140489692Y-84494469D01*
X140479125Y-84493333D01*
X140466372Y-84491500D01*
X140466368Y-84491500D01*
X140453478Y-84491500D01*
X140442850Y-84491120D01*
X140437833Y-84490761D01*
X140393352Y-84487579D01*
X140390984Y-84488095D01*
X140359311Y-84491500D01*
X138266987Y-84491500D01*
X138192487Y-84471538D01*
X138140825Y-84421773D01*
X138118293Y-84385914D01*
X137994085Y-84261706D01*
X137845352Y-84168250D01*
X137747812Y-84134120D01*
X137679553Y-84110235D01*
X137647450Y-84106618D01*
X137505000Y-84090567D01*
X137348123Y-84108243D01*
X137330447Y-84110235D01*
X137296317Y-84122177D01*
X137164647Y-84168250D01*
X137015914Y-84261706D01*
X136891706Y-84385914D01*
X136798250Y-84534647D01*
X136755017Y-84658203D01*
X136743745Y-84690418D01*
X136740235Y-84700448D01*
X136728271Y-84806636D01*
X136725500Y-84831226D01*
X136725500Y-85168774D01*
X136740235Y-85299553D01*
X136761242Y-85359586D01*
X136798250Y-85465352D01*
X136891706Y-85614085D01*
X136952859Y-85675238D01*
X136991423Y-85742033D01*
X136996500Y-85780597D01*
X136996500Y-85880154D01*
X136976538Y-85954654D01*
X136952859Y-85985513D01*
X136191513Y-86746859D01*
X136124718Y-86785423D01*
X136086154Y-86790500D01*
X135601744Y-86790500D01*
X135597789Y-86790925D01*
X135597774Y-86790926D01*
X135541659Y-86796959D01*
X135405730Y-86847657D01*
X135289596Y-86934596D01*
X135202657Y-87050730D01*
X135151959Y-87186659D01*
X135148146Y-87222130D01*
X135120335Y-87294069D01*
X135060280Y-87342465D01*
X134984073Y-87354349D01*
X134912134Y-87326538D01*
X134863738Y-87266483D01*
X134851854Y-87222130D01*
X134848040Y-87186659D01*
X134848040Y-87186657D01*
X134797343Y-87050732D01*
X134710404Y-86934596D01*
X134628049Y-86872945D01*
X134594269Y-86847657D01*
X134458340Y-86796959D01*
X134402225Y-86790926D01*
X134402211Y-86790925D01*
X134398256Y-86790500D01*
X134394269Y-86790500D01*
X134261742Y-86790500D01*
X134187242Y-86770538D01*
X134156383Y-86746859D01*
X133240921Y-85831397D01*
X133202357Y-85764602D01*
X133200143Y-85696970D01*
X133204500Y-85675067D01*
X133204499Y-84750000D01*
X133947351Y-84750000D01*
X134685440Y-84750000D01*
X134646722Y-84792059D01*
X134596449Y-84906670D01*
X134586114Y-85031395D01*
X134616837Y-85152719D01*
X134680394Y-85250000D01*
X133947352Y-85250000D01*
X133954830Y-85325938D01*
X134013440Y-85519146D01*
X134108621Y-85697215D01*
X134236707Y-85853292D01*
X134392784Y-85981378D01*
X134570851Y-86076559D01*
X134714999Y-86120286D01*
X134715000Y-86120285D01*
X134715000Y-85280617D01*
X134784052Y-85334363D01*
X134902424Y-85375000D01*
X134996073Y-85375000D01*
X135088446Y-85359586D01*
X135198514Y-85300019D01*
X135215000Y-85282110D01*
X135215000Y-86120286D01*
X135359148Y-86076559D01*
X135537215Y-85981378D01*
X135693292Y-85853292D01*
X135821378Y-85697215D01*
X135916559Y-85519146D01*
X135975169Y-85325938D01*
X135982648Y-85250000D01*
X135244560Y-85250000D01*
X135283278Y-85207941D01*
X135333551Y-85093330D01*
X135343886Y-84968605D01*
X135313163Y-84847281D01*
X135249606Y-84750000D01*
X135982648Y-84750000D01*
X135975169Y-84674061D01*
X135916559Y-84480853D01*
X135821378Y-84302784D01*
X135693292Y-84146707D01*
X135537215Y-84018621D01*
X135359147Y-83923440D01*
X135215000Y-83879712D01*
X135215000Y-84719382D01*
X135145948Y-84665637D01*
X135027576Y-84625000D01*
X134933927Y-84625000D01*
X134841554Y-84640414D01*
X134731486Y-84699981D01*
X134715000Y-84717889D01*
X134715000Y-83879712D01*
X134570852Y-83923440D01*
X134392784Y-84018621D01*
X134236707Y-84146707D01*
X134108621Y-84302784D01*
X134013440Y-84480853D01*
X133954830Y-84674061D01*
X133947351Y-84750000D01*
X133204499Y-84750000D01*
X133204499Y-84324934D01*
X133204499Y-84324933D01*
X133204499Y-84324931D01*
X133183953Y-84221631D01*
X133186982Y-84221028D01*
X133179818Y-84199919D01*
X133179500Y-84190185D01*
X133179500Y-77238500D01*
X133199462Y-77164000D01*
X133254000Y-77109462D01*
X133328500Y-77089500D01*
X138749179Y-77089500D01*
X138770773Y-77091072D01*
X138792906Y-77094315D01*
X138841462Y-77090066D01*
X138854448Y-77089500D01*
X138854597Y-77089500D01*
X138858941Y-77089500D01*
X138889568Y-77085920D01*
X138893788Y-77085488D01*
X138945593Y-77080956D01*
X138971815Y-77078663D01*
X138987155Y-77075262D01*
X138990182Y-77074160D01*
X138990184Y-77074160D01*
X139060726Y-77048484D01*
X139064797Y-77047070D01*
X139136036Y-77023464D01*
X139136037Y-77023463D01*
X139139092Y-77022451D01*
X139153238Y-77015602D01*
X139155921Y-77013836D01*
X139155924Y-77013836D01*
X139218661Y-76972572D01*
X139222261Y-76970278D01*
X139286154Y-76930870D01*
X139286155Y-76930868D01*
X139288890Y-76929182D01*
X139301077Y-76919254D01*
X139303281Y-76916917D01*
X139303285Y-76916915D01*
X139354821Y-76862288D01*
X139357773Y-76859249D01*
X145363882Y-70853141D01*
X145430678Y-70814577D01*
X145469242Y-70809500D01*
X146476080Y-70809500D01*
X146550580Y-70829462D01*
X146605118Y-70884000D01*
X146625080Y-70958500D01*
X146605118Y-71033000D01*
X146599977Y-71041266D01*
X146580500Y-71070417D01*
X146560265Y-71100700D01*
X146545500Y-71174932D01*
X146545500Y-72125063D01*
X146560266Y-72199302D01*
X146616514Y-72283482D01*
X146616515Y-72283482D01*
X146616516Y-72283484D01*
X146700699Y-72339734D01*
X146774933Y-72354500D01*
X146892501Y-72354499D01*
X146966999Y-72374461D01*
X147021537Y-72428998D01*
X147041500Y-72503498D01*
X147041500Y-82839310D01*
X147038095Y-82870982D01*
X147037579Y-82873351D01*
X147041120Y-82922846D01*
X147041500Y-82933477D01*
X147041500Y-82946371D01*
X147043333Y-82959125D01*
X147044469Y-82969692D01*
X147048010Y-83019199D01*
X147048860Y-83021477D01*
X147056735Y-83052330D01*
X147057080Y-83054732D01*
X147077694Y-83099871D01*
X147081763Y-83109695D01*
X147099109Y-83156201D01*
X147099110Y-83156203D01*
X147099111Y-83156204D01*
X147100561Y-83158142D01*
X147116814Y-83185532D01*
X147117824Y-83187743D01*
X147150329Y-83225256D01*
X147156988Y-83233519D01*
X147164720Y-83243848D01*
X147164721Y-83243849D01*
X147173836Y-83252964D01*
X147181084Y-83260749D01*
X147213579Y-83298250D01*
X147214998Y-83299162D01*
X147215611Y-83299556D01*
X147240418Y-83319546D01*
X150110452Y-86189580D01*
X150130439Y-86214383D01*
X150131747Y-86216418D01*
X150131749Y-86216420D01*
X150131750Y-86216421D01*
X150169264Y-86248927D01*
X150177021Y-86256149D01*
X150186152Y-86265280D01*
X150196480Y-86273011D01*
X150204745Y-86279671D01*
X150219460Y-86292422D01*
X150242254Y-86312174D01*
X150242255Y-86312174D01*
X150242257Y-86312176D01*
X150244457Y-86313180D01*
X150271856Y-86329437D01*
X150273796Y-86330889D01*
X150320291Y-86348230D01*
X150330115Y-86352299D01*
X150365802Y-86368596D01*
X150375266Y-86372919D01*
X150377660Y-86373263D01*
X150408535Y-86381144D01*
X150410798Y-86381988D01*
X150437895Y-86383926D01*
X150460294Y-86385528D01*
X150470860Y-86386663D01*
X150483632Y-86388500D01*
X150496525Y-86388500D01*
X150507156Y-86388880D01*
X150556647Y-86392420D01*
X150556647Y-86392419D01*
X150556648Y-86392420D01*
X150558149Y-86392093D01*
X150559016Y-86391905D01*
X150590688Y-86388500D01*
X156952093Y-86388500D01*
X157026593Y-86408462D01*
X157072142Y-86454011D01*
X157073592Y-86452917D01*
X157081911Y-86463933D01*
X157081912Y-86463935D01*
X157162601Y-86570785D01*
X157205268Y-86627285D01*
X157356538Y-86765186D01*
X157530574Y-86872945D01*
X157626008Y-86909915D01*
X157721444Y-86946888D01*
X157885040Y-86977469D01*
X157922652Y-86984500D01*
X157922653Y-86984500D01*
X158127348Y-86984500D01*
X158159036Y-86978576D01*
X158328556Y-86946888D01*
X158484342Y-86886535D01*
X158519425Y-86872945D01*
X158519427Y-86872944D01*
X158693462Y-86765186D01*
X158844732Y-86627285D01*
X158968088Y-86463935D01*
X159059328Y-86280701D01*
X159059620Y-86279677D01*
X159101993Y-86130749D01*
X159115345Y-86083821D01*
X159134232Y-85880000D01*
X159115345Y-85676179D01*
X159097678Y-85614084D01*
X159059329Y-85479300D01*
X158987158Y-85334363D01*
X158968088Y-85296065D01*
X158844732Y-85132715D01*
X158693462Y-84994814D01*
X158693461Y-84994813D01*
X158519428Y-84887056D01*
X158507936Y-84882604D01*
X158445679Y-84837076D01*
X158414526Y-84766520D01*
X158422825Y-84689839D01*
X158468353Y-84627582D01*
X158498794Y-84608626D01*
X158702580Y-84513600D01*
X158896075Y-84378112D01*
X159063112Y-84211075D01*
X159198598Y-84017582D01*
X159298431Y-83803491D01*
X159355636Y-83590000D01*
X158458686Y-83590000D01*
X158484493Y-83549844D01*
X158525000Y-83411889D01*
X158525000Y-83268111D01*
X158484493Y-83130156D01*
X158458686Y-83090000D01*
X159355636Y-83090000D01*
X159355636Y-83089999D01*
X159298431Y-82876509D01*
X159198600Y-82662423D01*
X159063109Y-82468921D01*
X158896075Y-82301887D01*
X158715651Y-82175552D01*
X158666074Y-82116469D01*
X158652681Y-82040512D01*
X158679061Y-81968036D01*
X158738144Y-81918459D01*
X158801113Y-81904499D01*
X158900066Y-81904499D01*
X158974301Y-81889734D01*
X159058484Y-81833484D01*
X159114734Y-81749301D01*
X159129500Y-81675067D01*
X159129499Y-79924934D01*
X159114734Y-79850699D01*
X159058484Y-79766516D01*
X158974301Y-79710266D01*
X158974300Y-79710265D01*
X158974299Y-79710265D01*
X158900067Y-79695500D01*
X157149936Y-79695500D01*
X157075697Y-79710266D01*
X156991517Y-79766514D01*
X156935265Y-79850700D01*
X156920374Y-79925568D01*
X156886262Y-79994742D01*
X156822132Y-80037592D01*
X156774237Y-80045500D01*
X155654242Y-80045500D01*
X155579742Y-80025538D01*
X155548883Y-80001859D01*
X153473141Y-77926116D01*
X153434577Y-77859321D01*
X153429500Y-77820757D01*
X153429500Y-72578500D01*
X153449462Y-72504000D01*
X153504000Y-72449462D01*
X153578500Y-72429500D01*
X155537280Y-72429500D01*
X155537288Y-72429499D01*
X155994261Y-72429499D01*
X155998254Y-72429499D01*
X156002906Y-72428999D01*
X156009997Y-72428236D01*
X156058342Y-72423040D01*
X156194267Y-72372342D01*
X156310404Y-72285404D01*
X156397342Y-72169267D01*
X156448040Y-72033342D01*
X156454500Y-71973255D01*
X156454499Y-71376746D01*
X156453196Y-71364628D01*
X156448040Y-71316659D01*
X156397342Y-71180734D01*
X156397342Y-71180733D01*
X156310404Y-71064596D01*
X156197195Y-70979850D01*
X156149518Y-70919224D01*
X156138542Y-70842881D01*
X156167207Y-70771278D01*
X156227834Y-70723600D01*
X156239623Y-70719132D01*
X156269122Y-70709357D01*
X156418344Y-70617316D01*
X156542316Y-70493344D01*
X156634358Y-70344120D01*
X156689506Y-70177694D01*
X156699613Y-70078765D01*
X156700000Y-70071178D01*
X156700000Y-70025000D01*
X154250001Y-70025000D01*
X154250001Y-70071191D01*
X154250385Y-70078738D01*
X154260494Y-70177699D01*
X154315641Y-70344120D01*
X154407683Y-70493344D01*
X154531655Y-70617316D01*
X154576024Y-70644683D01*
X154628953Y-70700784D01*
X154646740Y-70775833D01*
X154624620Y-70849721D01*
X154568519Y-70902650D01*
X154497803Y-70920500D01*
X152849242Y-70920500D01*
X152774742Y-70900538D01*
X152743883Y-70876859D01*
X151435051Y-69568027D01*
X151420893Y-69551643D01*
X151407540Y-69533707D01*
X151397164Y-69525000D01*
X154250000Y-69525000D01*
X155225000Y-69525000D01*
X155225000Y-68775000D01*
X155725000Y-68775000D01*
X155725000Y-69525000D01*
X156699999Y-69525000D01*
X156699999Y-69478808D01*
X156699614Y-69471261D01*
X156689505Y-69372300D01*
X156634358Y-69205879D01*
X156542316Y-69056655D01*
X156418344Y-68932683D01*
X156269120Y-68840641D01*
X156102694Y-68785493D01*
X156003765Y-68775386D01*
X155996179Y-68775000D01*
X155725000Y-68775000D01*
X155225000Y-68775000D01*
X154953808Y-68775000D01*
X154946261Y-68775385D01*
X154847300Y-68785494D01*
X154680879Y-68840641D01*
X154531655Y-68932683D01*
X154407683Y-69056655D01*
X154315641Y-69205879D01*
X154260493Y-69372305D01*
X154250386Y-69471234D01*
X154250000Y-69478821D01*
X154250000Y-69525000D01*
X151397164Y-69525000D01*
X151370204Y-69502378D01*
X151360620Y-69493596D01*
X151360512Y-69493488D01*
X151357441Y-69490417D01*
X151333257Y-69471295D01*
X151329938Y-69468591D01*
X151272427Y-69420333D01*
X151272424Y-69420331D01*
X151269971Y-69418273D01*
X151256699Y-69409817D01*
X151185760Y-69376737D01*
X151181878Y-69374858D01*
X151114811Y-69341176D01*
X151111944Y-69339736D01*
X151097070Y-69334567D01*
X151020416Y-69318738D01*
X151016188Y-69317801D01*
X150940063Y-69299759D01*
X150924411Y-69298160D01*
X150846183Y-69300437D01*
X150841849Y-69300500D01*
X148847573Y-69300500D01*
X148773073Y-69280538D01*
X148718535Y-69226000D01*
X148698573Y-69151500D01*
X148718535Y-69077000D01*
X148728293Y-69062207D01*
X148743352Y-69042090D01*
X148793598Y-68907373D01*
X148799573Y-68851797D01*
X148800000Y-68843841D01*
X148800000Y-68600000D01*
X146300000Y-68600000D01*
X146300000Y-68843841D01*
X146300426Y-68851797D01*
X146306401Y-68907373D01*
X146356647Y-69042090D01*
X146371707Y-69062207D01*
X146400373Y-69133810D01*
X146389397Y-69210153D01*
X146341720Y-69270780D01*
X146270117Y-69299446D01*
X146252427Y-69300500D01*
X145160814Y-69300500D01*
X145139220Y-69298927D01*
X145117092Y-69295685D01*
X145070793Y-69299736D01*
X145068544Y-69299933D01*
X145055560Y-69300500D01*
X145051059Y-69300500D01*
X145046758Y-69301002D01*
X145046751Y-69301003D01*
X145020454Y-69304076D01*
X145016148Y-69304516D01*
X144938199Y-69311336D01*
X144922824Y-69314744D01*
X144849284Y-69341509D01*
X144845197Y-69342930D01*
X144770926Y-69367542D01*
X144756747Y-69374406D01*
X144691350Y-69417418D01*
X144687698Y-69419744D01*
X144621125Y-69460807D01*
X144608910Y-69470757D01*
X144555212Y-69527673D01*
X144552194Y-69530780D01*
X138546117Y-75536859D01*
X138479322Y-75575423D01*
X138440758Y-75580500D01*
X132799243Y-75580500D01*
X132724743Y-75560538D01*
X132693884Y-75536859D01*
X128305051Y-71148027D01*
X128290893Y-71131643D01*
X128277540Y-71113707D01*
X128262035Y-71100697D01*
X128240203Y-71082377D01*
X128230620Y-71073596D01*
X128230512Y-71073488D01*
X128227441Y-71070417D01*
X128203257Y-71051295D01*
X128199938Y-71048591D01*
X128142427Y-71000333D01*
X128142424Y-71000331D01*
X128139971Y-70998273D01*
X128126699Y-70989817D01*
X128055760Y-70956737D01*
X128051878Y-70954858D01*
X127984811Y-70921176D01*
X127981944Y-70919736D01*
X127967070Y-70914567D01*
X127890416Y-70898738D01*
X127886188Y-70897801D01*
X127810063Y-70879759D01*
X127794411Y-70878160D01*
X127716183Y-70880437D01*
X127711849Y-70880500D01*
X126542197Y-70880500D01*
X126467697Y-70860538D01*
X126413159Y-70806000D01*
X126393197Y-70731500D01*
X126413159Y-70657000D01*
X126463976Y-70604683D01*
X126508344Y-70577316D01*
X126632316Y-70453344D01*
X126724358Y-70304120D01*
X126779506Y-70137694D01*
X126789613Y-70038765D01*
X126790000Y-70031178D01*
X126790000Y-69985000D01*
X124340001Y-69985000D01*
X124340001Y-70031191D01*
X124340385Y-70038738D01*
X124350494Y-70137699D01*
X124405641Y-70304120D01*
X124497683Y-70453344D01*
X124621658Y-70577319D01*
X124690342Y-70619684D01*
X124743271Y-70675784D01*
X124761058Y-70750833D01*
X124738937Y-70824721D01*
X124682837Y-70877650D01*
X124612121Y-70895500D01*
X122406059Y-70895500D01*
X122401765Y-70896001D01*
X122401745Y-70896003D01*
X122274818Y-70910839D01*
X122204271Y-70936515D01*
X122153312Y-70945500D01*
X121674936Y-70945500D01*
X121600697Y-70960266D01*
X121516517Y-71016514D01*
X121460265Y-71100700D01*
X121445500Y-71174932D01*
X121445500Y-72125063D01*
X121460266Y-72199302D01*
X121516514Y-72283482D01*
X121516515Y-72283482D01*
X121516516Y-72283484D01*
X121600699Y-72339734D01*
X121674933Y-72354500D01*
X122136307Y-72354499D01*
X122172469Y-72363068D01*
X122173242Y-72359807D01*
X122190187Y-72363823D01*
X122190189Y-72363824D01*
X122361812Y-72404500D01*
X125484179Y-72404500D01*
X125505773Y-72406072D01*
X125527906Y-72409315D01*
X125576462Y-72405066D01*
X125589448Y-72404500D01*
X125589597Y-72404500D01*
X125593941Y-72404500D01*
X125624568Y-72400920D01*
X125628788Y-72400488D01*
X125667953Y-72397062D01*
X125720970Y-72392425D01*
X125720997Y-72392739D01*
X125741068Y-72389500D01*
X127350758Y-72389500D01*
X127425258Y-72409462D01*
X127456117Y-72433141D01*
X131626859Y-76603883D01*
X131665423Y-76670678D01*
X131670500Y-76709242D01*
X131670500Y-84096500D01*
X131650538Y-84171000D01*
X131596000Y-84225538D01*
X131521500Y-84245500D01*
X131285814Y-84245500D01*
X131264220Y-84243927D01*
X131242092Y-84240685D01*
X131195793Y-84244736D01*
X131193544Y-84244933D01*
X131180560Y-84245500D01*
X131176059Y-84245500D01*
X131171758Y-84246002D01*
X131171751Y-84246003D01*
X131145454Y-84249076D01*
X131141148Y-84249516D01*
X131063199Y-84256336D01*
X131047824Y-84259744D01*
X130974284Y-84286509D01*
X130970197Y-84287930D01*
X130895926Y-84312542D01*
X130881747Y-84319406D01*
X130816350Y-84362418D01*
X130812698Y-84364744D01*
X130746125Y-84405807D01*
X130733910Y-84415757D01*
X130680212Y-84472673D01*
X130677194Y-84475780D01*
X119938026Y-95214948D01*
X119921649Y-95229102D01*
X119903707Y-95242460D01*
X119872375Y-95279799D01*
X119863611Y-95289363D01*
X119863495Y-95289478D01*
X119863473Y-95289501D01*
X119860417Y-95292559D01*
X119857737Y-95295947D01*
X119857731Y-95295955D01*
X119841323Y-95316707D01*
X119838589Y-95320063D01*
X119788277Y-95380023D01*
X119779812Y-95393310D01*
X119746744Y-95464224D01*
X119744857Y-95468121D01*
X119709740Y-95538046D01*
X119704566Y-95552932D01*
X119688745Y-95629550D01*
X119687808Y-95633778D01*
X119669761Y-95709928D01*
X119668161Y-95725592D01*
X119668254Y-95728793D01*
X119668254Y-95728794D01*
X119669484Y-95771059D01*
X119670437Y-95803816D01*
X119670500Y-95808149D01*
X119670500Y-100659178D01*
X119668927Y-100680772D01*
X119665684Y-100702905D01*
X117322033Y-100702905D01*
X116227141Y-99608013D01*
X116188577Y-99541218D01*
X116183500Y-99502654D01*
X116183500Y-99258462D01*
X116203462Y-99183962D01*
X116258000Y-99129424D01*
X116332500Y-99109462D01*
X116407000Y-99129424D01*
X116424925Y-99145335D01*
X116425663Y-99144351D01*
X116557911Y-99243352D01*
X116692626Y-99293598D01*
X116748202Y-99299573D01*
X116756159Y-99300000D01*
X117300000Y-99300000D01*
X117300000Y-98600000D01*
X117800000Y-98600000D01*
X117800000Y-99300000D01*
X118343841Y-99300000D01*
X118351797Y-99299573D01*
X118407373Y-99293598D01*
X118542088Y-99243352D01*
X118657188Y-99157188D01*
X118743352Y-99042088D01*
X118793598Y-98907373D01*
X118799573Y-98851797D01*
X118800000Y-98843841D01*
X118800000Y-98600000D01*
X117800000Y-98600000D01*
X117300000Y-98600000D01*
X117300000Y-97400000D01*
X117800000Y-97400000D01*
X117800000Y-98100000D01*
X118800000Y-98100000D01*
X118800000Y-97856158D01*
X118799573Y-97848202D01*
X118793598Y-97792626D01*
X118743352Y-97657911D01*
X118657188Y-97542811D01*
X118542088Y-97456647D01*
X118407373Y-97406401D01*
X118351797Y-97400426D01*
X118343841Y-97400000D01*
X117800000Y-97400000D01*
X117300000Y-97400000D01*
X116756159Y-97400000D01*
X116748202Y-97400426D01*
X116692626Y-97406401D01*
X116557911Y-97456647D01*
X116425663Y-97555649D01*
X116423646Y-97552955D01*
X116391149Y-97578509D01*
X116314806Y-97589483D01*
X116243203Y-97560815D01*
X116195528Y-97500186D01*
X116183500Y-97441537D01*
X116183500Y-95197344D01*
X116203462Y-95122844D01*
X116227137Y-95091989D01*
X120374583Y-90944542D01*
X120399378Y-90924562D01*
X120401421Y-90923250D01*
X120433935Y-90885725D01*
X120441156Y-90877969D01*
X120450280Y-90868847D01*
X120458014Y-90858514D01*
X120464669Y-90850256D01*
X120497176Y-90812743D01*
X120498182Y-90810539D01*
X120514437Y-90783142D01*
X120515889Y-90781204D01*
X120533241Y-90734679D01*
X120537303Y-90724875D01*
X120557917Y-90679738D01*
X120557916Y-90679738D01*
X120557919Y-90679734D01*
X120558264Y-90677332D01*
X120566141Y-90646472D01*
X120566989Y-90644200D01*
X120570532Y-90594655D01*
X120571662Y-90584147D01*
X120573500Y-90571368D01*
X120573499Y-90558480D01*
X120573879Y-90547843D01*
X120577420Y-90498351D01*
X120576903Y-90495977D01*
X120573500Y-90464321D01*
X120573500Y-71007344D01*
X120593462Y-70932845D01*
X120617137Y-70901990D01*
X122034126Y-69485000D01*
X124340000Y-69485000D01*
X125314999Y-69485000D01*
X125315000Y-68735000D01*
X125815000Y-68735000D01*
X125815000Y-69485000D01*
X126789998Y-69485000D01*
X126789999Y-69438808D01*
X126789614Y-69431261D01*
X126779505Y-69332300D01*
X126724358Y-69165879D01*
X126632316Y-69016655D01*
X126508344Y-68892683D01*
X126359120Y-68800641D01*
X126192694Y-68745493D01*
X126093765Y-68735386D01*
X126086179Y-68735000D01*
X125815000Y-68735000D01*
X125315000Y-68735000D01*
X125043808Y-68735000D01*
X125036261Y-68735385D01*
X124937300Y-68745494D01*
X124770879Y-68800641D01*
X124621655Y-68892683D01*
X124497683Y-69016655D01*
X124405641Y-69165879D01*
X124350493Y-69332305D01*
X124340386Y-69431234D01*
X124340000Y-69438821D01*
X124340000Y-69485000D01*
X122034126Y-69485000D01*
X122420987Y-69098139D01*
X122487782Y-69059576D01*
X122526346Y-69054499D01*
X123225064Y-69054499D01*
X123225066Y-69054499D01*
X123299301Y-69039734D01*
X123383484Y-68983484D01*
X123439734Y-68899301D01*
X123454500Y-68825067D01*
X123454499Y-67874934D01*
X123439734Y-67800699D01*
X123434022Y-67792151D01*
X123383485Y-67716517D01*
X123352479Y-67695799D01*
X123299301Y-67660266D01*
X123299300Y-67660265D01*
X123299299Y-67660265D01*
X123225067Y-67645500D01*
X121674936Y-67645500D01*
X121600697Y-67660266D01*
X121516517Y-67716514D01*
X121460265Y-67800700D01*
X121445500Y-67874932D01*
X121445500Y-68573652D01*
X121425538Y-68648152D01*
X121401859Y-68679011D01*
X119755413Y-70325457D01*
X119730617Y-70345440D01*
X119728581Y-70346748D01*
X119728579Y-70346749D01*
X119728579Y-70346750D01*
X119696074Y-70384260D01*
X119688843Y-70392028D01*
X119679720Y-70401151D01*
X119671998Y-70411467D01*
X119665328Y-70419744D01*
X119632823Y-70457257D01*
X119631815Y-70459465D01*
X119615569Y-70486847D01*
X119614111Y-70488794D01*
X119596763Y-70535303D01*
X119592696Y-70545122D01*
X119572080Y-70590266D01*
X119571735Y-70592670D01*
X119563863Y-70623513D01*
X119563010Y-70625798D01*
X119559469Y-70675308D01*
X119558334Y-70685873D01*
X119556500Y-70698633D01*
X119556500Y-70711521D01*
X119556120Y-70722151D01*
X119552579Y-70771647D01*
X119553095Y-70774017D01*
X119556500Y-70805690D01*
X119556500Y-90262653D01*
X119536538Y-90337153D01*
X119512859Y-90368012D01*
X115365414Y-94515456D01*
X115340621Y-94535437D01*
X115338582Y-94536747D01*
X115338579Y-94536749D01*
X115338579Y-94536750D01*
X115306074Y-94574260D01*
X115298843Y-94582028D01*
X115289720Y-94591151D01*
X115281998Y-94601467D01*
X115275328Y-94609744D01*
X115242823Y-94647257D01*
X115241815Y-94649465D01*
X115225569Y-94676847D01*
X115224111Y-94678794D01*
X115206763Y-94725303D01*
X115202696Y-94735122D01*
X115182080Y-94780266D01*
X115181735Y-94782670D01*
X115173863Y-94813513D01*
X115173010Y-94815798D01*
X115169469Y-94865308D01*
X115168334Y-94875873D01*
X115166500Y-94888633D01*
X115166500Y-94901521D01*
X115166120Y-94912151D01*
X115162579Y-94961647D01*
X115163095Y-94964017D01*
X115166500Y-94995690D01*
X115166500Y-99704310D01*
X115163095Y-99735982D01*
X115162579Y-99738351D01*
X110100500Y-99738351D01*
X110100500Y-69548349D01*
X114972579Y-69548349D01*
X114976120Y-69597846D01*
X114976500Y-69608476D01*
X114976500Y-69621371D01*
X114978333Y-69634125D01*
X114979469Y-69644692D01*
X114983010Y-69694199D01*
X114983860Y-69696477D01*
X114991735Y-69727330D01*
X114992080Y-69729732D01*
X115012694Y-69774871D01*
X115016763Y-69784695D01*
X115034109Y-69831201D01*
X115034110Y-69831203D01*
X115034111Y-69831204D01*
X115035561Y-69833142D01*
X115051814Y-69860532D01*
X115052824Y-69862743D01*
X115085329Y-69900256D01*
X115091988Y-69908519D01*
X115099720Y-69918848D01*
X115099721Y-69918849D01*
X115108836Y-69927964D01*
X115116084Y-69935749D01*
X115148579Y-69973250D01*
X115149998Y-69974162D01*
X115150611Y-69974556D01*
X115175418Y-69994546D01*
X116501859Y-71320987D01*
X116540423Y-71387782D01*
X116545500Y-71426346D01*
X116545500Y-72125063D01*
X116560266Y-72199302D01*
X116616514Y-72283482D01*
X116616515Y-72283482D01*
X116616516Y-72283484D01*
X116700699Y-72339734D01*
X116774933Y-72354500D01*
X118325066Y-72354499D01*
X118399301Y-72339734D01*
X118483484Y-72283484D01*
X118539734Y-72199301D01*
X118554500Y-72125067D01*
X118554499Y-71174934D01*
X118539734Y-71100699D01*
X118515610Y-71064596D01*
X118483485Y-71016517D01*
X118483481Y-71016514D01*
X118399301Y-70960266D01*
X118399300Y-70960265D01*
X118399299Y-70960265D01*
X118325067Y-70945500D01*
X117626346Y-70945500D01*
X117551846Y-70925538D01*
X117520987Y-70901859D01*
X116037140Y-69418012D01*
X115998576Y-69351217D01*
X115993499Y-69312660D01*
X115993499Y-68600000D01*
X116300000Y-68600000D01*
X116300000Y-68843841D01*
X116300426Y-68851797D01*
X116306401Y-68907373D01*
X116356647Y-69042088D01*
X116442811Y-69157188D01*
X116557911Y-69243352D01*
X116692626Y-69293598D01*
X116748202Y-69299573D01*
X116756159Y-69300000D01*
X117300000Y-69300000D01*
X117300000Y-68600000D01*
X117800000Y-68600000D01*
X117800000Y-69300000D01*
X118343841Y-69300000D01*
X118351797Y-69299573D01*
X118407373Y-69293598D01*
X118542088Y-69243352D01*
X118657188Y-69157188D01*
X118743352Y-69042088D01*
X118793598Y-68907373D01*
X118799573Y-68851797D01*
X118800000Y-68843841D01*
X118800000Y-68600000D01*
X117800000Y-68600000D01*
X117300000Y-68600000D01*
X116300000Y-68600000D01*
X115993499Y-68600000D01*
X115993499Y-68077344D01*
X116013461Y-68002845D01*
X116037136Y-67971990D01*
X116045643Y-67963483D01*
X116112436Y-67924921D01*
X116189564Y-67924921D01*
X116256359Y-67963485D01*
X116294923Y-68030280D01*
X116300000Y-68068844D01*
X116300000Y-68100000D01*
X117300000Y-68100000D01*
X117300000Y-67400000D01*
X117800000Y-67400000D01*
X117800000Y-68100000D01*
X118800000Y-68100000D01*
X118800000Y-67856158D01*
X118799573Y-67848202D01*
X118793598Y-67792626D01*
X118743352Y-67657911D01*
X118657188Y-67542811D01*
X118542088Y-67456647D01*
X118407373Y-67406401D01*
X118351797Y-67400426D01*
X118343841Y-67400000D01*
X117800000Y-67400000D01*
X117300000Y-67400000D01*
X116968845Y-67400000D01*
X116894345Y-67380038D01*
X116839807Y-67325500D01*
X116819845Y-67251000D01*
X116839807Y-67176500D01*
X116863483Y-67145644D01*
X116991986Y-67017141D01*
X117058783Y-66978577D01*
X117097346Y-66973500D01*
X125802654Y-66973500D01*
X125877154Y-66993462D01*
X125908013Y-67017141D01*
X127565452Y-68674580D01*
X127585439Y-68699383D01*
X127586747Y-68701418D01*
X127586749Y-68701420D01*
X127586750Y-68701421D01*
X127624264Y-68733927D01*
X127632021Y-68741149D01*
X127641152Y-68750280D01*
X127651480Y-68758011D01*
X127659745Y-68764671D01*
X127671665Y-68775000D01*
X127697255Y-68797175D01*
X127697256Y-68797175D01*
X127697257Y-68797176D01*
X127699456Y-68798180D01*
X127726857Y-68814438D01*
X127728794Y-68815888D01*
X127728795Y-68815888D01*
X127728796Y-68815889D01*
X127775300Y-68833234D01*
X127775303Y-68833235D01*
X127785127Y-68837305D01*
X127830266Y-68857919D01*
X127832663Y-68858263D01*
X127863522Y-68866139D01*
X127865800Y-68866989D01*
X127915271Y-68870527D01*
X127915299Y-68870529D01*
X127925873Y-68871665D01*
X127938632Y-68873500D01*
X127951522Y-68873500D01*
X127962151Y-68873879D01*
X127976112Y-68874878D01*
X128011647Y-68877420D01*
X128011647Y-68877419D01*
X128011649Y-68877420D01*
X128014016Y-68876904D01*
X128045689Y-68873500D01*
X142424311Y-68873500D01*
X142455983Y-68876904D01*
X142458351Y-68877420D01*
X142458351Y-68877419D01*
X142458352Y-68877420D01*
X142476760Y-68876103D01*
X142507850Y-68873879D01*
X142518478Y-68873500D01*
X142531367Y-68873500D01*
X142531368Y-68873500D01*
X142544132Y-68871664D01*
X142554660Y-68870531D01*
X142604201Y-68866989D01*
X142606473Y-68866141D01*
X142637336Y-68858263D01*
X142639734Y-68857919D01*
X142684887Y-68837297D01*
X142694697Y-68833235D01*
X142741204Y-68815889D01*
X142743142Y-68814437D01*
X142770546Y-68798179D01*
X142772743Y-68797176D01*
X142810268Y-68764658D01*
X142818507Y-68758019D01*
X142828848Y-68750280D01*
X142837976Y-68741150D01*
X142845731Y-68733930D01*
X142883250Y-68701421D01*
X142884555Y-68699389D01*
X142904541Y-68674585D01*
X143479126Y-68100000D01*
X146300000Y-68100000D01*
X147300000Y-68100000D01*
X147300000Y-67400000D01*
X147800000Y-67400000D01*
X147800000Y-68100000D01*
X148800000Y-68100000D01*
X148800000Y-67856158D01*
X148799573Y-67848202D01*
X148793598Y-67792626D01*
X148743352Y-67657911D01*
X148657188Y-67542811D01*
X148542088Y-67456647D01*
X148407373Y-67406401D01*
X148351797Y-67400426D01*
X148343841Y-67400000D01*
X147800000Y-67400000D01*
X147300000Y-67400000D01*
X146756159Y-67400000D01*
X146748202Y-67400426D01*
X146692626Y-67406401D01*
X146557911Y-67456647D01*
X146442811Y-67542811D01*
X146356647Y-67657911D01*
X146306401Y-67792626D01*
X146300426Y-67848202D01*
X146300000Y-67856158D01*
X146300000Y-68100000D01*
X143479126Y-68100000D01*
X144601986Y-66977141D01*
X144668782Y-66938577D01*
X144707346Y-66933500D01*
X150252654Y-66933500D01*
X150327154Y-66953462D01*
X150358013Y-66977141D01*
X151401859Y-68020987D01*
X151440423Y-68087782D01*
X151445500Y-68126346D01*
X151445500Y-68825063D01*
X151460266Y-68899302D01*
X151516514Y-68983482D01*
X151516515Y-68983482D01*
X151516516Y-68983484D01*
X151600699Y-69039734D01*
X151674933Y-69054500D01*
X153225066Y-69054499D01*
X153299301Y-69039734D01*
X153383484Y-68983484D01*
X153439734Y-68899301D01*
X153454500Y-68825067D01*
X153454499Y-67874934D01*
X153439734Y-67800699D01*
X153434022Y-67792151D01*
X153383485Y-67716517D01*
X153352479Y-67695799D01*
X153299301Y-67660266D01*
X153299300Y-67660265D01*
X153299299Y-67660265D01*
X153225067Y-67645500D01*
X152526346Y-67645500D01*
X152451846Y-67625538D01*
X152420987Y-67601859D01*
X150934546Y-66115418D01*
X150914556Y-66090611D01*
X150914162Y-66089998D01*
X150913250Y-66088579D01*
X150875748Y-66056083D01*
X150867964Y-66048836D01*
X150858849Y-66039721D01*
X150858848Y-66039720D01*
X150848519Y-66031988D01*
X150840254Y-66025328D01*
X150802743Y-65992824D01*
X150800532Y-65991814D01*
X150773142Y-65975561D01*
X150771204Y-65974111D01*
X150771203Y-65974110D01*
X150771201Y-65974109D01*
X150724695Y-65956763D01*
X150714871Y-65952694D01*
X150714621Y-65952580D01*
X150669734Y-65932081D01*
X150669732Y-65932080D01*
X150667330Y-65931735D01*
X150636477Y-65923860D01*
X150636474Y-65923859D01*
X150634204Y-65923012D01*
X150634199Y-65923010D01*
X150584692Y-65919469D01*
X150574125Y-65918333D01*
X150561372Y-65916500D01*
X150561368Y-65916500D01*
X150548478Y-65916500D01*
X150537850Y-65916120D01*
X150532833Y-65915761D01*
X150488352Y-65912579D01*
X150485984Y-65913095D01*
X150454311Y-65916500D01*
X144505688Y-65916500D01*
X144474016Y-65913095D01*
X144471647Y-65912579D01*
X144422156Y-65916120D01*
X144411525Y-65916500D01*
X144398630Y-65916500D01*
X144385870Y-65918334D01*
X144375304Y-65919470D01*
X144325798Y-65923011D01*
X144323526Y-65923859D01*
X144292672Y-65931734D01*
X144290267Y-65932079D01*
X144245106Y-65952703D01*
X144235284Y-65956771D01*
X144188794Y-65974111D01*
X144186848Y-65975568D01*
X144159465Y-65991815D01*
X144157257Y-65992823D01*
X144119744Y-66025328D01*
X144111467Y-66031998D01*
X144101151Y-66039720D01*
X144092028Y-66048843D01*
X144084260Y-66056074D01*
X144046751Y-66088578D01*
X144046748Y-66088581D01*
X144045440Y-66090617D01*
X144025457Y-66115413D01*
X142328013Y-67812859D01*
X142261218Y-67851423D01*
X142222654Y-67856500D01*
X128247346Y-67856500D01*
X128172846Y-67836538D01*
X128141987Y-67812859D01*
X126484546Y-66155418D01*
X126464556Y-66130611D01*
X126463249Y-66128578D01*
X126425749Y-66096084D01*
X126417964Y-66088836D01*
X126408849Y-66079721D01*
X126408848Y-66079720D01*
X126398519Y-66071988D01*
X126390254Y-66065328D01*
X126352743Y-66032824D01*
X126350532Y-66031814D01*
X126323142Y-66015561D01*
X126321204Y-66014111D01*
X126321203Y-66014110D01*
X126321201Y-66014109D01*
X126274695Y-65996763D01*
X126264871Y-65992694D01*
X126262948Y-65991816D01*
X126219734Y-65972081D01*
X126219732Y-65972080D01*
X126217330Y-65971735D01*
X126186477Y-65963860D01*
X126186474Y-65963859D01*
X126184204Y-65963012D01*
X126184199Y-65963010D01*
X126134692Y-65959469D01*
X126124125Y-65958333D01*
X126111372Y-65956500D01*
X126111368Y-65956500D01*
X126098478Y-65956500D01*
X126087850Y-65956120D01*
X126082833Y-65955761D01*
X126038352Y-65952579D01*
X126035984Y-65953095D01*
X126004311Y-65956500D01*
X116895689Y-65956500D01*
X116864016Y-65953095D01*
X116861647Y-65952579D01*
X116812156Y-65956120D01*
X116801525Y-65956500D01*
X116788631Y-65956500D01*
X116775851Y-65958336D01*
X116765296Y-65959470D01*
X116715798Y-65963011D01*
X116713526Y-65963859D01*
X116682672Y-65971734D01*
X116680267Y-65972079D01*
X116635106Y-65992703D01*
X116625284Y-65996771D01*
X116578794Y-66014111D01*
X116576848Y-66015568D01*
X116549465Y-66031815D01*
X116547257Y-66032823D01*
X116509744Y-66065328D01*
X116501467Y-66071998D01*
X116491151Y-66079720D01*
X116482028Y-66088843D01*
X116474260Y-66096074D01*
X116436751Y-66128578D01*
X116436748Y-66128581D01*
X116435440Y-66130617D01*
X116415457Y-66155413D01*
X115175413Y-67395457D01*
X115150617Y-67415440D01*
X115148581Y-67416748D01*
X115148579Y-67416749D01*
X115148579Y-67416750D01*
X115116074Y-67454260D01*
X115108843Y-67462028D01*
X115099720Y-67471151D01*
X115091998Y-67481467D01*
X115085328Y-67489744D01*
X115052823Y-67527257D01*
X115051815Y-67529465D01*
X115035569Y-67556847D01*
X115034111Y-67558794D01*
X115016763Y-67605303D01*
X115012696Y-67615122D01*
X114992080Y-67660266D01*
X114991735Y-67662670D01*
X114983863Y-67693513D01*
X114983010Y-67695798D01*
X114979469Y-67745308D01*
X114978334Y-67755873D01*
X114976500Y-67768633D01*
X114976500Y-67781522D01*
X114976120Y-67792151D01*
X114972580Y-67841647D01*
X114973095Y-67844015D01*
X114976499Y-67875682D01*
X114976499Y-69514315D01*
X114973096Y-69545976D01*
X114972579Y-69548349D01*
X110100500Y-69548349D01*
X110100500Y-60249500D01*
X110120462Y-60175000D01*
X110175000Y-60120462D01*
X110249500Y-60100500D01*
X159750500Y-60100500D01*
X159825000Y-60120462D01*
G37*
G04 #@! TD.AperFunction*
G04 #@! TD*
M02*
