G04 #@! TF.GenerationSoftware,KiCad,Pcbnew,7.0.2*
G04 #@! TF.CreationDate,2023-08-15T06:03:52+05:00*
G04 #@! TF.ProjectId,RGB LEDS Halleffect,52474220-4c45-4445-9320-48616c6c6566,1*
G04 #@! TF.SameCoordinates,Original*
G04 #@! TF.FileFunction,Legend,Top*
G04 #@! TF.FilePolarity,Positive*
%FSLAX46Y46*%
G04 Gerber Fmt 4.6, Leading zero omitted, Abs format (unit mm)*
G04 Created by KiCad (PCBNEW 7.0.2) date 2023-08-15 06:03:52*
%MOMM*%
%LPD*%
G01*
G04 APERTURE LIST*
%ADD10C,0.187500*%
%ADD11C,0.150000*%
%ADD12C,0.200000*%
%ADD13C,0.120000*%
G04 APERTURE END LIST*
D10*
G36*
X152902215Y-90674618D02*
G01*
X152947237Y-90719640D01*
X152971545Y-90768257D01*
X153001964Y-90889931D01*
X153001964Y-90973995D01*
X152971545Y-91095669D01*
X152947237Y-91144287D01*
X152902214Y-91189309D01*
X152830502Y-91213214D01*
X152760893Y-91213214D01*
X152760893Y-90650714D01*
X152830501Y-90650714D01*
X152902215Y-90674618D01*
G37*
G36*
X153718752Y-90669726D02*
G01*
X153761061Y-90712037D01*
X153787679Y-90818504D01*
X153787679Y-91045423D01*
X153761061Y-91151891D01*
X153718753Y-91194200D01*
X153680726Y-91213214D01*
X153582132Y-91213214D01*
X153544106Y-91194201D01*
X153501795Y-91151891D01*
X153475179Y-91045421D01*
X153475179Y-90818503D01*
X153501795Y-90712036D01*
X153544105Y-90669726D01*
X153582131Y-90650714D01*
X153680726Y-90650714D01*
X153718752Y-90669726D01*
G37*
G36*
X155929197Y-91957768D02*
G01*
X151940804Y-91957768D01*
X151940804Y-91320869D01*
X152570430Y-91320869D01*
X152579079Y-91339808D01*
X152584946Y-91359789D01*
X152590336Y-91364459D01*
X152593300Y-91370949D01*
X152610819Y-91382208D01*
X152626554Y-91395842D01*
X152633613Y-91396856D01*
X152639615Y-91400714D01*
X152660440Y-91400714D01*
X152681048Y-91403677D01*
X152687536Y-91400714D01*
X152833959Y-91400714D01*
X152849245Y-91404608D01*
X152873746Y-91396440D01*
X152898539Y-91389161D01*
X152899738Y-91387777D01*
X152977715Y-91361784D01*
X152999683Y-91357006D01*
X153013229Y-91343459D01*
X153028964Y-91332524D01*
X153032350Y-91324338D01*
X153082263Y-91274425D01*
X153095828Y-91266369D01*
X153107382Y-91243259D01*
X153119761Y-91220590D01*
X153119630Y-91218763D01*
X153136384Y-91185253D01*
X153144274Y-91177836D01*
X153148454Y-91161114D01*
X153149881Y-91158261D01*
X153151712Y-91148079D01*
X153175484Y-91052995D01*
X153283802Y-91052995D01*
X153287679Y-91068503D01*
X153287679Y-91070444D01*
X153290944Y-91081563D01*
X153325841Y-91221152D01*
X153331387Y-91246647D01*
X153342358Y-91257618D01*
X153350212Y-91271005D01*
X153361428Y-91276688D01*
X153413968Y-91329228D01*
X153422024Y-91342792D01*
X153445135Y-91354347D01*
X153467803Y-91366725D01*
X153469629Y-91366594D01*
X153513557Y-91388558D01*
X153532472Y-91400714D01*
X153551633Y-91400714D01*
X153570489Y-91404107D01*
X153578670Y-91400714D01*
X153697807Y-91400714D01*
X153720161Y-91403128D01*
X153737299Y-91394558D01*
X153755682Y-91389161D01*
X153761481Y-91382467D01*
X153805698Y-91360359D01*
X153821113Y-91357006D01*
X153839374Y-91338744D01*
X153858294Y-91321146D01*
X153858748Y-91319370D01*
X153910974Y-91267142D01*
X153929988Y-91249265D01*
X153933751Y-91234210D01*
X153941189Y-91220590D01*
X153940292Y-91208049D01*
X153946952Y-91181411D01*
X154106694Y-91181411D01*
X154115261Y-91198545D01*
X154120660Y-91216932D01*
X154127354Y-91222732D01*
X154149462Y-91266947D01*
X154152815Y-91282361D01*
X154171073Y-91300619D01*
X154188676Y-91319543D01*
X154190450Y-91319996D01*
X154199682Y-91329228D01*
X154207738Y-91342792D01*
X154230849Y-91354347D01*
X154253517Y-91366725D01*
X154255343Y-91366594D01*
X154299271Y-91388558D01*
X154318186Y-91400714D01*
X154337347Y-91400714D01*
X154356203Y-91404107D01*
X154364384Y-91400714D01*
X154483521Y-91400714D01*
X154505875Y-91403128D01*
X154523013Y-91394558D01*
X154541396Y-91389161D01*
X154547195Y-91382467D01*
X154591412Y-91360359D01*
X154606827Y-91357006D01*
X154625085Y-91338746D01*
X154644008Y-91321146D01*
X154644462Y-91319369D01*
X154653693Y-91310138D01*
X154667256Y-91302083D01*
X154678810Y-91278972D01*
X154691189Y-91256303D01*
X154691058Y-91254477D01*
X154713022Y-91210549D01*
X154725178Y-91191635D01*
X154725178Y-91172474D01*
X154728571Y-91153618D01*
X154725178Y-91145437D01*
X154725178Y-90570869D01*
X154784715Y-90570869D01*
X154807585Y-90620949D01*
X154853900Y-90650714D01*
X155001964Y-90650714D01*
X155001964Y-91320444D01*
X155013517Y-91359789D01*
X155055125Y-91395842D01*
X155109619Y-91403677D01*
X155159699Y-91380807D01*
X155189464Y-91334492D01*
X155189464Y-90650714D01*
X155323480Y-90650714D01*
X155362825Y-90639161D01*
X155398878Y-90597553D01*
X155406713Y-90543059D01*
X155383843Y-90492979D01*
X155337528Y-90463214D01*
X155102417Y-90463214D01*
X155081809Y-90460251D01*
X155075321Y-90463214D01*
X154867948Y-90463214D01*
X154828603Y-90474767D01*
X154792550Y-90516375D01*
X154784715Y-90570869D01*
X154725178Y-90570869D01*
X154725178Y-90543484D01*
X154713625Y-90504139D01*
X154672017Y-90468086D01*
X154617523Y-90460251D01*
X154567443Y-90483121D01*
X154537678Y-90529436D01*
X154537678Y-91141975D01*
X154518664Y-91180002D01*
X154504466Y-91194200D01*
X154466440Y-91213214D01*
X154367846Y-91213214D01*
X154329819Y-91194201D01*
X154315619Y-91180000D01*
X154296607Y-91141976D01*
X154296607Y-90543484D01*
X154285054Y-90504139D01*
X154243446Y-90468086D01*
X154188952Y-90460251D01*
X154138872Y-90483121D01*
X154109107Y-90529436D01*
X154109107Y-91159058D01*
X154106694Y-91181411D01*
X153946952Y-91181411D01*
X153968637Y-91094671D01*
X153975179Y-91084492D01*
X153975179Y-91068503D01*
X153975649Y-91066624D01*
X153975179Y-91055058D01*
X153975179Y-90822392D01*
X153979056Y-90810932D01*
X153975179Y-90795424D01*
X153975179Y-90793484D01*
X153971914Y-90782365D01*
X153937019Y-90642788D01*
X153931471Y-90617281D01*
X153920497Y-90606307D01*
X153912645Y-90592923D01*
X153901430Y-90587240D01*
X153848889Y-90534698D01*
X153840834Y-90521136D01*
X153817736Y-90509587D01*
X153795056Y-90497203D01*
X153793228Y-90497333D01*
X153749298Y-90475369D01*
X153730385Y-90463214D01*
X153711224Y-90463214D01*
X153692368Y-90459821D01*
X153684187Y-90463214D01*
X153565048Y-90463214D01*
X153542696Y-90460801D01*
X153525561Y-90469368D01*
X153507175Y-90474767D01*
X153501374Y-90481461D01*
X153457161Y-90503567D01*
X153441746Y-90506921D01*
X153423475Y-90525191D01*
X153404564Y-90542783D01*
X153404110Y-90544556D01*
X153351883Y-90596784D01*
X153332869Y-90614663D01*
X153329105Y-90629717D01*
X153321668Y-90643338D01*
X153322565Y-90655878D01*
X153294220Y-90769256D01*
X153287679Y-90779436D01*
X153287679Y-90795423D01*
X153287209Y-90797304D01*
X153287679Y-90808869D01*
X153287679Y-91041534D01*
X153283802Y-91052995D01*
X153175484Y-91052995D01*
X153182922Y-91023242D01*
X153189464Y-91013063D01*
X153189464Y-90997075D01*
X153189934Y-90995195D01*
X153189464Y-90983629D01*
X153189464Y-90893821D01*
X153193341Y-90882361D01*
X153189464Y-90866852D01*
X153189464Y-90864912D01*
X153186199Y-90853795D01*
X153155000Y-90728996D01*
X153156163Y-90718231D01*
X153148456Y-90702817D01*
X153147682Y-90699720D01*
X153142442Y-90690790D01*
X153113396Y-90632696D01*
X153110043Y-90617281D01*
X153091772Y-90599010D01*
X153074181Y-90580099D01*
X153072407Y-90579645D01*
X153022721Y-90529960D01*
X153008619Y-90512444D01*
X152990441Y-90506384D01*
X152973626Y-90497203D01*
X152964791Y-90497834D01*
X152886511Y-90471741D01*
X152873242Y-90463214D01*
X152847419Y-90463214D01*
X152821593Y-90462280D01*
X152820017Y-90463214D01*
X152673846Y-90463214D01*
X152653238Y-90460251D01*
X152634298Y-90468900D01*
X152614318Y-90474767D01*
X152609647Y-90480157D01*
X152603158Y-90483121D01*
X152591898Y-90500640D01*
X152578265Y-90516375D01*
X152577250Y-90523434D01*
X152573393Y-90529436D01*
X152573393Y-90550260D01*
X152570430Y-90570869D01*
X152573393Y-90577357D01*
X152573393Y-91300260D01*
X152570430Y-91320869D01*
X151940804Y-91320869D01*
X151940804Y-89962232D01*
X155929197Y-89962232D01*
X155929197Y-91957768D01*
G37*
G36*
X155883483Y-89417768D02*
G01*
X152966518Y-89417768D01*
X152966518Y-88170310D01*
X153560000Y-88170310D01*
X153563393Y-88178490D01*
X153563393Y-88226201D01*
X153560980Y-88248554D01*
X153569547Y-88265688D01*
X153574946Y-88284075D01*
X153581640Y-88289875D01*
X153603748Y-88334090D01*
X153607101Y-88349504D01*
X153625363Y-88367766D01*
X153642962Y-88386686D01*
X153644736Y-88387139D01*
X153653969Y-88396372D01*
X153662023Y-88409933D01*
X153685114Y-88421479D01*
X153707802Y-88433867D01*
X153709628Y-88433736D01*
X153743137Y-88450491D01*
X153750556Y-88458381D01*
X153767276Y-88462560D01*
X153770130Y-88463988D01*
X153780314Y-88465820D01*
X153910134Y-88498275D01*
X153958752Y-88522584D01*
X153972951Y-88536783D01*
X153991964Y-88574808D01*
X153991964Y-88601975D01*
X153972950Y-88640002D01*
X153958752Y-88654200D01*
X153920726Y-88673214D01*
X153779500Y-88673214D01*
X153674001Y-88638048D01*
X153633022Y-88636566D01*
X153585661Y-88664638D01*
X153560996Y-88713858D01*
X153566856Y-88768601D01*
X153601382Y-88811484D01*
X153723487Y-88852185D01*
X153736758Y-88860714D01*
X153762582Y-88860714D01*
X153788408Y-88861648D01*
X153789984Y-88860714D01*
X153937807Y-88860714D01*
X153960161Y-88863128D01*
X153977299Y-88854558D01*
X153995682Y-88849161D01*
X154001481Y-88842467D01*
X154045698Y-88820359D01*
X154061113Y-88817006D01*
X154079371Y-88798746D01*
X154098294Y-88781146D01*
X154098473Y-88780444D01*
X154313393Y-88780444D01*
X154324946Y-88819789D01*
X154366554Y-88855842D01*
X154421048Y-88863677D01*
X154471128Y-88840807D01*
X154500893Y-88794492D01*
X154500893Y-88441566D01*
X154630945Y-88441566D01*
X154634822Y-88457074D01*
X154634822Y-88459015D01*
X154638087Y-88470134D01*
X154669284Y-88594927D01*
X154668122Y-88605696D01*
X154675832Y-88621116D01*
X154676605Y-88624208D01*
X154681836Y-88633124D01*
X154710891Y-88691234D01*
X154714244Y-88706647D01*
X154732497Y-88724900D01*
X154750104Y-88743829D01*
X154751880Y-88744283D01*
X154801567Y-88793970D01*
X154815668Y-88811484D01*
X154833843Y-88817542D01*
X154850660Y-88826725D01*
X154859495Y-88826093D01*
X154937773Y-88852185D01*
X154951044Y-88860714D01*
X154976868Y-88860714D01*
X155002694Y-88861648D01*
X155004270Y-88860714D01*
X155038245Y-88860714D01*
X155053531Y-88864608D01*
X155078032Y-88856440D01*
X155102825Y-88849161D01*
X155104024Y-88847777D01*
X155181998Y-88821785D01*
X155203970Y-88817006D01*
X155217517Y-88803458D01*
X155233250Y-88792524D01*
X155236636Y-88784338D01*
X155247187Y-88773786D01*
X155256842Y-88769378D01*
X155266276Y-88754697D01*
X155268681Y-88752293D01*
X155273534Y-88743404D01*
X155286607Y-88723063D01*
X155286607Y-88719462D01*
X155288332Y-88716303D01*
X155286607Y-88692186D01*
X155286607Y-88452238D01*
X155289570Y-88431630D01*
X155280920Y-88412690D01*
X155275054Y-88392710D01*
X155269663Y-88388039D01*
X155266700Y-88381550D01*
X155249180Y-88370290D01*
X155233446Y-88356657D01*
X155226386Y-88355642D01*
X155220385Y-88351785D01*
X155199560Y-88351785D01*
X155178952Y-88348822D01*
X155172464Y-88351785D01*
X155036520Y-88351785D01*
X154997175Y-88363338D01*
X154961122Y-88404946D01*
X154953287Y-88459440D01*
X154976157Y-88509520D01*
X155022472Y-88539285D01*
X155099107Y-88539285D01*
X155099107Y-88651774D01*
X155034788Y-88673214D01*
X154993786Y-88673214D01*
X154922070Y-88649309D01*
X154877049Y-88604288D01*
X154852740Y-88555670D01*
X154822322Y-88433992D01*
X154822322Y-88349931D01*
X154852740Y-88228258D01*
X154877049Y-88179639D01*
X154922070Y-88134618D01*
X154993785Y-88110714D01*
X155063583Y-88110714D01*
X155127274Y-88142559D01*
X155167632Y-88149821D01*
X155218486Y-88128729D01*
X155249864Y-88083492D01*
X155251805Y-88028472D01*
X155223691Y-87981136D01*
X155132157Y-87935369D01*
X155113243Y-87923214D01*
X155094082Y-87923214D01*
X155075226Y-87919821D01*
X155067045Y-87923214D01*
X154990327Y-87923214D01*
X154975042Y-87919320D01*
X154950548Y-87927484D01*
X154925747Y-87934767D01*
X154924547Y-87936151D01*
X154846578Y-87962140D01*
X154824603Y-87966921D01*
X154811052Y-87980471D01*
X154795322Y-87991404D01*
X154791936Y-87999587D01*
X154742021Y-88049503D01*
X154728458Y-88057559D01*
X154716902Y-88080670D01*
X154704525Y-88103338D01*
X154704655Y-88105164D01*
X154687901Y-88138672D01*
X154680012Y-88146091D01*
X154675831Y-88162812D01*
X154674405Y-88165666D01*
X154672573Y-88175847D01*
X154641363Y-88300684D01*
X154634822Y-88310864D01*
X154634822Y-88326851D01*
X154634352Y-88328732D01*
X154634822Y-88340297D01*
X154634822Y-88430105D01*
X154630945Y-88441566D01*
X154500893Y-88441566D01*
X154500893Y-88003484D01*
X154489340Y-87964139D01*
X154447732Y-87928086D01*
X154393238Y-87920251D01*
X154343158Y-87943121D01*
X154313393Y-87989436D01*
X154313393Y-88780444D01*
X154098473Y-88780444D01*
X154098748Y-88779369D01*
X154107979Y-88770138D01*
X154121542Y-88762083D01*
X154133096Y-88738972D01*
X154145475Y-88716303D01*
X154145344Y-88714477D01*
X154167308Y-88670549D01*
X154179464Y-88651635D01*
X154179464Y-88632474D01*
X154182857Y-88613618D01*
X154179464Y-88605437D01*
X154179464Y-88557726D01*
X154181877Y-88535374D01*
X154173309Y-88518239D01*
X154167911Y-88499853D01*
X154161216Y-88494052D01*
X154139109Y-88449838D01*
X154135757Y-88434425D01*
X154117489Y-88416157D01*
X154099895Y-88397242D01*
X154098121Y-88396788D01*
X154088889Y-88387556D01*
X154080834Y-88373993D01*
X154057730Y-88362441D01*
X154035056Y-88350060D01*
X154033228Y-88350190D01*
X153999718Y-88333436D01*
X153992301Y-88325547D01*
X153975579Y-88321366D01*
X153972726Y-88319940D01*
X153962544Y-88318108D01*
X153832721Y-88285652D01*
X153784103Y-88261342D01*
X153769905Y-88247144D01*
X153750893Y-88209119D01*
X153750893Y-88181952D01*
X153769906Y-88143925D01*
X153784104Y-88129727D01*
X153822131Y-88110714D01*
X153963358Y-88110714D01*
X154068857Y-88145880D01*
X154109836Y-88147362D01*
X154157196Y-88119290D01*
X154181862Y-88070070D01*
X154176002Y-88015328D01*
X154141476Y-87972444D01*
X154019368Y-87931741D01*
X154006099Y-87923214D01*
X153980276Y-87923214D01*
X153954450Y-87922280D01*
X153952874Y-87923214D01*
X153805050Y-87923214D01*
X153782696Y-87920800D01*
X153765557Y-87929369D01*
X153747175Y-87934767D01*
X153741375Y-87941460D01*
X153697157Y-87963569D01*
X153681745Y-87966922D01*
X153663486Y-87985180D01*
X153644564Y-88002782D01*
X153644110Y-88004556D01*
X153634879Y-88013787D01*
X153621315Y-88021844D01*
X153609760Y-88044953D01*
X153597382Y-88067623D01*
X153597512Y-88069449D01*
X153575548Y-88113379D01*
X153563393Y-88132293D01*
X153563393Y-88151453D01*
X153560000Y-88170310D01*
X152966518Y-88170310D01*
X152966518Y-87422232D01*
X155883483Y-87422232D01*
X155883483Y-89417768D01*
G37*
G36*
X155915625Y-81797768D02*
G01*
X152534375Y-81797768D01*
X152534375Y-80875155D01*
X153164001Y-80875155D01*
X153186871Y-80925235D01*
X153233186Y-80955000D01*
X153452678Y-80955000D01*
X153452678Y-81160444D01*
X153464231Y-81199789D01*
X153505839Y-81235842D01*
X153560333Y-81243677D01*
X153610413Y-81220807D01*
X153640178Y-81174492D01*
X153640178Y-81068563D01*
X154056112Y-81068563D01*
X154067814Y-81122360D01*
X154114680Y-81169226D01*
X154122737Y-81182792D01*
X154145848Y-81194347D01*
X154168515Y-81206725D01*
X154170342Y-81206594D01*
X154214272Y-81228558D01*
X154233186Y-81240714D01*
X154252347Y-81240714D01*
X154271203Y-81244107D01*
X154279384Y-81240714D01*
X154434235Y-81240714D01*
X154456589Y-81243128D01*
X154473727Y-81234558D01*
X154492110Y-81229161D01*
X154497909Y-81222467D01*
X154542126Y-81200359D01*
X154557541Y-81197006D01*
X154575799Y-81178746D01*
X154594722Y-81161146D01*
X154595176Y-81159369D01*
X154604407Y-81150138D01*
X154617970Y-81142083D01*
X154629524Y-81118972D01*
X154641903Y-81096303D01*
X154641772Y-81094477D01*
X154663736Y-81050549D01*
X154675892Y-81031635D01*
X154675892Y-81012474D01*
X154679285Y-80993618D01*
X154675892Y-80985437D01*
X154675892Y-80830582D01*
X154678305Y-80808231D01*
X154669737Y-80791096D01*
X154664339Y-80772710D01*
X154657644Y-80766909D01*
X154635537Y-80722695D01*
X154632185Y-80707282D01*
X154613917Y-80689014D01*
X154596323Y-80670099D01*
X154594549Y-80669645D01*
X154585317Y-80660413D01*
X154577262Y-80646850D01*
X154554158Y-80635298D01*
X154531484Y-80622917D01*
X154529656Y-80623047D01*
X154485726Y-80601083D01*
X154466813Y-80588928D01*
X154447652Y-80588928D01*
X154428796Y-80585535D01*
X154420615Y-80588928D01*
X154265764Y-80588928D01*
X154264322Y-80588772D01*
X154274128Y-80490714D01*
X154559908Y-80490714D01*
X154599253Y-80479161D01*
X154635306Y-80437553D01*
X154640634Y-80400495D01*
X154698784Y-80400495D01*
X154952126Y-81160520D01*
X154951744Y-81171085D01*
X154960664Y-81186134D01*
X154961752Y-81189398D01*
X154967505Y-81197676D01*
X154979816Y-81218446D01*
X154983074Y-81220078D01*
X154985154Y-81223071D01*
X155007455Y-81232296D01*
X155029036Y-81243111D01*
X155032659Y-81242723D01*
X155036027Y-81244116D01*
X155059771Y-81239820D01*
X155083778Y-81237251D01*
X155086618Y-81234964D01*
X155090203Y-81234316D01*
X155107854Y-81217867D01*
X155126662Y-81202726D01*
X155127814Y-81199267D01*
X155130481Y-81196783D01*
X155136439Y-81173393D01*
X155389630Y-80413822D01*
X155391112Y-80372843D01*
X155363040Y-80325483D01*
X155313820Y-80300817D01*
X155259078Y-80306677D01*
X155216194Y-80341203D01*
X155046427Y-80850500D01*
X154881104Y-80354529D01*
X154857702Y-80320857D01*
X154806828Y-80299812D01*
X154752653Y-80309611D01*
X154712375Y-80347144D01*
X154698784Y-80400495D01*
X154640634Y-80400495D01*
X154643141Y-80383059D01*
X154620271Y-80332979D01*
X154573956Y-80303214D01*
X154200703Y-80303214D01*
X154185072Y-80299348D01*
X154160945Y-80307577D01*
X154136460Y-80314767D01*
X154135030Y-80316416D01*
X154132965Y-80317121D01*
X154117101Y-80337108D01*
X154100407Y-80356375D01*
X154100096Y-80358533D01*
X154098739Y-80360244D01*
X154096199Y-80385637D01*
X154092572Y-80410869D01*
X154093478Y-80412853D01*
X154062177Y-80725863D01*
X154058096Y-80733339D01*
X154059486Y-80752777D01*
X154058945Y-80758192D01*
X154060443Y-80766157D01*
X154062024Y-80788254D01*
X154065464Y-80792850D01*
X154066526Y-80798491D01*
X154081739Y-80814589D01*
X154095018Y-80832327D01*
X154100397Y-80834333D01*
X154104340Y-80838505D01*
X154125842Y-80843823D01*
X154146602Y-80851566D01*
X154152211Y-80850345D01*
X154157784Y-80851724D01*
X154178749Y-80844572D01*
X154200398Y-80839863D01*
X154204457Y-80835803D01*
X154209891Y-80833950D01*
X154223665Y-80816594D01*
X154244818Y-80795441D01*
X154282845Y-80776428D01*
X154417154Y-80776428D01*
X154455180Y-80795441D01*
X154469379Y-80809640D01*
X154488392Y-80847665D01*
X154488392Y-80981975D01*
X154469378Y-81020002D01*
X154455180Y-81034200D01*
X154417154Y-81053214D01*
X154282845Y-81053214D01*
X154244819Y-81034201D01*
X154210332Y-80999713D01*
X154174341Y-80980060D01*
X154119427Y-80983988D01*
X154075353Y-81016980D01*
X154056112Y-81068563D01*
X153640178Y-81068563D01*
X153640178Y-80955000D01*
X153845623Y-80955000D01*
X153884968Y-80943447D01*
X153921021Y-80901839D01*
X153928856Y-80847345D01*
X153905986Y-80797265D01*
X153859671Y-80767500D01*
X153640178Y-80767500D01*
X153640178Y-80562055D01*
X153628625Y-80522710D01*
X153587017Y-80486657D01*
X153532523Y-80478822D01*
X153482443Y-80501692D01*
X153452678Y-80548007D01*
X153452678Y-80767500D01*
X153247234Y-80767500D01*
X153207889Y-80779053D01*
X153171836Y-80820661D01*
X153164001Y-80875155D01*
X152534375Y-80875155D01*
X152534375Y-79802232D01*
X155915625Y-79802232D01*
X155915625Y-81797768D01*
G37*
G36*
X153882215Y-85594618D02*
G01*
X153927237Y-85639640D01*
X153951545Y-85688257D01*
X153981964Y-85809931D01*
X153981964Y-85893995D01*
X153951545Y-86015669D01*
X153927237Y-86064287D01*
X153882214Y-86109309D01*
X153810502Y-86133214D01*
X153740893Y-86133214D01*
X153740893Y-85570714D01*
X153810501Y-85570714D01*
X153882215Y-85594618D01*
G37*
G36*
X155909197Y-86877768D02*
G01*
X152920804Y-86877768D01*
X152920804Y-86240869D01*
X153550430Y-86240869D01*
X153559079Y-86259808D01*
X153564946Y-86279789D01*
X153570336Y-86284459D01*
X153573300Y-86290949D01*
X153590819Y-86302208D01*
X153606554Y-86315842D01*
X153613613Y-86316856D01*
X153619615Y-86320714D01*
X153640440Y-86320714D01*
X153661048Y-86323677D01*
X153667536Y-86320714D01*
X153813959Y-86320714D01*
X153829245Y-86324608D01*
X153853746Y-86316440D01*
X153878539Y-86309161D01*
X153879738Y-86307777D01*
X153957715Y-86281784D01*
X153979683Y-86277006D01*
X153993229Y-86263459D01*
X154008964Y-86252524D01*
X154012350Y-86244338D01*
X154016244Y-86240444D01*
X154303393Y-86240444D01*
X154314946Y-86279789D01*
X154356554Y-86315842D01*
X154411048Y-86323677D01*
X154461128Y-86300807D01*
X154490893Y-86254492D01*
X154490893Y-85499576D01*
X154659230Y-85499576D01*
X154660536Y-85501861D01*
X154660536Y-86240444D01*
X154672089Y-86279789D01*
X154713697Y-86315842D01*
X154768191Y-86323677D01*
X154818271Y-86300807D01*
X154848036Y-86254492D01*
X154848036Y-85829986D01*
X155096002Y-86263928D01*
X155100660Y-86279789D01*
X155119612Y-86296211D01*
X155137698Y-86313610D01*
X155140280Y-86314119D01*
X155142268Y-86315842D01*
X155167102Y-86319412D01*
X155191712Y-86324269D01*
X155194157Y-86323302D01*
X155196762Y-86323677D01*
X155219584Y-86313254D01*
X155242913Y-86304036D01*
X155244448Y-86301900D01*
X155246842Y-86300807D01*
X155260407Y-86279699D01*
X155275048Y-86259332D01*
X155275184Y-86256704D01*
X155276607Y-86254492D01*
X155276607Y-86229403D01*
X155277912Y-86204352D01*
X155276607Y-86202068D01*
X155276607Y-85463484D01*
X155265054Y-85424139D01*
X155223446Y-85388086D01*
X155168952Y-85380251D01*
X155118872Y-85403121D01*
X155089107Y-85449436D01*
X155089107Y-85873942D01*
X154841140Y-85439999D01*
X154836483Y-85424139D01*
X154817526Y-85407713D01*
X154799444Y-85390318D01*
X154796863Y-85389808D01*
X154794875Y-85388086D01*
X154770048Y-85384516D01*
X154745431Y-85379658D01*
X154742983Y-85380625D01*
X154740381Y-85380251D01*
X154717566Y-85390669D01*
X154694230Y-85399892D01*
X154692694Y-85402027D01*
X154690301Y-85403121D01*
X154676735Y-85424228D01*
X154662095Y-85444596D01*
X154661958Y-85447223D01*
X154660536Y-85449436D01*
X154660536Y-85474513D01*
X154659230Y-85499576D01*
X154490893Y-85499576D01*
X154490893Y-85463484D01*
X154479340Y-85424139D01*
X154437732Y-85388086D01*
X154383238Y-85380251D01*
X154333158Y-85403121D01*
X154303393Y-85449436D01*
X154303393Y-86240444D01*
X154016244Y-86240444D01*
X154062263Y-86194425D01*
X154075828Y-86186369D01*
X154087382Y-86163259D01*
X154099761Y-86140590D01*
X154099630Y-86138763D01*
X154116384Y-86105253D01*
X154124274Y-86097836D01*
X154128454Y-86081114D01*
X154129881Y-86078261D01*
X154131712Y-86068079D01*
X154162922Y-85943242D01*
X154169464Y-85933063D01*
X154169464Y-85917075D01*
X154169934Y-85915195D01*
X154169464Y-85903629D01*
X154169464Y-85813821D01*
X154173341Y-85802361D01*
X154169464Y-85786852D01*
X154169464Y-85784912D01*
X154166199Y-85773795D01*
X154135000Y-85648996D01*
X154136163Y-85638231D01*
X154128456Y-85622817D01*
X154127682Y-85619720D01*
X154122442Y-85610790D01*
X154093396Y-85552696D01*
X154090043Y-85537281D01*
X154071772Y-85519010D01*
X154054181Y-85500099D01*
X154052407Y-85499645D01*
X154002721Y-85449960D01*
X153988619Y-85432444D01*
X153970441Y-85426384D01*
X153953626Y-85417203D01*
X153944791Y-85417834D01*
X153866511Y-85391741D01*
X153853242Y-85383214D01*
X153827419Y-85383214D01*
X153801593Y-85382280D01*
X153800017Y-85383214D01*
X153653846Y-85383214D01*
X153633238Y-85380251D01*
X153614298Y-85388900D01*
X153594318Y-85394767D01*
X153589647Y-85400157D01*
X153583158Y-85403121D01*
X153571898Y-85420640D01*
X153558265Y-85436375D01*
X153557250Y-85443434D01*
X153553393Y-85449436D01*
X153553393Y-85470260D01*
X153550430Y-85490869D01*
X153553393Y-85497357D01*
X153553393Y-86220260D01*
X153550430Y-86240869D01*
X152920804Y-86240869D01*
X152920804Y-84882232D01*
X155909197Y-84882232D01*
X155909197Y-86877768D01*
G37*
D11*
X132452166Y-84115000D02*
X132452166Y-83581667D01*
X132718833Y-83848333D02*
X132185500Y-83848333D01*
X132018833Y-82915000D02*
X132018833Y-83248333D01*
X132018833Y-83248333D02*
X132352166Y-83281666D01*
X132352166Y-83281666D02*
X132318833Y-83248333D01*
X132318833Y-83248333D02*
X132285500Y-83181666D01*
X132285500Y-83181666D02*
X132285500Y-83015000D01*
X132285500Y-83015000D02*
X132318833Y-82948333D01*
X132318833Y-82948333D02*
X132352166Y-82915000D01*
X132352166Y-82915000D02*
X132418833Y-82881666D01*
X132418833Y-82881666D02*
X132585500Y-82881666D01*
X132585500Y-82881666D02*
X132652166Y-82915000D01*
X132652166Y-82915000D02*
X132685500Y-82948333D01*
X132685500Y-82948333D02*
X132718833Y-83015000D01*
X132718833Y-83015000D02*
X132718833Y-83181666D01*
X132718833Y-83181666D02*
X132685500Y-83248333D01*
X132685500Y-83248333D02*
X132652166Y-83281666D01*
X132018833Y-82681666D02*
X132718833Y-82448333D01*
X132718833Y-82448333D02*
X132018833Y-82214999D01*
D10*
G36*
X155031500Y-83054618D02*
G01*
X155076522Y-83099640D01*
X155100830Y-83148257D01*
X155131249Y-83269931D01*
X155131249Y-83353995D01*
X155100830Y-83475669D01*
X155076522Y-83524287D01*
X155031499Y-83569309D01*
X154959787Y-83593214D01*
X154890178Y-83593214D01*
X154890178Y-83030714D01*
X154959786Y-83030714D01*
X155031500Y-83054618D01*
G37*
G36*
X155915625Y-84337768D02*
G01*
X152534375Y-84337768D01*
X152534375Y-83361566D01*
X153127373Y-83361566D01*
X153131250Y-83377074D01*
X153131250Y-83379015D01*
X153134515Y-83390134D01*
X153165712Y-83514927D01*
X153164550Y-83525696D01*
X153172260Y-83541116D01*
X153173033Y-83544208D01*
X153178264Y-83553124D01*
X153207319Y-83611234D01*
X153210672Y-83626647D01*
X153228925Y-83644900D01*
X153246532Y-83663829D01*
X153248308Y-83664283D01*
X153297995Y-83713970D01*
X153312096Y-83731484D01*
X153330271Y-83737542D01*
X153347088Y-83746725D01*
X153355923Y-83746093D01*
X153434201Y-83772185D01*
X153447472Y-83780714D01*
X153473296Y-83780714D01*
X153499122Y-83781648D01*
X153500698Y-83780714D01*
X153534673Y-83780714D01*
X153549959Y-83784608D01*
X153574460Y-83776440D01*
X153599253Y-83769161D01*
X153600452Y-83767777D01*
X153678426Y-83741785D01*
X153700398Y-83737006D01*
X153713945Y-83723458D01*
X153729678Y-83712524D01*
X153733064Y-83704338D01*
X153743615Y-83693786D01*
X153753270Y-83689378D01*
X153762704Y-83674697D01*
X153765109Y-83672293D01*
X153769962Y-83663404D01*
X153783035Y-83643063D01*
X153783035Y-83639462D01*
X153784760Y-83636303D01*
X153783035Y-83612186D01*
X153783035Y-83372238D01*
X153785998Y-83351630D01*
X153777348Y-83332690D01*
X153771482Y-83312710D01*
X153766091Y-83308039D01*
X153763128Y-83301550D01*
X153745608Y-83290290D01*
X153729874Y-83276657D01*
X153722814Y-83275642D01*
X153716813Y-83271785D01*
X153695988Y-83271785D01*
X153675380Y-83268822D01*
X153668892Y-83271785D01*
X153532948Y-83271785D01*
X153493603Y-83283338D01*
X153457550Y-83324946D01*
X153449715Y-83379440D01*
X153472585Y-83429520D01*
X153518900Y-83459285D01*
X153595535Y-83459285D01*
X153595535Y-83571774D01*
X153531216Y-83593214D01*
X153490214Y-83593214D01*
X153418498Y-83569309D01*
X153373477Y-83524288D01*
X153349168Y-83475670D01*
X153318750Y-83353992D01*
X153318750Y-83269931D01*
X153349168Y-83148258D01*
X153373477Y-83099639D01*
X153418498Y-83054618D01*
X153490213Y-83030714D01*
X153560011Y-83030714D01*
X153623702Y-83062559D01*
X153664060Y-83069821D01*
X153714914Y-83048729D01*
X153746292Y-83003492D01*
X153747841Y-82959576D01*
X153915658Y-82959576D01*
X153916964Y-82961861D01*
X153916964Y-83700444D01*
X153928517Y-83739789D01*
X153970125Y-83775842D01*
X154024619Y-83783677D01*
X154074699Y-83760807D01*
X154104464Y-83714492D01*
X154104464Y-83289986D01*
X154352430Y-83723928D01*
X154357088Y-83739789D01*
X154376040Y-83756211D01*
X154394126Y-83773610D01*
X154396708Y-83774119D01*
X154398696Y-83775842D01*
X154423530Y-83779412D01*
X154448140Y-83784269D01*
X154450585Y-83783302D01*
X154453190Y-83783677D01*
X154476012Y-83773254D01*
X154499341Y-83764036D01*
X154500876Y-83761900D01*
X154503270Y-83760807D01*
X154516835Y-83739699D01*
X154531476Y-83719332D01*
X154531612Y-83716704D01*
X154533035Y-83714492D01*
X154533035Y-83700869D01*
X154699715Y-83700869D01*
X154708364Y-83719808D01*
X154714231Y-83739789D01*
X154719621Y-83744459D01*
X154722585Y-83750949D01*
X154740104Y-83762208D01*
X154755839Y-83775842D01*
X154762898Y-83776856D01*
X154768900Y-83780714D01*
X154789725Y-83780714D01*
X154810333Y-83783677D01*
X154816821Y-83780714D01*
X154963244Y-83780714D01*
X154978530Y-83784608D01*
X155003031Y-83776440D01*
X155027824Y-83769161D01*
X155029023Y-83767777D01*
X155107000Y-83741784D01*
X155128968Y-83737006D01*
X155142514Y-83723459D01*
X155158249Y-83712524D01*
X155161635Y-83704338D01*
X155211548Y-83654425D01*
X155225113Y-83646369D01*
X155236667Y-83623259D01*
X155249046Y-83600590D01*
X155248915Y-83598763D01*
X155265669Y-83565253D01*
X155273559Y-83557836D01*
X155277739Y-83541114D01*
X155279166Y-83538261D01*
X155280997Y-83528079D01*
X155312207Y-83403242D01*
X155318749Y-83393063D01*
X155318749Y-83377075D01*
X155319219Y-83375195D01*
X155318749Y-83363629D01*
X155318749Y-83273821D01*
X155322626Y-83262361D01*
X155318749Y-83246852D01*
X155318749Y-83244912D01*
X155315484Y-83233795D01*
X155284285Y-83108996D01*
X155285448Y-83098231D01*
X155277741Y-83082817D01*
X155276967Y-83079720D01*
X155271727Y-83070790D01*
X155242681Y-83012696D01*
X155239328Y-82997281D01*
X155221057Y-82979010D01*
X155203466Y-82960099D01*
X155201692Y-82959645D01*
X155152006Y-82909960D01*
X155137904Y-82892444D01*
X155119726Y-82886384D01*
X155102911Y-82877203D01*
X155094076Y-82877834D01*
X155015796Y-82851741D01*
X155002527Y-82843214D01*
X154976704Y-82843214D01*
X154950878Y-82842280D01*
X154949302Y-82843214D01*
X154803131Y-82843214D01*
X154782523Y-82840251D01*
X154763583Y-82848900D01*
X154743603Y-82854767D01*
X154738932Y-82860157D01*
X154732443Y-82863121D01*
X154721183Y-82880640D01*
X154707550Y-82896375D01*
X154706535Y-82903434D01*
X154702678Y-82909436D01*
X154702678Y-82930260D01*
X154699715Y-82950869D01*
X154702678Y-82957357D01*
X154702678Y-83680260D01*
X154699715Y-83700869D01*
X154533035Y-83700869D01*
X154533035Y-83689403D01*
X154534340Y-83664352D01*
X154533035Y-83662068D01*
X154533035Y-82923484D01*
X154521482Y-82884139D01*
X154479874Y-82848086D01*
X154425380Y-82840251D01*
X154375300Y-82863121D01*
X154345535Y-82909436D01*
X154345535Y-83333942D01*
X154097568Y-82899999D01*
X154092911Y-82884139D01*
X154073954Y-82867713D01*
X154055872Y-82850318D01*
X154053291Y-82849808D01*
X154051303Y-82848086D01*
X154026476Y-82844516D01*
X154001859Y-82839658D01*
X153999411Y-82840625D01*
X153996809Y-82840251D01*
X153973994Y-82850669D01*
X153950658Y-82859892D01*
X153949122Y-82862027D01*
X153946729Y-82863121D01*
X153933163Y-82884228D01*
X153918523Y-82904596D01*
X153918386Y-82907223D01*
X153916964Y-82909436D01*
X153916964Y-82934513D01*
X153915658Y-82959576D01*
X153747841Y-82959576D01*
X153748233Y-82948472D01*
X153720119Y-82901136D01*
X153628585Y-82855369D01*
X153609671Y-82843214D01*
X153590510Y-82843214D01*
X153571654Y-82839821D01*
X153563473Y-82843214D01*
X153486755Y-82843214D01*
X153471470Y-82839320D01*
X153446976Y-82847484D01*
X153422175Y-82854767D01*
X153420975Y-82856151D01*
X153343006Y-82882140D01*
X153321031Y-82886921D01*
X153307480Y-82900471D01*
X153291750Y-82911404D01*
X153288364Y-82919587D01*
X153238449Y-82969503D01*
X153224886Y-82977559D01*
X153213330Y-83000670D01*
X153200953Y-83023338D01*
X153201083Y-83025164D01*
X153184329Y-83058672D01*
X153176440Y-83066091D01*
X153172259Y-83082812D01*
X153170833Y-83085666D01*
X153169001Y-83095847D01*
X153137791Y-83220684D01*
X153131250Y-83230864D01*
X153131250Y-83246851D01*
X153130780Y-83248732D01*
X153131250Y-83260297D01*
X153131250Y-83350105D01*
X153127373Y-83361566D01*
X152534375Y-83361566D01*
X152534375Y-82342232D01*
X155915625Y-82342232D01*
X155915625Y-84337768D01*
G37*
D11*
X134501667Y-82332166D02*
X134435000Y-82298833D01*
X134435000Y-82298833D02*
X134335000Y-82298833D01*
X134335000Y-82298833D02*
X134235000Y-82332166D01*
X134235000Y-82332166D02*
X134168334Y-82398833D01*
X134168334Y-82398833D02*
X134135000Y-82465500D01*
X134135000Y-82465500D02*
X134101667Y-82598833D01*
X134101667Y-82598833D02*
X134101667Y-82698833D01*
X134101667Y-82698833D02*
X134135000Y-82832166D01*
X134135000Y-82832166D02*
X134168334Y-82898833D01*
X134168334Y-82898833D02*
X134235000Y-82965500D01*
X134235000Y-82965500D02*
X134335000Y-82998833D01*
X134335000Y-82998833D02*
X134401667Y-82998833D01*
X134401667Y-82998833D02*
X134501667Y-82965500D01*
X134501667Y-82965500D02*
X134535000Y-82932166D01*
X134535000Y-82932166D02*
X134535000Y-82698833D01*
X134535000Y-82698833D02*
X134401667Y-82698833D01*
X134835000Y-82998833D02*
X134835000Y-82298833D01*
X134835000Y-82298833D02*
X135235000Y-82998833D01*
X135235000Y-82998833D02*
X135235000Y-82298833D01*
X135568333Y-82998833D02*
X135568333Y-82298833D01*
X135568333Y-82298833D02*
X135735000Y-82298833D01*
X135735000Y-82298833D02*
X135835000Y-82332166D01*
X135835000Y-82332166D02*
X135901667Y-82398833D01*
X135901667Y-82398833D02*
X135935000Y-82465500D01*
X135935000Y-82465500D02*
X135968333Y-82598833D01*
X135968333Y-82598833D02*
X135968333Y-82698833D01*
X135968333Y-82698833D02*
X135935000Y-82832166D01*
X135935000Y-82832166D02*
X135901667Y-82898833D01*
X135901667Y-82898833D02*
X135835000Y-82965500D01*
X135835000Y-82965500D02*
X135735000Y-82998833D01*
X135735000Y-82998833D02*
X135568333Y-82998833D01*
X137248833Y-83644999D02*
X137248833Y-83511665D01*
X137248833Y-83511665D02*
X137282166Y-83444999D01*
X137282166Y-83444999D02*
X137348833Y-83378332D01*
X137348833Y-83378332D02*
X137482166Y-83344999D01*
X137482166Y-83344999D02*
X137715500Y-83344999D01*
X137715500Y-83344999D02*
X137848833Y-83378332D01*
X137848833Y-83378332D02*
X137915500Y-83444999D01*
X137915500Y-83444999D02*
X137948833Y-83511665D01*
X137948833Y-83511665D02*
X137948833Y-83644999D01*
X137948833Y-83644999D02*
X137915500Y-83711665D01*
X137915500Y-83711665D02*
X137848833Y-83778332D01*
X137848833Y-83778332D02*
X137715500Y-83811665D01*
X137715500Y-83811665D02*
X137482166Y-83811665D01*
X137482166Y-83811665D02*
X137348833Y-83778332D01*
X137348833Y-83778332D02*
X137282166Y-83711665D01*
X137282166Y-83711665D02*
X137248833Y-83644999D01*
X137248833Y-83044999D02*
X137815500Y-83044999D01*
X137815500Y-83044999D02*
X137882166Y-83011666D01*
X137882166Y-83011666D02*
X137915500Y-82978332D01*
X137915500Y-82978332D02*
X137948833Y-82911666D01*
X137948833Y-82911666D02*
X137948833Y-82778332D01*
X137948833Y-82778332D02*
X137915500Y-82711666D01*
X137915500Y-82711666D02*
X137882166Y-82678332D01*
X137882166Y-82678332D02*
X137815500Y-82644999D01*
X137815500Y-82644999D02*
X137248833Y-82644999D01*
X137248833Y-82411666D02*
X137248833Y-82011666D01*
X137948833Y-82211666D02*
X137248833Y-82211666D01*
G04 #@! TO.C,J1*
X157691666Y-77932619D02*
X157691666Y-78646904D01*
X157691666Y-78646904D02*
X157644047Y-78789761D01*
X157644047Y-78789761D02*
X157548809Y-78885000D01*
X157548809Y-78885000D02*
X157405952Y-78932619D01*
X157405952Y-78932619D02*
X157310714Y-78932619D01*
X158691666Y-78932619D02*
X158120238Y-78932619D01*
X158405952Y-78932619D02*
X158405952Y-77932619D01*
X158405952Y-77932619D02*
X158310714Y-78075476D01*
X158310714Y-78075476D02*
X158215476Y-78170714D01*
X158215476Y-78170714D02*
X158120238Y-78218333D01*
D12*
G04 #@! TO.C,C4*
X127622380Y-100921666D02*
X127670000Y-100969285D01*
X127670000Y-100969285D02*
X127717619Y-101112142D01*
X127717619Y-101112142D02*
X127717619Y-101207380D01*
X127717619Y-101207380D02*
X127670000Y-101350237D01*
X127670000Y-101350237D02*
X127574761Y-101445475D01*
X127574761Y-101445475D02*
X127479523Y-101493094D01*
X127479523Y-101493094D02*
X127289047Y-101540713D01*
X127289047Y-101540713D02*
X127146190Y-101540713D01*
X127146190Y-101540713D02*
X126955714Y-101493094D01*
X126955714Y-101493094D02*
X126860476Y-101445475D01*
X126860476Y-101445475D02*
X126765238Y-101350237D01*
X126765238Y-101350237D02*
X126717619Y-101207380D01*
X126717619Y-101207380D02*
X126717619Y-101112142D01*
X126717619Y-101112142D02*
X126765238Y-100969285D01*
X126765238Y-100969285D02*
X126812857Y-100921666D01*
X127050952Y-100064523D02*
X127717619Y-100064523D01*
X126670000Y-100302618D02*
X127384285Y-100540713D01*
X127384285Y-100540713D02*
X127384285Y-99921666D01*
G04 #@! TO.C,R1*
X134843333Y-89667619D02*
X134510000Y-89191428D01*
X134271905Y-89667619D02*
X134271905Y-88667619D01*
X134271905Y-88667619D02*
X134652857Y-88667619D01*
X134652857Y-88667619D02*
X134748095Y-88715238D01*
X134748095Y-88715238D02*
X134795714Y-88762857D01*
X134795714Y-88762857D02*
X134843333Y-88858095D01*
X134843333Y-88858095D02*
X134843333Y-89000952D01*
X134843333Y-89000952D02*
X134795714Y-89096190D01*
X134795714Y-89096190D02*
X134748095Y-89143809D01*
X134748095Y-89143809D02*
X134652857Y-89191428D01*
X134652857Y-89191428D02*
X134271905Y-89191428D01*
X135795714Y-89667619D02*
X135224286Y-89667619D01*
X135510000Y-89667619D02*
X135510000Y-88667619D01*
X135510000Y-88667619D02*
X135414762Y-88810476D01*
X135414762Y-88810476D02*
X135319524Y-88905714D01*
X135319524Y-88905714D02*
X135224286Y-88953333D01*
G04 #@! TO.C,C2*
X157492380Y-70941666D02*
X157540000Y-70989285D01*
X157540000Y-70989285D02*
X157587619Y-71132142D01*
X157587619Y-71132142D02*
X157587619Y-71227380D01*
X157587619Y-71227380D02*
X157540000Y-71370237D01*
X157540000Y-71370237D02*
X157444761Y-71465475D01*
X157444761Y-71465475D02*
X157349523Y-71513094D01*
X157349523Y-71513094D02*
X157159047Y-71560713D01*
X157159047Y-71560713D02*
X157016190Y-71560713D01*
X157016190Y-71560713D02*
X156825714Y-71513094D01*
X156825714Y-71513094D02*
X156730476Y-71465475D01*
X156730476Y-71465475D02*
X156635238Y-71370237D01*
X156635238Y-71370237D02*
X156587619Y-71227380D01*
X156587619Y-71227380D02*
X156587619Y-71132142D01*
X156587619Y-71132142D02*
X156635238Y-70989285D01*
X156635238Y-70989285D02*
X156682857Y-70941666D01*
X156682857Y-70560713D02*
X156635238Y-70513094D01*
X156635238Y-70513094D02*
X156587619Y-70417856D01*
X156587619Y-70417856D02*
X156587619Y-70179761D01*
X156587619Y-70179761D02*
X156635238Y-70084523D01*
X156635238Y-70084523D02*
X156682857Y-70036904D01*
X156682857Y-70036904D02*
X156778095Y-69989285D01*
X156778095Y-69989285D02*
X156873333Y-69989285D01*
X156873333Y-69989285D02*
X157016190Y-70036904D01*
X157016190Y-70036904D02*
X157587619Y-70608332D01*
X157587619Y-70608332D02*
X157587619Y-69989285D01*
G04 #@! TO.C,C1*
X157622380Y-100851666D02*
X157670000Y-100899285D01*
X157670000Y-100899285D02*
X157717619Y-101042142D01*
X157717619Y-101042142D02*
X157717619Y-101137380D01*
X157717619Y-101137380D02*
X157670000Y-101280237D01*
X157670000Y-101280237D02*
X157574761Y-101375475D01*
X157574761Y-101375475D02*
X157479523Y-101423094D01*
X157479523Y-101423094D02*
X157289047Y-101470713D01*
X157289047Y-101470713D02*
X157146190Y-101470713D01*
X157146190Y-101470713D02*
X156955714Y-101423094D01*
X156955714Y-101423094D02*
X156860476Y-101375475D01*
X156860476Y-101375475D02*
X156765238Y-101280237D01*
X156765238Y-101280237D02*
X156717619Y-101137380D01*
X156717619Y-101137380D02*
X156717619Y-101042142D01*
X156717619Y-101042142D02*
X156765238Y-100899285D01*
X156765238Y-100899285D02*
X156812857Y-100851666D01*
X157717619Y-99899285D02*
X157717619Y-100470713D01*
X157717619Y-100184999D02*
X156717619Y-100184999D01*
X156717619Y-100184999D02*
X156860476Y-100280237D01*
X156860476Y-100280237D02*
X156955714Y-100375475D01*
X156955714Y-100375475D02*
X157003333Y-100470713D01*
G04 #@! TO.C,D2*
X119261905Y-73962619D02*
X119261905Y-72962619D01*
X119261905Y-72962619D02*
X119500000Y-72962619D01*
X119500000Y-72962619D02*
X119642857Y-73010238D01*
X119642857Y-73010238D02*
X119738095Y-73105476D01*
X119738095Y-73105476D02*
X119785714Y-73200714D01*
X119785714Y-73200714D02*
X119833333Y-73391190D01*
X119833333Y-73391190D02*
X119833333Y-73534047D01*
X119833333Y-73534047D02*
X119785714Y-73724523D01*
X119785714Y-73724523D02*
X119738095Y-73819761D01*
X119738095Y-73819761D02*
X119642857Y-73915000D01*
X119642857Y-73915000D02*
X119500000Y-73962619D01*
X119500000Y-73962619D02*
X119261905Y-73962619D01*
X120214286Y-73057857D02*
X120261905Y-73010238D01*
X120261905Y-73010238D02*
X120357143Y-72962619D01*
X120357143Y-72962619D02*
X120595238Y-72962619D01*
X120595238Y-72962619D02*
X120690476Y-73010238D01*
X120690476Y-73010238D02*
X120738095Y-73057857D01*
X120738095Y-73057857D02*
X120785714Y-73153095D01*
X120785714Y-73153095D02*
X120785714Y-73248333D01*
X120785714Y-73248333D02*
X120738095Y-73391190D01*
X120738095Y-73391190D02*
X120166667Y-73962619D01*
X120166667Y-73962619D02*
X120785714Y-73962619D01*
X116690476Y-65462619D02*
X116928571Y-66462619D01*
X116928571Y-66462619D02*
X117119047Y-65748333D01*
X117119047Y-65748333D02*
X117309523Y-66462619D01*
X117309523Y-66462619D02*
X117547619Y-65462619D01*
X117880952Y-66415000D02*
X118023809Y-66462619D01*
X118023809Y-66462619D02*
X118261904Y-66462619D01*
X118261904Y-66462619D02*
X118357142Y-66415000D01*
X118357142Y-66415000D02*
X118404761Y-66367380D01*
X118404761Y-66367380D02*
X118452380Y-66272142D01*
X118452380Y-66272142D02*
X118452380Y-66176904D01*
X118452380Y-66176904D02*
X118404761Y-66081666D01*
X118404761Y-66081666D02*
X118357142Y-66034047D01*
X118357142Y-66034047D02*
X118261904Y-65986428D01*
X118261904Y-65986428D02*
X118071428Y-65938809D01*
X118071428Y-65938809D02*
X117976190Y-65891190D01*
X117976190Y-65891190D02*
X117928571Y-65843571D01*
X117928571Y-65843571D02*
X117880952Y-65748333D01*
X117880952Y-65748333D02*
X117880952Y-65653095D01*
X117880952Y-65653095D02*
X117928571Y-65557857D01*
X117928571Y-65557857D02*
X117976190Y-65510238D01*
X117976190Y-65510238D02*
X118071428Y-65462619D01*
X118071428Y-65462619D02*
X118309523Y-65462619D01*
X118309523Y-65462619D02*
X118452380Y-65510238D01*
X118833333Y-65557857D02*
X118880952Y-65510238D01*
X118880952Y-65510238D02*
X118976190Y-65462619D01*
X118976190Y-65462619D02*
X119214285Y-65462619D01*
X119214285Y-65462619D02*
X119309523Y-65510238D01*
X119309523Y-65510238D02*
X119357142Y-65557857D01*
X119357142Y-65557857D02*
X119404761Y-65653095D01*
X119404761Y-65653095D02*
X119404761Y-65748333D01*
X119404761Y-65748333D02*
X119357142Y-65891190D01*
X119357142Y-65891190D02*
X118785714Y-66462619D01*
X118785714Y-66462619D02*
X119404761Y-66462619D01*
X119976190Y-65891190D02*
X119880952Y-65843571D01*
X119880952Y-65843571D02*
X119833333Y-65795952D01*
X119833333Y-65795952D02*
X119785714Y-65700714D01*
X119785714Y-65700714D02*
X119785714Y-65653095D01*
X119785714Y-65653095D02*
X119833333Y-65557857D01*
X119833333Y-65557857D02*
X119880952Y-65510238D01*
X119880952Y-65510238D02*
X119976190Y-65462619D01*
X119976190Y-65462619D02*
X120166666Y-65462619D01*
X120166666Y-65462619D02*
X120261904Y-65510238D01*
X120261904Y-65510238D02*
X120309523Y-65557857D01*
X120309523Y-65557857D02*
X120357142Y-65653095D01*
X120357142Y-65653095D02*
X120357142Y-65700714D01*
X120357142Y-65700714D02*
X120309523Y-65795952D01*
X120309523Y-65795952D02*
X120261904Y-65843571D01*
X120261904Y-65843571D02*
X120166666Y-65891190D01*
X120166666Y-65891190D02*
X119976190Y-65891190D01*
X119976190Y-65891190D02*
X119880952Y-65938809D01*
X119880952Y-65938809D02*
X119833333Y-65986428D01*
X119833333Y-65986428D02*
X119785714Y-66081666D01*
X119785714Y-66081666D02*
X119785714Y-66272142D01*
X119785714Y-66272142D02*
X119833333Y-66367380D01*
X119833333Y-66367380D02*
X119880952Y-66415000D01*
X119880952Y-66415000D02*
X119976190Y-66462619D01*
X119976190Y-66462619D02*
X120166666Y-66462619D01*
X120166666Y-66462619D02*
X120261904Y-66415000D01*
X120261904Y-66415000D02*
X120309523Y-66367380D01*
X120309523Y-66367380D02*
X120357142Y-66272142D01*
X120357142Y-66272142D02*
X120357142Y-66081666D01*
X120357142Y-66081666D02*
X120309523Y-65986428D01*
X120309523Y-65986428D02*
X120261904Y-65938809D01*
X120261904Y-65938809D02*
X120166666Y-65891190D01*
X121309523Y-66462619D02*
X120738095Y-66462619D01*
X121023809Y-66462619D02*
X121023809Y-65462619D01*
X121023809Y-65462619D02*
X120928571Y-65605476D01*
X120928571Y-65605476D02*
X120833333Y-65700714D01*
X120833333Y-65700714D02*
X120738095Y-65748333D01*
X121690476Y-65557857D02*
X121738095Y-65510238D01*
X121738095Y-65510238D02*
X121833333Y-65462619D01*
X121833333Y-65462619D02*
X122071428Y-65462619D01*
X122071428Y-65462619D02*
X122166666Y-65510238D01*
X122166666Y-65510238D02*
X122214285Y-65557857D01*
X122214285Y-65557857D02*
X122261904Y-65653095D01*
X122261904Y-65653095D02*
X122261904Y-65748333D01*
X122261904Y-65748333D02*
X122214285Y-65891190D01*
X122214285Y-65891190D02*
X121642857Y-66462619D01*
X121642857Y-66462619D02*
X122261904Y-66462619D01*
X123023809Y-65938809D02*
X123166666Y-65986428D01*
X123166666Y-65986428D02*
X123214285Y-66034047D01*
X123214285Y-66034047D02*
X123261904Y-66129285D01*
X123261904Y-66129285D02*
X123261904Y-66272142D01*
X123261904Y-66272142D02*
X123214285Y-66367380D01*
X123214285Y-66367380D02*
X123166666Y-66415000D01*
X123166666Y-66415000D02*
X123071428Y-66462619D01*
X123071428Y-66462619D02*
X122690476Y-66462619D01*
X122690476Y-66462619D02*
X122690476Y-65462619D01*
X122690476Y-65462619D02*
X123023809Y-65462619D01*
X123023809Y-65462619D02*
X123119047Y-65510238D01*
X123119047Y-65510238D02*
X123166666Y-65557857D01*
X123166666Y-65557857D02*
X123214285Y-65653095D01*
X123214285Y-65653095D02*
X123214285Y-65748333D01*
X123214285Y-65748333D02*
X123166666Y-65843571D01*
X123166666Y-65843571D02*
X123119047Y-65891190D01*
X123119047Y-65891190D02*
X123023809Y-65938809D01*
X123023809Y-65938809D02*
X122690476Y-65938809D01*
D11*
X124435714Y-72062619D02*
X123864286Y-72062619D01*
X124150000Y-72062619D02*
X124150000Y-71062619D01*
X124150000Y-71062619D02*
X124054762Y-71205476D01*
X124054762Y-71205476D02*
X123959524Y-71300714D01*
X123959524Y-71300714D02*
X123864286Y-71348333D01*
D12*
G04 #@! TO.C,D4*
X149261905Y-103962619D02*
X149261905Y-102962619D01*
X149261905Y-102962619D02*
X149500000Y-102962619D01*
X149500000Y-102962619D02*
X149642857Y-103010238D01*
X149642857Y-103010238D02*
X149738095Y-103105476D01*
X149738095Y-103105476D02*
X149785714Y-103200714D01*
X149785714Y-103200714D02*
X149833333Y-103391190D01*
X149833333Y-103391190D02*
X149833333Y-103534047D01*
X149833333Y-103534047D02*
X149785714Y-103724523D01*
X149785714Y-103724523D02*
X149738095Y-103819761D01*
X149738095Y-103819761D02*
X149642857Y-103915000D01*
X149642857Y-103915000D02*
X149500000Y-103962619D01*
X149500000Y-103962619D02*
X149261905Y-103962619D01*
X150690476Y-103295952D02*
X150690476Y-103962619D01*
X150452381Y-102915000D02*
X150214286Y-103629285D01*
X150214286Y-103629285D02*
X150833333Y-103629285D01*
X146690476Y-95462619D02*
X146928571Y-96462619D01*
X146928571Y-96462619D02*
X147119047Y-95748333D01*
X147119047Y-95748333D02*
X147309523Y-96462619D01*
X147309523Y-96462619D02*
X147547619Y-95462619D01*
X147880952Y-96415000D02*
X148023809Y-96462619D01*
X148023809Y-96462619D02*
X148261904Y-96462619D01*
X148261904Y-96462619D02*
X148357142Y-96415000D01*
X148357142Y-96415000D02*
X148404761Y-96367380D01*
X148404761Y-96367380D02*
X148452380Y-96272142D01*
X148452380Y-96272142D02*
X148452380Y-96176904D01*
X148452380Y-96176904D02*
X148404761Y-96081666D01*
X148404761Y-96081666D02*
X148357142Y-96034047D01*
X148357142Y-96034047D02*
X148261904Y-95986428D01*
X148261904Y-95986428D02*
X148071428Y-95938809D01*
X148071428Y-95938809D02*
X147976190Y-95891190D01*
X147976190Y-95891190D02*
X147928571Y-95843571D01*
X147928571Y-95843571D02*
X147880952Y-95748333D01*
X147880952Y-95748333D02*
X147880952Y-95653095D01*
X147880952Y-95653095D02*
X147928571Y-95557857D01*
X147928571Y-95557857D02*
X147976190Y-95510238D01*
X147976190Y-95510238D02*
X148071428Y-95462619D01*
X148071428Y-95462619D02*
X148309523Y-95462619D01*
X148309523Y-95462619D02*
X148452380Y-95510238D01*
X148833333Y-95557857D02*
X148880952Y-95510238D01*
X148880952Y-95510238D02*
X148976190Y-95462619D01*
X148976190Y-95462619D02*
X149214285Y-95462619D01*
X149214285Y-95462619D02*
X149309523Y-95510238D01*
X149309523Y-95510238D02*
X149357142Y-95557857D01*
X149357142Y-95557857D02*
X149404761Y-95653095D01*
X149404761Y-95653095D02*
X149404761Y-95748333D01*
X149404761Y-95748333D02*
X149357142Y-95891190D01*
X149357142Y-95891190D02*
X148785714Y-96462619D01*
X148785714Y-96462619D02*
X149404761Y-96462619D01*
X149976190Y-95891190D02*
X149880952Y-95843571D01*
X149880952Y-95843571D02*
X149833333Y-95795952D01*
X149833333Y-95795952D02*
X149785714Y-95700714D01*
X149785714Y-95700714D02*
X149785714Y-95653095D01*
X149785714Y-95653095D02*
X149833333Y-95557857D01*
X149833333Y-95557857D02*
X149880952Y-95510238D01*
X149880952Y-95510238D02*
X149976190Y-95462619D01*
X149976190Y-95462619D02*
X150166666Y-95462619D01*
X150166666Y-95462619D02*
X150261904Y-95510238D01*
X150261904Y-95510238D02*
X150309523Y-95557857D01*
X150309523Y-95557857D02*
X150357142Y-95653095D01*
X150357142Y-95653095D02*
X150357142Y-95700714D01*
X150357142Y-95700714D02*
X150309523Y-95795952D01*
X150309523Y-95795952D02*
X150261904Y-95843571D01*
X150261904Y-95843571D02*
X150166666Y-95891190D01*
X150166666Y-95891190D02*
X149976190Y-95891190D01*
X149976190Y-95891190D02*
X149880952Y-95938809D01*
X149880952Y-95938809D02*
X149833333Y-95986428D01*
X149833333Y-95986428D02*
X149785714Y-96081666D01*
X149785714Y-96081666D02*
X149785714Y-96272142D01*
X149785714Y-96272142D02*
X149833333Y-96367380D01*
X149833333Y-96367380D02*
X149880952Y-96415000D01*
X149880952Y-96415000D02*
X149976190Y-96462619D01*
X149976190Y-96462619D02*
X150166666Y-96462619D01*
X150166666Y-96462619D02*
X150261904Y-96415000D01*
X150261904Y-96415000D02*
X150309523Y-96367380D01*
X150309523Y-96367380D02*
X150357142Y-96272142D01*
X150357142Y-96272142D02*
X150357142Y-96081666D01*
X150357142Y-96081666D02*
X150309523Y-95986428D01*
X150309523Y-95986428D02*
X150261904Y-95938809D01*
X150261904Y-95938809D02*
X150166666Y-95891190D01*
X151309523Y-96462619D02*
X150738095Y-96462619D01*
X151023809Y-96462619D02*
X151023809Y-95462619D01*
X151023809Y-95462619D02*
X150928571Y-95605476D01*
X150928571Y-95605476D02*
X150833333Y-95700714D01*
X150833333Y-95700714D02*
X150738095Y-95748333D01*
X151690476Y-95557857D02*
X151738095Y-95510238D01*
X151738095Y-95510238D02*
X151833333Y-95462619D01*
X151833333Y-95462619D02*
X152071428Y-95462619D01*
X152071428Y-95462619D02*
X152166666Y-95510238D01*
X152166666Y-95510238D02*
X152214285Y-95557857D01*
X152214285Y-95557857D02*
X152261904Y-95653095D01*
X152261904Y-95653095D02*
X152261904Y-95748333D01*
X152261904Y-95748333D02*
X152214285Y-95891190D01*
X152214285Y-95891190D02*
X151642857Y-96462619D01*
X151642857Y-96462619D02*
X152261904Y-96462619D01*
X153023809Y-95938809D02*
X153166666Y-95986428D01*
X153166666Y-95986428D02*
X153214285Y-96034047D01*
X153214285Y-96034047D02*
X153261904Y-96129285D01*
X153261904Y-96129285D02*
X153261904Y-96272142D01*
X153261904Y-96272142D02*
X153214285Y-96367380D01*
X153214285Y-96367380D02*
X153166666Y-96415000D01*
X153166666Y-96415000D02*
X153071428Y-96462619D01*
X153071428Y-96462619D02*
X152690476Y-96462619D01*
X152690476Y-96462619D02*
X152690476Y-95462619D01*
X152690476Y-95462619D02*
X153023809Y-95462619D01*
X153023809Y-95462619D02*
X153119047Y-95510238D01*
X153119047Y-95510238D02*
X153166666Y-95557857D01*
X153166666Y-95557857D02*
X153214285Y-95653095D01*
X153214285Y-95653095D02*
X153214285Y-95748333D01*
X153214285Y-95748333D02*
X153166666Y-95843571D01*
X153166666Y-95843571D02*
X153119047Y-95891190D01*
X153119047Y-95891190D02*
X153023809Y-95938809D01*
X153023809Y-95938809D02*
X152690476Y-95938809D01*
D11*
X154435714Y-102062619D02*
X153864286Y-102062619D01*
X154150000Y-102062619D02*
X154150000Y-101062619D01*
X154150000Y-101062619D02*
X154054762Y-101205476D01*
X154054762Y-101205476D02*
X153959524Y-101300714D01*
X153959524Y-101300714D02*
X153864286Y-101348333D01*
D12*
G04 #@! TO.C,D3*
X119261905Y-103962619D02*
X119261905Y-102962619D01*
X119261905Y-102962619D02*
X119500000Y-102962619D01*
X119500000Y-102962619D02*
X119642857Y-103010238D01*
X119642857Y-103010238D02*
X119738095Y-103105476D01*
X119738095Y-103105476D02*
X119785714Y-103200714D01*
X119785714Y-103200714D02*
X119833333Y-103391190D01*
X119833333Y-103391190D02*
X119833333Y-103534047D01*
X119833333Y-103534047D02*
X119785714Y-103724523D01*
X119785714Y-103724523D02*
X119738095Y-103819761D01*
X119738095Y-103819761D02*
X119642857Y-103915000D01*
X119642857Y-103915000D02*
X119500000Y-103962619D01*
X119500000Y-103962619D02*
X119261905Y-103962619D01*
X120166667Y-102962619D02*
X120785714Y-102962619D01*
X120785714Y-102962619D02*
X120452381Y-103343571D01*
X120452381Y-103343571D02*
X120595238Y-103343571D01*
X120595238Y-103343571D02*
X120690476Y-103391190D01*
X120690476Y-103391190D02*
X120738095Y-103438809D01*
X120738095Y-103438809D02*
X120785714Y-103534047D01*
X120785714Y-103534047D02*
X120785714Y-103772142D01*
X120785714Y-103772142D02*
X120738095Y-103867380D01*
X120738095Y-103867380D02*
X120690476Y-103915000D01*
X120690476Y-103915000D02*
X120595238Y-103962619D01*
X120595238Y-103962619D02*
X120309524Y-103962619D01*
X120309524Y-103962619D02*
X120214286Y-103915000D01*
X120214286Y-103915000D02*
X120166667Y-103867380D01*
X116690476Y-95462619D02*
X116928571Y-96462619D01*
X116928571Y-96462619D02*
X117119047Y-95748333D01*
X117119047Y-95748333D02*
X117309523Y-96462619D01*
X117309523Y-96462619D02*
X117547619Y-95462619D01*
X117880952Y-96415000D02*
X118023809Y-96462619D01*
X118023809Y-96462619D02*
X118261904Y-96462619D01*
X118261904Y-96462619D02*
X118357142Y-96415000D01*
X118357142Y-96415000D02*
X118404761Y-96367380D01*
X118404761Y-96367380D02*
X118452380Y-96272142D01*
X118452380Y-96272142D02*
X118452380Y-96176904D01*
X118452380Y-96176904D02*
X118404761Y-96081666D01*
X118404761Y-96081666D02*
X118357142Y-96034047D01*
X118357142Y-96034047D02*
X118261904Y-95986428D01*
X118261904Y-95986428D02*
X118071428Y-95938809D01*
X118071428Y-95938809D02*
X117976190Y-95891190D01*
X117976190Y-95891190D02*
X117928571Y-95843571D01*
X117928571Y-95843571D02*
X117880952Y-95748333D01*
X117880952Y-95748333D02*
X117880952Y-95653095D01*
X117880952Y-95653095D02*
X117928571Y-95557857D01*
X117928571Y-95557857D02*
X117976190Y-95510238D01*
X117976190Y-95510238D02*
X118071428Y-95462619D01*
X118071428Y-95462619D02*
X118309523Y-95462619D01*
X118309523Y-95462619D02*
X118452380Y-95510238D01*
X118833333Y-95557857D02*
X118880952Y-95510238D01*
X118880952Y-95510238D02*
X118976190Y-95462619D01*
X118976190Y-95462619D02*
X119214285Y-95462619D01*
X119214285Y-95462619D02*
X119309523Y-95510238D01*
X119309523Y-95510238D02*
X119357142Y-95557857D01*
X119357142Y-95557857D02*
X119404761Y-95653095D01*
X119404761Y-95653095D02*
X119404761Y-95748333D01*
X119404761Y-95748333D02*
X119357142Y-95891190D01*
X119357142Y-95891190D02*
X118785714Y-96462619D01*
X118785714Y-96462619D02*
X119404761Y-96462619D01*
X119976190Y-95891190D02*
X119880952Y-95843571D01*
X119880952Y-95843571D02*
X119833333Y-95795952D01*
X119833333Y-95795952D02*
X119785714Y-95700714D01*
X119785714Y-95700714D02*
X119785714Y-95653095D01*
X119785714Y-95653095D02*
X119833333Y-95557857D01*
X119833333Y-95557857D02*
X119880952Y-95510238D01*
X119880952Y-95510238D02*
X119976190Y-95462619D01*
X119976190Y-95462619D02*
X120166666Y-95462619D01*
X120166666Y-95462619D02*
X120261904Y-95510238D01*
X120261904Y-95510238D02*
X120309523Y-95557857D01*
X120309523Y-95557857D02*
X120357142Y-95653095D01*
X120357142Y-95653095D02*
X120357142Y-95700714D01*
X120357142Y-95700714D02*
X120309523Y-95795952D01*
X120309523Y-95795952D02*
X120261904Y-95843571D01*
X120261904Y-95843571D02*
X120166666Y-95891190D01*
X120166666Y-95891190D02*
X119976190Y-95891190D01*
X119976190Y-95891190D02*
X119880952Y-95938809D01*
X119880952Y-95938809D02*
X119833333Y-95986428D01*
X119833333Y-95986428D02*
X119785714Y-96081666D01*
X119785714Y-96081666D02*
X119785714Y-96272142D01*
X119785714Y-96272142D02*
X119833333Y-96367380D01*
X119833333Y-96367380D02*
X119880952Y-96415000D01*
X119880952Y-96415000D02*
X119976190Y-96462619D01*
X119976190Y-96462619D02*
X120166666Y-96462619D01*
X120166666Y-96462619D02*
X120261904Y-96415000D01*
X120261904Y-96415000D02*
X120309523Y-96367380D01*
X120309523Y-96367380D02*
X120357142Y-96272142D01*
X120357142Y-96272142D02*
X120357142Y-96081666D01*
X120357142Y-96081666D02*
X120309523Y-95986428D01*
X120309523Y-95986428D02*
X120261904Y-95938809D01*
X120261904Y-95938809D02*
X120166666Y-95891190D01*
X121309523Y-96462619D02*
X120738095Y-96462619D01*
X121023809Y-96462619D02*
X121023809Y-95462619D01*
X121023809Y-95462619D02*
X120928571Y-95605476D01*
X120928571Y-95605476D02*
X120833333Y-95700714D01*
X120833333Y-95700714D02*
X120738095Y-95748333D01*
X121690476Y-95557857D02*
X121738095Y-95510238D01*
X121738095Y-95510238D02*
X121833333Y-95462619D01*
X121833333Y-95462619D02*
X122071428Y-95462619D01*
X122071428Y-95462619D02*
X122166666Y-95510238D01*
X122166666Y-95510238D02*
X122214285Y-95557857D01*
X122214285Y-95557857D02*
X122261904Y-95653095D01*
X122261904Y-95653095D02*
X122261904Y-95748333D01*
X122261904Y-95748333D02*
X122214285Y-95891190D01*
X122214285Y-95891190D02*
X121642857Y-96462619D01*
X121642857Y-96462619D02*
X122261904Y-96462619D01*
X123023809Y-95938809D02*
X123166666Y-95986428D01*
X123166666Y-95986428D02*
X123214285Y-96034047D01*
X123214285Y-96034047D02*
X123261904Y-96129285D01*
X123261904Y-96129285D02*
X123261904Y-96272142D01*
X123261904Y-96272142D02*
X123214285Y-96367380D01*
X123214285Y-96367380D02*
X123166666Y-96415000D01*
X123166666Y-96415000D02*
X123071428Y-96462619D01*
X123071428Y-96462619D02*
X122690476Y-96462619D01*
X122690476Y-96462619D02*
X122690476Y-95462619D01*
X122690476Y-95462619D02*
X123023809Y-95462619D01*
X123023809Y-95462619D02*
X123119047Y-95510238D01*
X123119047Y-95510238D02*
X123166666Y-95557857D01*
X123166666Y-95557857D02*
X123214285Y-95653095D01*
X123214285Y-95653095D02*
X123214285Y-95748333D01*
X123214285Y-95748333D02*
X123166666Y-95843571D01*
X123166666Y-95843571D02*
X123119047Y-95891190D01*
X123119047Y-95891190D02*
X123023809Y-95938809D01*
X123023809Y-95938809D02*
X122690476Y-95938809D01*
D11*
X124435714Y-102062619D02*
X123864286Y-102062619D01*
X124150000Y-102062619D02*
X124150000Y-101062619D01*
X124150000Y-101062619D02*
X124054762Y-101205476D01*
X124054762Y-101205476D02*
X123959524Y-101300714D01*
X123959524Y-101300714D02*
X123864286Y-101348333D01*
D12*
G04 #@! TO.C,U1*
X138573095Y-84547619D02*
X138573095Y-85357142D01*
X138573095Y-85357142D02*
X138620714Y-85452380D01*
X138620714Y-85452380D02*
X138668333Y-85500000D01*
X138668333Y-85500000D02*
X138763571Y-85547619D01*
X138763571Y-85547619D02*
X138954047Y-85547619D01*
X138954047Y-85547619D02*
X139049285Y-85500000D01*
X139049285Y-85500000D02*
X139096904Y-85452380D01*
X139096904Y-85452380D02*
X139144523Y-85357142D01*
X139144523Y-85357142D02*
X139144523Y-84547619D01*
X140144523Y-85547619D02*
X139573095Y-85547619D01*
X139858809Y-85547619D02*
X139858809Y-84547619D01*
X139858809Y-84547619D02*
X139763571Y-84690476D01*
X139763571Y-84690476D02*
X139668333Y-84785714D01*
X139668333Y-84785714D02*
X139573095Y-84833333D01*
G04 #@! TO.C,D1*
X149261905Y-73962619D02*
X149261905Y-72962619D01*
X149261905Y-72962619D02*
X149500000Y-72962619D01*
X149500000Y-72962619D02*
X149642857Y-73010238D01*
X149642857Y-73010238D02*
X149738095Y-73105476D01*
X149738095Y-73105476D02*
X149785714Y-73200714D01*
X149785714Y-73200714D02*
X149833333Y-73391190D01*
X149833333Y-73391190D02*
X149833333Y-73534047D01*
X149833333Y-73534047D02*
X149785714Y-73724523D01*
X149785714Y-73724523D02*
X149738095Y-73819761D01*
X149738095Y-73819761D02*
X149642857Y-73915000D01*
X149642857Y-73915000D02*
X149500000Y-73962619D01*
X149500000Y-73962619D02*
X149261905Y-73962619D01*
X150785714Y-73962619D02*
X150214286Y-73962619D01*
X150500000Y-73962619D02*
X150500000Y-72962619D01*
X150500000Y-72962619D02*
X150404762Y-73105476D01*
X150404762Y-73105476D02*
X150309524Y-73200714D01*
X150309524Y-73200714D02*
X150214286Y-73248333D01*
X146690476Y-65462619D02*
X146928571Y-66462619D01*
X146928571Y-66462619D02*
X147119047Y-65748333D01*
X147119047Y-65748333D02*
X147309523Y-66462619D01*
X147309523Y-66462619D02*
X147547619Y-65462619D01*
X147880952Y-66415000D02*
X148023809Y-66462619D01*
X148023809Y-66462619D02*
X148261904Y-66462619D01*
X148261904Y-66462619D02*
X148357142Y-66415000D01*
X148357142Y-66415000D02*
X148404761Y-66367380D01*
X148404761Y-66367380D02*
X148452380Y-66272142D01*
X148452380Y-66272142D02*
X148452380Y-66176904D01*
X148452380Y-66176904D02*
X148404761Y-66081666D01*
X148404761Y-66081666D02*
X148357142Y-66034047D01*
X148357142Y-66034047D02*
X148261904Y-65986428D01*
X148261904Y-65986428D02*
X148071428Y-65938809D01*
X148071428Y-65938809D02*
X147976190Y-65891190D01*
X147976190Y-65891190D02*
X147928571Y-65843571D01*
X147928571Y-65843571D02*
X147880952Y-65748333D01*
X147880952Y-65748333D02*
X147880952Y-65653095D01*
X147880952Y-65653095D02*
X147928571Y-65557857D01*
X147928571Y-65557857D02*
X147976190Y-65510238D01*
X147976190Y-65510238D02*
X148071428Y-65462619D01*
X148071428Y-65462619D02*
X148309523Y-65462619D01*
X148309523Y-65462619D02*
X148452380Y-65510238D01*
X148833333Y-65557857D02*
X148880952Y-65510238D01*
X148880952Y-65510238D02*
X148976190Y-65462619D01*
X148976190Y-65462619D02*
X149214285Y-65462619D01*
X149214285Y-65462619D02*
X149309523Y-65510238D01*
X149309523Y-65510238D02*
X149357142Y-65557857D01*
X149357142Y-65557857D02*
X149404761Y-65653095D01*
X149404761Y-65653095D02*
X149404761Y-65748333D01*
X149404761Y-65748333D02*
X149357142Y-65891190D01*
X149357142Y-65891190D02*
X148785714Y-66462619D01*
X148785714Y-66462619D02*
X149404761Y-66462619D01*
X149976190Y-65891190D02*
X149880952Y-65843571D01*
X149880952Y-65843571D02*
X149833333Y-65795952D01*
X149833333Y-65795952D02*
X149785714Y-65700714D01*
X149785714Y-65700714D02*
X149785714Y-65653095D01*
X149785714Y-65653095D02*
X149833333Y-65557857D01*
X149833333Y-65557857D02*
X149880952Y-65510238D01*
X149880952Y-65510238D02*
X149976190Y-65462619D01*
X149976190Y-65462619D02*
X150166666Y-65462619D01*
X150166666Y-65462619D02*
X150261904Y-65510238D01*
X150261904Y-65510238D02*
X150309523Y-65557857D01*
X150309523Y-65557857D02*
X150357142Y-65653095D01*
X150357142Y-65653095D02*
X150357142Y-65700714D01*
X150357142Y-65700714D02*
X150309523Y-65795952D01*
X150309523Y-65795952D02*
X150261904Y-65843571D01*
X150261904Y-65843571D02*
X150166666Y-65891190D01*
X150166666Y-65891190D02*
X149976190Y-65891190D01*
X149976190Y-65891190D02*
X149880952Y-65938809D01*
X149880952Y-65938809D02*
X149833333Y-65986428D01*
X149833333Y-65986428D02*
X149785714Y-66081666D01*
X149785714Y-66081666D02*
X149785714Y-66272142D01*
X149785714Y-66272142D02*
X149833333Y-66367380D01*
X149833333Y-66367380D02*
X149880952Y-66415000D01*
X149880952Y-66415000D02*
X149976190Y-66462619D01*
X149976190Y-66462619D02*
X150166666Y-66462619D01*
X150166666Y-66462619D02*
X150261904Y-66415000D01*
X150261904Y-66415000D02*
X150309523Y-66367380D01*
X150309523Y-66367380D02*
X150357142Y-66272142D01*
X150357142Y-66272142D02*
X150357142Y-66081666D01*
X150357142Y-66081666D02*
X150309523Y-65986428D01*
X150309523Y-65986428D02*
X150261904Y-65938809D01*
X150261904Y-65938809D02*
X150166666Y-65891190D01*
X151309523Y-66462619D02*
X150738095Y-66462619D01*
X151023809Y-66462619D02*
X151023809Y-65462619D01*
X151023809Y-65462619D02*
X150928571Y-65605476D01*
X150928571Y-65605476D02*
X150833333Y-65700714D01*
X150833333Y-65700714D02*
X150738095Y-65748333D01*
X151690476Y-65557857D02*
X151738095Y-65510238D01*
X151738095Y-65510238D02*
X151833333Y-65462619D01*
X151833333Y-65462619D02*
X152071428Y-65462619D01*
X152071428Y-65462619D02*
X152166666Y-65510238D01*
X152166666Y-65510238D02*
X152214285Y-65557857D01*
X152214285Y-65557857D02*
X152261904Y-65653095D01*
X152261904Y-65653095D02*
X152261904Y-65748333D01*
X152261904Y-65748333D02*
X152214285Y-65891190D01*
X152214285Y-65891190D02*
X151642857Y-66462619D01*
X151642857Y-66462619D02*
X152261904Y-66462619D01*
X153023809Y-65938809D02*
X153166666Y-65986428D01*
X153166666Y-65986428D02*
X153214285Y-66034047D01*
X153214285Y-66034047D02*
X153261904Y-66129285D01*
X153261904Y-66129285D02*
X153261904Y-66272142D01*
X153261904Y-66272142D02*
X153214285Y-66367380D01*
X153214285Y-66367380D02*
X153166666Y-66415000D01*
X153166666Y-66415000D02*
X153071428Y-66462619D01*
X153071428Y-66462619D02*
X152690476Y-66462619D01*
X152690476Y-66462619D02*
X152690476Y-65462619D01*
X152690476Y-65462619D02*
X153023809Y-65462619D01*
X153023809Y-65462619D02*
X153119047Y-65510238D01*
X153119047Y-65510238D02*
X153166666Y-65557857D01*
X153166666Y-65557857D02*
X153214285Y-65653095D01*
X153214285Y-65653095D02*
X153214285Y-65748333D01*
X153214285Y-65748333D02*
X153166666Y-65843571D01*
X153166666Y-65843571D02*
X153119047Y-65891190D01*
X153119047Y-65891190D02*
X153023809Y-65938809D01*
X153023809Y-65938809D02*
X152690476Y-65938809D01*
D11*
X154435714Y-72062619D02*
X153864286Y-72062619D01*
X154150000Y-72062619D02*
X154150000Y-71062619D01*
X154150000Y-71062619D02*
X154054762Y-71205476D01*
X154054762Y-71205476D02*
X153959524Y-71300714D01*
X153959524Y-71300714D02*
X153864286Y-71348333D01*
D12*
G04 #@! TO.C,C3*
X127642380Y-70791666D02*
X127690000Y-70839285D01*
X127690000Y-70839285D02*
X127737619Y-70982142D01*
X127737619Y-70982142D02*
X127737619Y-71077380D01*
X127737619Y-71077380D02*
X127690000Y-71220237D01*
X127690000Y-71220237D02*
X127594761Y-71315475D01*
X127594761Y-71315475D02*
X127499523Y-71363094D01*
X127499523Y-71363094D02*
X127309047Y-71410713D01*
X127309047Y-71410713D02*
X127166190Y-71410713D01*
X127166190Y-71410713D02*
X126975714Y-71363094D01*
X126975714Y-71363094D02*
X126880476Y-71315475D01*
X126880476Y-71315475D02*
X126785238Y-71220237D01*
X126785238Y-71220237D02*
X126737619Y-71077380D01*
X126737619Y-71077380D02*
X126737619Y-70982142D01*
X126737619Y-70982142D02*
X126785238Y-70839285D01*
X126785238Y-70839285D02*
X126832857Y-70791666D01*
X126737619Y-70458332D02*
X126737619Y-69839285D01*
X126737619Y-69839285D02*
X127118571Y-70172618D01*
X127118571Y-70172618D02*
X127118571Y-70029761D01*
X127118571Y-70029761D02*
X127166190Y-69934523D01*
X127166190Y-69934523D02*
X127213809Y-69886904D01*
X127213809Y-69886904D02*
X127309047Y-69839285D01*
X127309047Y-69839285D02*
X127547142Y-69839285D01*
X127547142Y-69839285D02*
X127642380Y-69886904D01*
X127642380Y-69886904D02*
X127690000Y-69934523D01*
X127690000Y-69934523D02*
X127737619Y-70029761D01*
X127737619Y-70029761D02*
X127737619Y-70315475D01*
X127737619Y-70315475D02*
X127690000Y-70410713D01*
X127690000Y-70410713D02*
X127642380Y-70458332D01*
D13*
G04 #@! TO.C,J1*
X159355000Y-82070000D02*
X159355000Y-92290000D01*
X156695000Y-79470000D02*
X158025000Y-79470000D01*
X156695000Y-82070000D02*
X156695000Y-92290000D01*
X156695000Y-92290000D02*
X159355000Y-92290000D01*
X156695000Y-82070000D02*
X159355000Y-82070000D01*
X156695000Y-80800000D02*
X156695000Y-79470000D01*
G04 #@! TO.C,C4*
X126300000Y-100453748D02*
X126300000Y-100976252D01*
X124830000Y-100453748D02*
X124830000Y-100976252D01*
G04 #@! TO.C,R1*
X134772936Y-87010000D02*
X135227064Y-87010000D01*
X134772936Y-88480000D02*
X135227064Y-88480000D01*
G04 #@! TO.C,C2*
X156210000Y-70463748D02*
X156210000Y-70986252D01*
X154740000Y-70463748D02*
X154740000Y-70986252D01*
G04 #@! TO.C,C1*
X156300000Y-100443748D02*
X156300000Y-100966252D01*
X154830000Y-100443748D02*
X154830000Y-100966252D01*
G04 #@! TO.C,D2*
X123650000Y-72750000D02*
X116350000Y-72750000D01*
X123650000Y-67250000D02*
X116350000Y-67250000D01*
X116350000Y-67250000D02*
X116350000Y-68400000D01*
G04 #@! TO.C,D4*
X153650000Y-102750000D02*
X146350000Y-102750000D01*
X153650000Y-97250000D02*
X146350000Y-97250000D01*
X146350000Y-97250000D02*
X146350000Y-98400000D01*
G04 #@! TO.C,D3*
X123650000Y-102750000D02*
X116350000Y-102750000D01*
X123650000Y-97250000D02*
X116350000Y-97250000D01*
X116350000Y-97250000D02*
X116350000Y-98400000D01*
G04 #@! TO.C,U1*
X133045000Y-85850000D02*
X136895000Y-85850000D01*
X133495000Y-83400000D02*
X133125000Y-84300000D01*
X136445000Y-83400000D02*
X133495000Y-83400000D01*
X136775000Y-84300000D02*
X136445000Y-83400000D01*
X136895000Y-85850000D02*
X136925000Y-85700000D01*
G04 #@! TO.C,D1*
X153650000Y-72750000D02*
X146350000Y-72750000D01*
X153650000Y-67250000D02*
X146350000Y-67250000D01*
X146350000Y-67250000D02*
X146350000Y-68400000D01*
G04 #@! TO.C,C3*
X126300000Y-70423748D02*
X126300000Y-70946252D01*
X124830000Y-70423748D02*
X124830000Y-70946252D01*
G04 #@! TD*
M02*
