# WaveFront *.obj file (generated by Autodesk ATF)

mtllib base.mtl

g Body34

v -64.500003 64.000001 -7.000000
v 63.499999 64.000001 -7.000000
v 63.499999 64.000001 -2.000000
v -64.500003 64.000001 -2.000000
v 63.499999 -64.000001 -7.000000
v 63.499999 -64.000001 -2.000000
v -64.500003 -64.000001 -7.000000
v -64.500003 -64.000001 -2.000000
v -69.500003 -69.000001 -7.000000
v 68.499999 -69.000001 -7.000000
v -69.500003 69.000001 -7.000000
v 68.499999 69.000001 -7.000000
vt -12.800000 -0.000000 0.000000
vt -0.000000 0.000000 0.000000
vt -12.800000 0.500000 0.000000
vt -0.000000 0.500000 0.000000
vt -12.800000 0.000000 0.000000
vt -0.000000 0.000000 0.000000
vt -12.800000 0.500000 0.000000
vt -0.000000 0.500000 0.000000
vt -12.800000 0.000000 0.000000
vt -0.000000 0.000000 0.000000
vt -12.800000 0.500000 0.000000
vt 0.000000 0.500000 0.000000
vt -12.800000 0.000000 0.000000
vt -0.000000 0.000000 0.000000
vt -12.800000 0.500000 0.000000
vt -0.000000 0.500000 0.000000
vt 9.925000 0.353553 0.000000
vt -2.875000 0.353553 0.000000
vt 10.425000 -0.353553 0.000000
vt -3.375000 -0.353553 0.000000
vt 0.353553 -9.775000 0.000000
vt 0.353553 3.025000 0.000000
vt -0.353553 -10.275000 0.000000
vt -0.353553 3.525000 0.000000
vt -9.775000 -0.353553 0.000000
vt 3.025000 -0.353553 0.000000
vt -10.275000 0.353553 0.000000
vt 3.525000 0.353553 0.000000
vt 0.353553 10.425000 0.000000
vt -0.353553 9.925000 0.000000
vt 0.353553 -3.375000 0.000000
vt -0.353553 -2.875000 0.000000
vt 6.250000 6.550000 0.000000
vt -7.050000 7.050000 0.000000
vt -6.550000 6.550000 0.000000
vt -7.050000 -6.750000 0.000000
vt -6.550000 -6.250000 0.000000
vt 6.750000 -6.750000 0.000000
vt 6.250000 -6.250000 0.000000
vt 6.750000 7.050000 0.000000
vn 0.000000 -0.100000 0.000000
vn 0.000000 -0.100000 0.000000
vn 0.000000 -0.100000 0.000000
vn 0.000000 -0.100000 0.000000
vn -0.100000 0.000000 0.000000
vn -0.100000 0.000000 0.000000
vn -0.100000 0.000000 0.000000
vn -0.100000 0.000000 0.000000
vn -0.000000 0.100000 -0.000000
vn -0.000000 0.100000 -0.000000
vn -0.000000 0.100000 -0.000000
vn -0.000000 0.100000 -0.000000
vn 0.100000 0.000000 -0.000000
vn 0.100000 0.000000 -0.000000
vn 0.100000 0.000000 -0.000000
vn 0.100000 0.000000 -0.000000
vn 0.000000 -0.070711 0.070711
vn 0.000000 -0.070711 0.070711
vn 0.000000 -0.070711 0.070711
vn 0.000000 -0.070711 0.070711
vn -0.070711 0.000000 0.070711
vn -0.070711 0.000000 0.070711
vn -0.070711 0.000000 0.070711
vn -0.070711 0.000000 0.070711
vn 0.000000 0.070711 0.070711
vn 0.000000 0.070711 0.070711
vn 0.000000 0.070711 0.070711
vn 0.000000 0.070711 0.070711
vn 0.070711 0.000000 0.070711
vn 0.070711 0.000000 0.070711
vn 0.070711 0.000000 0.070711
vn 0.070711 0.000000 0.070711
vn -0.000000 0.000000 -0.100000
vn -0.000000 0.000000 -0.100000
vn -0.000000 0.000000 -0.100000
vn -0.000000 0.000000 -0.100000
vn -0.000000 0.000000 -0.100000
vn -0.000000 0.000000 -0.100000
vn -0.000000 0.000000 -0.100000
vn -0.000000 0.000000 -0.100000
usemtl Acetal_Resin_(White)
f 1/1/1 2/2/2 4/3/3
f 4/3/3 2/2/2 3/4/4
f 2/5/5 5/6/6 3/7/7
f 3/7/7 5/6/6 6/8/8
f 5/9/9 7/10/10 6/11/11
f 6/11/11 7/10/10 8/12/12
f 7/13/13 1/14/14 8/15/15
f 8/15/15 1/14/14 4/16/16
f 6/17/17 8/18/18 10/19/19
f 10/19/19 8/18/18 9/20/20
f 8/21/21 4/22/22 9/23/23
f 9/23/23 4/22/22 11/24/24
f 4/25/25 3/26/26 11/27/27
f 11/27/27 3/26/26 12/28/28
f 12/29/29 3/30/30 10/31/31
f 10/31/31 3/30/30 6/32/32
f 1/33/33 12/34/34 2/35/35
f 2/35/35 12/34/34 10/36/36
f 2/35/35 10/36/36 5/37/37
f 5/37/37 10/36/36 9/38/38
f 5/37/37 9/38/38 7/39/39
f 7/39/39 9/38/38 1/33/33
f 1/33/33 9/38/38 11/40/40
f 1/33/33 11/40/40 12/34/34
g Body35

v 20.250000 -35.250000 -7.000000
v -20.250000 -35.250000 -7.000000
v -18.250000 -33.250000 -5.000000
v 18.250000 -33.250000 -5.000000
v -20.250000 35.250000 -7.000000
v -18.250000 33.250000 -5.000000
v 18.250000 33.250000 -5.000000
v 20.250000 35.250000 -7.000000
v 18.250000 -33.250000 -2.000000
v 18.250000 33.250000 -2.000000
v -18.250000 -33.250000 -2.000000
v 63.499999 -64.000001 -7.000000
v -64.500003 -64.000001 -7.000000
v -64.500003 64.000001 -7.000000
v 63.499999 64.000001 -7.000000
v -18.250000 33.250000 -2.000000
v -64.500003 -64.000001 -2.000000
v 63.499999 -64.000001 -2.000000
v 63.499999 64.000001 -2.000000
v -64.500003 64.000001 -2.000000
vt -2.962500 -0.141421 0.000000
vt 1.087500 -0.141421 0.000000
vt -2.762500 0.141421 0.000000
vt 0.887500 0.141421 0.000000
vt 0.141421 1.862500 0.000000
vt -0.141421 1.662500 0.000000
vt 0.141421 -5.187500 0.000000
vt -0.141421 -4.987500 0.000000
vt -0.937500 -0.141421 0.000000
vt 2.712500 -0.141421 0.000000
vt -1.137500 0.141421 0.000000
vt 2.912500 0.141421 0.000000
vt -0.141421 5.187500 0.000000
vt -0.141421 -1.862500 0.000000
vt 0.141421 4.987500 0.000000
vt 0.141421 -1.662500 0.000000
vt -6.650000 0.200000 0.000000
vt -0.000000 0.200000 0.000000
vt -6.650000 0.500000 0.000000
vt -0.000000 0.500000 0.000000
vt -3.650000 0.200000 0.000000
vt -0.000000 0.200000 0.000000
vt -3.650000 0.500000 0.000000
vt -0.000000 0.500000 0.000000
vt -6.400000 6.400000 0.000000
vt -1.975000 3.525000 0.000000
vt 6.400000 6.400000 0.000000
vt 2.075000 3.525000 0.000000
vt 6.400000 -6.400000 0.000000
vt 2.075000 -3.525000 0.000000
vt -1.975000 -3.525000 0.000000
vt -6.400000 -6.400000 0.000000
vt -3.650000 0.200000 0.000000
vt 0.000000 0.200000 0.000000
vt -3.650000 0.500000 0.000000
vt 0.000000 0.500000 0.000000
vt -6.650000 0.200000 0.000000
vt 0.000000 0.200000 0.000000
vt -6.650000 0.500000 0.000000
vt 0.000000 0.500000 0.000000
vt 1.875000 3.325000 0.000000
vt 1.875000 -3.325000 0.000000
vt 6.400000 -6.400000 0.000000
vt -1.775000 -3.325000 0.000000
vt -6.400000 -6.400000 0.000000
vt -1.775000 3.325000 0.000000
vt -6.400000 6.400000 0.000000
vt 6.400000 6.400000 0.000000
vt 0.000000 0.000000 0.000000
vt 12.800000 0.000000 0.000000
vt 0.000000 0.500000 0.000000
vt 12.800000 0.500000 0.000000
vt 0.000000 0.000000 0.000000
vt 12.800000 -0.000000 0.000000
vt 0.000000 0.500000 0.000000
vt 12.800000 0.500000 0.000000
vt 0.000000 0.000000 0.000000
vt 12.800000 0.000000 0.000000
vt 0.000000 0.500000 0.000000
vt 12.800000 0.500000 0.000000
vt 0.000000 0.000000 0.000000
vt 12.800000 0.000000 0.000000
vt -0.000000 0.500000 0.000000
vt 12.800000 0.500000 0.000000
vn -0.000000 0.070711 -0.070711
vn -0.000000 0.070711 -0.070711
vn -0.000000 0.070711 -0.070711
vn -0.000000 0.070711 -0.070711
vn 0.070711 0.000000 -0.070711
vn 0.070711 0.000000 -0.070711
vn 0.070711 0.000000 -0.070711
vn 0.070711 0.000000 -0.070711
vn -0.000000 -0.070711 -0.070711
vn -0.000000 -0.070711 -0.070711
vn -0.000000 -0.070711 -0.070711
vn -0.000000 -0.070711 -0.070711
vn -0.070711 0.000000 -0.070711
vn -0.070711 0.000000 -0.070711
vn -0.070711 0.000000 -0.070711
vn -0.070711 0.000000 -0.070711
vn -0.100000 0.000000 0.000000
vn -0.100000 0.000000 0.000000
vn -0.100000 0.000000 0.000000
vn -0.100000 0.000000 0.000000
vn -0.000000 0.100000 -0.000000
vn -0.000000 0.100000 -0.000000
vn -0.000000 0.100000 -0.000000
vn -0.000000 0.100000 -0.000000
vn -0.000000 0.000000 -0.100000
vn -0.000000 0.000000 -0.100000
vn -0.000000 0.000000 -0.100000
vn -0.000000 0.000000 -0.100000
vn -0.000000 0.000000 -0.100000
vn -0.000000 0.000000 -0.100000
vn -0.000000 0.000000 -0.100000
vn -0.000000 0.000000 -0.100000
vn 0.000000 -0.100000 0.000000
vn 0.000000 -0.100000 0.000000
vn 0.000000 -0.100000 0.000000
vn 0.000000 -0.100000 0.000000
vn 0.100000 0.000000 0.000000
vn 0.100000 0.000000 0.000000
vn 0.100000 0.000000 0.000000
vn 0.100000 0.000000 0.000000
vn 0.000000 0.000000 0.100000
vn 0.000000 0.000000 0.100000
vn 0.000000 0.000000 0.100000
vn 0.000000 0.000000 0.100000
vn 0.000000 0.000000 0.100000
vn 0.000000 0.000000 0.100000
vn 0.000000 0.000000 0.100000
vn 0.000000 0.000000 0.100000
vn -0.100000 0.000000 0.000000
vn -0.100000 0.000000 0.000000
vn -0.100000 0.000000 0.000000
vn -0.100000 0.000000 0.000000
vn 0.000000 0.100000 0.000000
vn 0.000000 0.100000 0.000000
vn 0.000000 0.100000 0.000000
vn 0.000000 0.100000 0.000000
vn 0.100000 0.000000 -0.000000
vn 0.100000 0.000000 -0.000000
vn 0.100000 0.000000 -0.000000
vn 0.100000 0.000000 -0.000000
vn 0.000000 -0.100000 0.000000
vn 0.000000 -0.100000 0.000000
vn 0.000000 -0.100000 0.000000
vn 0.000000 -0.100000 0.000000
usemtl ABS_(White)
f 13/41/41 14/42/42 16/43/43
f 16/43/43 14/42/42 15/44/44
f 17/45/45 18/46/46 14/47/47
f 14/47/47 18/46/46 15/48/48
f 19/49/49 18/50/50 20/51/51
f 20/51/51 18/50/50 17/52/52
f 20/53/53 13/54/54 19/55/55
f 19/55/55 13/54/54 16/56/56
f 19/57/57 16/58/58 22/59/59
f 22/59/59 16/58/58 21/60/60
f 16/61/61 15/62/62 21/63/63
f 21/63/63 15/62/62 23/64/64
f 25/65/65 14/66/66 24/67/67
f 24/67/67 14/66/66 13/68/68
f 24/67/67 13/68/68 27/69/69
f 27/69/69 13/68/68 20/70/70
f 27/69/69 20/70/70 17/71/71
f 25/65/65 26/72/72 14/66/66
f 14/66/66 26/72/72 17/71/71
f 17/71/71 26/72/72 27/69/69
f 18/73/73 19/74/74 28/75/75
f 28/75/75 19/74/74 22/76/76
f 15/77/77 18/78/78 23/79/79
f 23/79/79 18/78/78 28/80/80
f 22/81/81 21/82/82 30/83/83
f 30/83/83 21/82/82 23/84/84
f 30/83/83 23/84/84 29/85/85
f 29/85/85 23/84/84 28/86/86
f 29/85/85 28/86/86 32/87/87
f 32/87/87 28/86/86 31/88/88
f 31/88/88 28/86/86 22/81/81
f 31/88/88 22/81/81 30/83/83
f 26/89/89 25/90/90 32/91/91
f 32/91/91 25/90/90 29/92/92
f 27/93/93 26/94/94 31/95/95
f 31/95/95 26/94/94 32/96/96
f 24/97/97 27/98/98 30/99/99
f 30/99/99 27/98/98 31/100/100
f 25/101/101 24/102/102 29/103/103
f 29/103/103 24/102/102 30/104/104
# 32 vertices
# 104 texture params
# 104 normals
# 64 facets

# 2 groups
