# WaveFront *.obj file (generated by Autodesk ATF)

mtllib lid.mtl

g Body23

v 64.000001 64.000001 136.000000
v -64.000001 64.000001 136.000000
v -64.000001 64.000001 131.000000
v 64.000001 64.000001 131.000000
v -64.000001 -64.000001 136.000000
v -64.000001 -64.000001 131.000000
v 64.000001 -64.000001 136.000000
v 64.000001 -64.000001 131.000000
v 69.000001 -69.000001 136.000000
v -69.000001 -69.000001 136.000000
v 69.000001 69.000001 136.000000
v -69.000001 69.000001 136.000000
vt -12.800000 0.000000 0.000000
vt -0.000000 0.000000 0.000000
vt -12.800000 0.500000 0.000000
vt -0.000000 0.500000 0.000000
vt -12.800000 0.000000 0.000000
vt -0.000000 0.000000 0.000000
vt -12.800000 0.500000 0.000000
vt -0.000000 0.500000 0.000000
vt -12.800000 0.000000 0.000000
vt 0.000000 0.000000 0.000000
vt -12.800000 0.500000 0.000000
vt -0.000000 0.500000 0.000000
vt -12.800000 0.000000 0.000000
vt 0.000000 0.000000 0.000000
vt -12.800000 0.500000 0.000000
vt -0.000000 0.500000 0.000000
vt 9.925000 0.353553 0.000000
vt -2.875000 0.353553 0.000000
vt 10.425000 -0.353553 0.000000
vt -3.375000 -0.353553 0.000000
vt 0.353553 -9.775000 0.000000
vt 0.353553 3.025000 0.000000
vt -0.353553 -10.275000 0.000000
vt -0.353553 3.525000 0.000000
vt -9.775000 -0.353553 0.000000
vt 3.025000 -0.353553 0.000000
vt -10.275000 0.353553 0.000000
vt 3.525000 0.353553 0.000000
vt 0.353553 10.425000 0.000000
vt -0.353553 9.925000 0.000000
vt 0.353553 -3.375000 0.000000
vt -0.353553 -2.875000 0.000000
vt 6.250000 6.550000 0.000000
vt -7.050000 7.050000 0.000000
vt -6.550000 6.550000 0.000000
vt -7.050000 -6.750000 0.000000
vt -6.550000 -6.250000 0.000000
vt 6.750000 -6.750000 0.000000
vt 6.250000 -6.250000 0.000000
vt 6.750000 7.050000 0.000000
vn 0.000000 -0.100000 0.000000
vn 0.000000 -0.100000 0.000000
vn 0.000000 -0.100000 0.000000
vn 0.000000 -0.100000 0.000000
vn 0.100000 0.000000 0.000000
vn 0.100000 0.000000 0.000000
vn 0.100000 0.000000 0.000000
vn 0.100000 0.000000 0.000000
vn -0.000000 0.100000 -0.000000
vn -0.000000 0.100000 -0.000000
vn -0.000000 0.100000 -0.000000
vn -0.000000 0.100000 -0.000000
vn -0.100000 0.000000 -0.000000
vn -0.100000 0.000000 -0.000000
vn -0.100000 0.000000 -0.000000
vn -0.100000 0.000000 -0.000000
vn 0.000000 -0.070711 -0.070711
vn 0.000000 -0.070711 -0.070711
vn 0.000000 -0.070711 -0.070711
vn 0.000000 -0.070711 -0.070711
vn 0.070711 0.000000 -0.070711
vn 0.070711 0.000000 -0.070711
vn 0.070711 0.000000 -0.070711
vn 0.070711 0.000000 -0.070711
vn 0.000000 0.070711 -0.070711
vn 0.000000 0.070711 -0.070711
vn 0.000000 0.070711 -0.070711
vn 0.000000 0.070711 -0.070711
vn -0.070711 0.000000 -0.070711
vn -0.070711 0.000000 -0.070711
vn -0.070711 0.000000 -0.070711
vn -0.070711 0.000000 -0.070711
vn 0.000000 0.000000 0.100000
vn 0.000000 0.000000 0.100000
vn 0.000000 0.000000 0.100000
vn 0.000000 0.000000 0.100000
vn 0.000000 0.000000 0.100000
vn 0.000000 0.000000 0.100000
vn 0.000000 0.000000 0.100000
vn 0.000000 0.000000 0.100000
usemtl Acetal_Resin_(White)
f 1/1/1 2/2/2 4/3/3
f 4/3/3 2/2/2 3/4/4
f 2/5/5 5/6/6 3/7/7
f 3/7/7 5/6/6 6/8/8
f 5/9/9 7/10/10 6/11/11
f 6/11/11 7/10/10 8/12/12
f 7/13/13 1/14/14 8/15/15
f 8/15/15 1/14/14 4/16/16
f 6/17/17 8/18/18 10/19/19
f 10/19/19 8/18/18 9/20/20
f 8/21/21 4/22/22 9/23/23
f 9/23/23 4/22/22 11/24/24
f 4/25/25 3/26/26 11/27/27
f 11/27/27 3/26/26 12/28/28
f 12/29/29 3/30/30 10/31/31
f 10/31/31 3/30/30 6/32/32
f 1/33/33 12/34/34 2/35/35
f 2/35/35 12/34/34 10/36/36
f 2/35/35 10/36/36 5/37/37
f 5/37/37 10/36/36 9/38/38
f 5/37/37 9/38/38 7/39/39
f 7/39/39 9/38/38 1/33/33
f 1/33/33 9/38/38 11/40/40
f 1/33/33 11/40/40 12/34/34
g Body24

v -62.500000 9.000000 131.000000
v 62.500000 9.000000 131.000000
v 62.500000 9.000000 136.000000
v -62.500000 9.000000 136.000000
v -62.500000 -9.000000 131.000000
v -62.500000 -9.000000 136.000000
v 62.500000 -9.000000 131.000000
v 62.500000 -9.000000 136.000000
v 64.000001 64.000001 136.000000
v 64.000001 -64.000001 136.000000
v 64.000001 -64.000001 131.000000
v 64.000001 64.000001 131.000000
v -64.000001 64.000001 136.000000
v -64.000001 64.000001 131.000000
v -64.000001 -64.000001 136.000000
v -64.000001 -64.000001 131.000000
vt -0.000000 0.500000 0.000000
vt -12.500000 0.500000 0.000000
vt -0.000000 0.000000 0.000000
vt -12.500000 0.000000 0.000000
vt -0.000000 0.500000 0.000000
vt -1.800000 0.500000 0.000000
vt -0.000000 0.000000 0.000000
vt -1.800000 0.000000 0.000000
vt -0.000000 0.500000 0.000000
vt -12.500000 0.500000 0.000000
vt 0.000000 0.000000 0.000000
vt -12.500000 0.000000 0.000000
vt 0.000000 0.500000 0.000000
vt -1.800000 0.500000 0.000000
vt 0.000000 0.000000 0.000000
vt -1.800000 -0.000000 0.000000
vt 0.000000 0.000000 0.000000
vt 12.800000 0.000000 0.000000
vt 0.000000 0.500000 0.000000
vt 12.800000 0.500000 0.000000
vt 0.000000 0.000000 0.000000
vt 12.800000 0.000000 0.000000
vt 0.000000 0.500000 0.000000
vt 12.800000 0.500000 0.000000
vt 0.000000 0.000000 0.000000
vt 12.800000 0.000000 0.000000
vt 0.000000 0.500000 0.000000
vt 12.800000 0.500000 0.000000
vt 0.000000 0.000000 0.000000
vt 12.800000 0.000000 0.000000
vt 0.000000 0.500000 0.000000
vt 12.800000 0.500000 0.000000
vt 6.250000 0.900000 0.000000
vt -6.400000 6.400000 0.000000
vt -6.250000 0.900000 0.000000
vt -6.400000 -6.400000 0.000000
vt -6.250000 -0.900000 0.000000
vt 6.400000 -6.400000 0.000000
vt 6.250000 -0.900000 0.000000
vt 6.400000 6.400000 0.000000
vt 6.250000 0.900000 0.000000
vt 6.250000 -0.900000 0.000000
vt 6.400000 -6.400000 0.000000
vt -6.250000 -0.900000 0.000000
vt -6.400000 -6.400000 0.000000
vt -6.250000 0.900000 0.000000
vt -6.400000 6.400000 0.000000
vt 6.400000 6.400000 0.000000
vn 0.000000 -0.100000 0.000000
vn 0.000000 -0.100000 0.000000
vn 0.000000 -0.100000 0.000000
vn 0.000000 -0.100000 0.000000
vn 0.100000 -0.000000 0.000000
vn 0.100000 -0.000000 0.000000
vn 0.100000 -0.000000 0.000000
vn 0.100000 -0.000000 0.000000
vn -0.000000 0.100000 -0.000000
vn -0.000000 0.100000 -0.000000
vn -0.000000 0.100000 -0.000000
vn -0.000000 0.100000 -0.000000
vn -0.100000 0.000000 -0.000000
vn -0.100000 0.000000 -0.000000
vn -0.100000 0.000000 -0.000000
vn -0.100000 0.000000 -0.000000
vn 0.100000 0.000000 0.000000
vn 0.100000 0.000000 0.000000
vn 0.100000 0.000000 0.000000
vn 0.100000 0.000000 0.000000
vn 0.000000 0.100000 0.000000
vn 0.000000 0.100000 0.000000
vn 0.000000 0.100000 0.000000
vn 0.000000 0.100000 0.000000
vn -0.100000 0.000000 0.000000
vn -0.100000 0.000000 0.000000
vn -0.100000 0.000000 0.000000
vn -0.100000 0.000000 0.000000
vn 0.000000 -0.100000 0.000000
vn 0.000000 -0.100000 0.000000
vn 0.000000 -0.100000 0.000000
vn 0.000000 -0.100000 0.000000
vn 0.000000 0.000000 0.100000
vn 0.000000 0.000000 0.100000
vn 0.000000 0.000000 0.100000
vn 0.000000 0.000000 0.100000
vn 0.000000 0.000000 0.100000
vn 0.000000 0.000000 0.100000
vn 0.000000 0.000000 0.100000
vn 0.000000 0.000000 0.100000
vn 0.000000 0.000000 -0.100000
vn 0.000000 0.000000 -0.100000
vn 0.000000 0.000000 -0.100000
vn 0.000000 0.000000 -0.100000
vn 0.000000 0.000000 -0.100000
vn 0.000000 0.000000 -0.100000
vn 0.000000 0.000000 -0.100000
vn 0.000000 0.000000 -0.100000
usemtl ABS_(White)
f 13/41/41 14/42/42 16/43/43
f 16/43/43 14/42/42 15/44/44
f 17/45/45 13/46/46 18/47/47
f 18/47/47 13/46/46 16/48/48
f 19/49/49 17/50/50 20/51/51
f 20/51/51 17/50/50 18/52/52
f 14/53/53 19/54/54 15/55/55
f 15/55/55 19/54/54 20/56/56
f 21/57/57 22/58/58 24/59/59
f 24/59/59 22/58/58 23/60/60
f 25/61/61 21/62/62 26/63/63
f 26/63/63 21/62/62 24/64/64
f 27/65/65 25/66/66 28/67/67
f 28/67/67 25/66/66 26/68/68
f 22/69/69 27/70/70 23/71/71
f 23/71/71 27/70/70 28/72/72
f 18/73/73 22/74/74 20/75/75
f 20/75/75 22/74/74 21/76/76
f 20/75/75 21/76/76 15/77/77
f 15/77/77 21/76/76 25/78/78
f 15/77/77 25/78/78 16/79/79
f 16/79/79 25/78/78 18/73/73
f 18/73/73 25/78/78 27/80/80
f 18/73/73 27/80/80 22/74/74
f 13/81/81 17/82/82 28/83/83
f 28/83/83 17/82/82 19/84/84
f 28/83/83 19/84/84 23/85/85
f 23/85/85 19/84/84 14/86/86
f 23/85/85 14/86/86 24/87/87
f 24/87/87 14/86/86 13/81/81
f 24/87/87 13/81/81 26/88/88
f 26/88/88 13/81/81 28/83/83
g Body29

v -60.100000 -6.600000 136.000000
v -60.100000 -6.600000 131.000000
v -60.100000 6.600000 131.000000
v -60.100000 6.600000 136.000000
v -62.500000 -9.000000 131.000000
v 62.500000 -9.000000 131.000000
v 62.500000 -9.000000 136.000000
v -62.500000 -9.000000 136.000000
v -62.500000 9.000000 136.000000
v 62.500000 9.000000 136.000000
v 60.100000 6.600000 136.000000
v 60.100000 -6.600000 136.000000
v 60.100000 6.600000 131.000000
v -62.500000 9.000000 131.000000
v 60.100000 -6.600000 131.000000
v 62.500000 9.000000 131.000000
vt 0.000000 0.240000 0.000000
vt 0.500000 0.240000 0.000000
vt 0.000000 1.560000 0.000000
vt 0.500000 1.560000 0.000000
vt 0.000000 0.000000 0.000000
vt 0.500000 0.000000 0.000000
vt 0.000000 12.500000 0.000000
vt 0.500000 12.500000 0.000000
vt 1.800000 -0.000000 0.000000
vt 1.800000 12.500000 0.000000
vt 1.560000 12.260000 0.000000
vt -0.000000 12.500000 0.000000
vt 0.240000 12.260000 0.000000
vt -0.000000 -0.000000 0.000000
vt 0.240000 0.240000 0.000000
vt 1.560000 0.240000 0.000000
vt 0.000000 0.240000 0.000000
vt 0.500000 0.240000 0.000000
vt 0.000000 12.260000 0.000000
vt 0.500000 12.260000 0.000000
vt 0.000000 0.000000 0.000000
vt 0.500000 0.000000 0.000000
vt 0.000000 1.800000 0.000000
vt 0.500000 1.800000 0.000000
vt -0.500000 -12.260000 0.000000
vt 0.000000 -12.260000 0.000000
vt -0.500000 -0.240000 0.000000
vt 0.000000 -0.240000 0.000000
vt -0.500000 -1.560000 0.000000
vt 0.000000 -1.560000 0.000000
vt -0.500000 -0.240000 0.000000
vt 0.000000 -0.240000 0.000000
vt 1.560000 0.240000 0.000000
vt 1.800000 -0.000000 0.000000
vt 1.560000 12.260000 0.000000
vt 1.800000 12.500000 0.000000
vt 0.000000 12.500000 0.000000
vt 0.240000 0.240000 0.000000
vt -0.000000 -0.000000 0.000000
vt 0.240000 12.260000 0.000000
vt 1.800000 0.500000 0.000000
vt -0.000000 0.500000 0.000000
vt 1.800000 -0.000000 0.000000
vt -0.000000 0.000000 0.000000
vt 0.500000 0.000000 0.000000
vt 0.000000 12.500000 0.000000
vt 0.500000 12.500000 0.000000
vn 0.100000 -0.000000 0.000000
vn 0.100000 -0.000000 0.000000
vn 0.100000 -0.000000 0.000000
vn 0.100000 -0.000000 0.000000
vn -0.000000 -0.100000 0.000000
vn -0.000000 -0.100000 0.000000
vn -0.000000 -0.100000 0.000000
vn -0.000000 -0.100000 0.000000
vn 0.000000 0.000000 0.100000
vn 0.000000 0.000000 0.100000
vn 0.000000 0.000000 0.100000
vn 0.000000 0.000000 0.100000
vn 0.000000 0.000000 0.100000
vn 0.000000 0.000000 0.100000
vn 0.000000 0.000000 0.100000
vn 0.000000 0.000000 0.100000
vn 0.000000 -0.100000 0.000000
vn 0.000000 -0.100000 0.000000
vn 0.000000 -0.100000 0.000000
vn 0.000000 -0.100000 0.000000
vn -0.100000 0.000000 0.000000
vn -0.100000 0.000000 0.000000
vn -0.100000 0.000000 0.000000
vn -0.100000 0.000000 0.000000
vn 0.000000 0.100000 0.000000
vn 0.000000 0.100000 0.000000
vn 0.000000 0.100000 0.000000
vn 0.000000 0.100000 0.000000
vn -0.100000 0.000000 0.000000
vn -0.100000 0.000000 0.000000
vn -0.100000 0.000000 0.000000
vn -0.100000 0.000000 0.000000
vn 0.000000 0.000000 -0.100000
vn 0.000000 0.000000 -0.100000
vn 0.000000 0.000000 -0.100000
vn 0.000000 0.000000 -0.100000
vn 0.000000 0.000000 -0.100000
vn 0.000000 0.000000 -0.100000
vn 0.000000 0.000000 -0.100000
vn 0.000000 0.000000 -0.100000
vn 0.100000 -0.000000 0.000000
vn 0.100000 -0.000000 0.000000
vn 0.100000 -0.000000 0.000000
vn 0.100000 -0.000000 0.000000
vn 0.000000 0.100000 0.000000
vn 0.000000 0.100000 0.000000
vn 0.000000 0.100000 0.000000
vn 0.000000 0.100000 0.000000
f 29/89/89 30/90/90 32/91/91
f 32/91/91 30/90/90 31/92/92
f 34/93/93 35/94/94 33/95/95
f 33/95/95 35/94/94 36/96/96
usemtl Acetal_Resin_(White)
f 38/97/97 37/98/98 32/99/99
f 32/99/99 37/98/98 36/100/100
f 32/99/99 36/100/100 29/101/101
f 29/101/101 36/100/100 35/102/102
f 29/101/101 35/102/102 40/103/103
f 40/103/103 35/102/102 38/97/97
f 40/103/103 38/97/97 39/104/104
f 39/104/104 38/97/97 32/99/99
usemtl ABS_(White)
f 32/105/105 31/106/106 39/107/107
f 39/107/107 31/106/106 41/108/108
f 33/109/109 36/110/110 42/111/111
f 42/111/111 36/110/110 37/112/112
f 30/113/113 29/114/114 43/115/115
f 43/115/115 29/114/114 40/116/116
f 43/117/117 40/118/118 41/119/119
f 41/119/119 40/118/118 39/120/120
f 43/121/121 34/122/122 30/123/123
f 30/123/123 34/122/122 33/124/124
f 30/123/123 33/124/124 42/125/125
f 43/121/121 41/126/126 34/122/122
f 34/122/122 41/126/126 44/127/127
f 44/127/127 41/126/126 31/128/128
f 44/127/127 31/128/128 42/125/125
f 42/125/125 31/128/128 30/123/123
f 34/129/129 44/130/130 35/131/131
f 35/131/131 44/130/130 38/132/132
f 38/132/133 44/133/134 37/134/135
f 37/134/135 44/133/134 42/135/136
# 44 vertices
# 135 texture params
# 136 normals
# 88 facets

# 3 groups
